<svg width="52" height="50" viewBox="0 0 52 50" fill="none" xmlns="http://www.w3.org/2000/svg">
<path d="M52 25C52 38.8071 40.3594 50 26 50C11.6406 50 0 38.8071 0 25C0 11.1929 11.6406 0 26 0C40.3594 0 52 11.1929 52 25Z" fill="url(#paint0_radial_64_1419)"/>
<path fill-rule="evenodd" clip-rule="evenodd" d="M17.8128 15C17.6028 15 17.4156 15.1456 17.3433 15.3644L16.0611 19.2594C16.0206 19.3826 16 19.5115 16 19.6411V21.1906C16 22.0667 16.6394 22.7778 17.4283 22.7778C18.2172 22.7778 18.8572 22.0667 18.8572 21.1906C18.8572 22.0672 19.4967 22.7778 20.2856 22.7778C21.0744 22.7778 21.7144 22.0667 21.7144 21.1906C21.7144 22.0672 22.3539 22.7778 23.1428 22.7778C23.9317 22.7778 24.5706 22.0678 24.5717 21.1917C24.5717 22.0678 25.2111 22.7778 26 22.7778C26.7889 22.7778 27.4283 22.0667 27.4283 21.1906C27.4283 22.0672 28.0683 22.7778 28.8572 22.7778C29.6461 22.7778 30.285 22.0678 30.2856 21.1917C30.2861 22.0678 30.9256 22.7778 31.7144 22.7778C32.5033 22.7778 33.1428 22.0667 33.1428 21.1906C33.1428 22.0672 33.7822 22.7778 34.5717 22.7778C35.3606 22.7778 36 22.0667 36 21.1906V19.6411C36 19.5115 35.9794 19.3826 35.9389 19.2594L34.6567 15.365C34.5844 15.1456 34.3972 15 34.1872 15H17.8128Z" fill="#20202E"/>
<path fill-rule="evenodd" clip-rule="evenodd" d="M18.2222 23.4611V27.7778H16.8333C16.7596 27.7778 16.689 27.807 16.6369 27.8591C16.5848 27.9112 16.5555 27.9819 16.5555 28.0556V28.6111C16.5555 28.6848 16.5848 28.7554 16.6369 28.8075C16.689 28.8596 16.7596 28.8889 16.8333 28.8889H35.1667C35.2403 28.8889 35.311 28.8596 35.3631 28.8075C35.4152 28.7554 35.4444 28.6848 35.4444 28.6111V28.0556C35.4444 27.9819 35.4152 27.9112 35.3631 27.8591C35.311 27.807 35.2403 27.7778 35.1667 27.7778H33.7778V23.4611C33.5451 23.3686 33.3303 23.2365 33.1428 23.0706C32.9986 23.1974 32.8385 23.3049 32.6667 23.3906V27.7778H19.3333V23.3906C19.1615 23.3049 19.0014 23.1974 18.8572 23.0706C18.6705 23.2345 18.4572 23.3678 18.2222 23.4611ZM32.6667 22.3739C32.7137 22.3269 32.7581 22.2763 32.8 22.2222H32.6667V22.3739ZM33.4855 22.2222C33.5698 22.3308 33.668 22.4278 33.7778 22.5106V22.2222H33.4855ZM18.2222 22.5106C18.3328 22.4289 18.4312 22.3318 18.5144 22.2222H18.2222V22.5106ZM19.2 22.2222H19.3333V22.3739C19.2859 22.3261 19.2413 22.2754 19.2 22.2222ZM17.3889 30C17.3152 30 17.2446 30.0293 17.1925 30.0814C17.1404 30.1335 17.1111 30.2041 17.1111 30.2778V34.4445C17.1111 34.5918 17.1696 34.7331 17.2738 34.8373C17.378 34.9415 17.5193 35 17.6667 35H34.3333C34.4807 35 34.622 34.9415 34.7262 34.8373C34.8303 34.7331 34.8889 34.5918 34.8889 34.4445V30.2778C34.8889 30.2041 34.8596 30.1335 34.8075 30.0814C34.7554 30.0293 34.6848 30 34.6111 30H17.3889Z" fill="#20202E"/>
<path d="M20.4445 26.3889C20.4445 26.3152 20.4737 26.2446 20.5258 26.1925C20.5779 26.1404 20.6486 26.1111 20.7222 26.1111H22.3889C22.4626 26.1111 22.5332 26.1404 22.5853 26.1925C22.6374 26.2446 22.6667 26.3152 22.6667 26.3889V27.5C22.6667 27.5737 22.6374 27.6443 22.5853 27.6964C22.5332 27.7485 22.4626 27.7778 22.3889 27.7778H20.7222C20.6486 27.7778 20.5779 27.7485 20.5258 27.6964C20.4737 27.6443 20.4445 27.5737 20.4445 27.5V26.3889Z" fill="#20202E"/>
<path d="M21.5555 26.9444C21.5555 26.8708 21.5848 26.8001 21.6369 26.748C21.689 26.6959 21.7596 26.6667 21.8333 26.6667H23.5C23.5737 26.6667 23.6443 26.6959 23.6964 26.748C23.7485 26.8001 23.7778 26.8708 23.7778 26.9444V27.5C23.7778 27.5737 23.7485 27.6443 23.6964 27.6964C23.6443 27.7485 23.5737 27.7778 23.5 27.7778H21.8333C21.7596 27.7778 21.689 27.7485 21.6369 27.6964C21.5848 27.6443 21.5555 27.5737 21.5555 27.5V26.9444ZM26 26.9444C26 27.1655 25.9122 27.3774 25.7559 27.5337C25.5996 27.69 25.3877 27.7778 25.1667 27.7778C24.9456 27.7778 24.7337 27.69 24.5774 27.5337C24.4211 27.3774 24.3333 27.1655 24.3333 26.9444C24.3333 26.7234 24.4211 26.5115 24.5774 26.3552C24.7337 26.1989 24.9456 26.1111 25.1667 26.1111C25.3877 26.1111 25.5996 26.1989 25.7559 26.3552C25.9122 26.5115 26 26.7234 26 26.9444Z" fill="#20202E"/>
<defs>
<radialGradient id="paint0_radial_64_1419" cx="0" cy="0" r="1" gradientUnits="userSpaceOnUse" gradientTransform="translate(26 25) rotate(138.223) scale(25 26)">
<stop offset="0.09" stop-color="#9E6F2F"/>
<stop offset="0.38" stop-color="#C79E66"/>
<stop offset="1" stop-color="#8F4E2F"/>
</radialGradient>
</defs>
</svg>
