<svg width="17" height="20" viewBox="0 0 17 20" fill="none" xmlns="http://www.w3.org/2000/svg">
<path d="M2.125 15.8333L14.875 15.8333C15.0041 15.8328 15.1306 15.7909 15.241 15.7122C15.3513 15.6334 15.4413 15.5207 15.5013 15.3862C15.5613 15.2517 15.5889 15.1005 15.5813 14.9489C15.5736 14.7973 15.531 14.651 15.458 14.5258L9.08296 3.69247C8.81875 3.2433 8.18267 3.2433 7.91775 3.69247L1.54275 14.5258C1.46896 14.6508 1.42569 14.7971 1.41763 14.949C1.40958 15.1008 1.43705 15.2524 1.49707 15.3871C1.55709 15.5219 1.64735 15.6348 1.75806 15.7134C1.86876 15.7921 1.99567 15.8335 2.125 15.8333Z" fill="#F2EFEA"/>
</svg>
