<svg width="52" height="50" viewBox="0 0 52 50" fill="none" xmlns="http://www.w3.org/2000/svg">
<path d="M52 25C52 38.8071 40.3594 50 26 50C11.6406 50 0 38.8071 0 25C0 11.1929 11.6406 0 26 0C40.3594 0 52 11.1929 52 25Z" fill="url(#paint0_radial_142_8668)"/>
<path d="M24.8889 39.8749V37.0971C21.8796 36.7731 19.2974 35.5754 17.1423 33.5041C14.9872 31.4328 13.7416 28.9499 13.4056 26.0555H10.5167V23.2777H13.4056C13.7426 20.3842 14.9887 17.9013 17.1438 15.8291C19.2989 13.7569 21.8806 12.5592 24.8889 12.236V9.45825H27.7778V12.236C30.787 12.5601 33.3692 13.7583 35.5243 15.8305C37.6794 17.9027 38.925 20.3851 39.2611 23.2777H42.15V26.0555H39.2611C38.9241 28.949 37.6785 31.4319 35.5243 33.5041C33.3702 35.5763 30.788 36.774 27.7778 37.0971V39.8749H24.8889ZM26.3333 34.3888C29.1259 34.3888 31.5093 33.4397 33.4833 31.5416C35.4574 29.6434 36.4444 27.3518 36.4444 24.6666C36.4444 21.9814 35.4574 19.6897 33.4833 17.7916C31.5093 15.8934 29.1259 14.9444 26.3333 14.9444C23.5407 14.9444 21.1574 15.8934 19.1833 17.7916C17.2093 19.6897 16.2222 21.9814 16.2222 24.6666C16.2222 27.3518 17.2093 29.6434 19.1833 31.5416C21.1574 33.4397 23.5407 34.3888 26.3333 34.3888ZM26.3333 30.2221C24.7444 30.2221 23.3843 29.6782 22.2528 28.5902C21.1213 27.5022 20.5556 26.1944 20.5556 24.6666C20.5556 23.1388 21.1213 21.8309 22.2528 20.743C23.3843 19.655 24.7444 19.111 26.3333 19.111C27.9222 19.111 29.2824 19.655 30.4139 20.743C31.5454 21.8309 32.1111 23.1388 32.1111 24.6666C32.1111 26.1944 31.5454 27.5022 30.4139 28.5902C29.2824 29.6782 27.9222 30.2221 26.3333 30.2221Z" fill="#20202E"/>
<defs>
<radialGradient id="paint0_radial_142_8668" cx="0" cy="0" r="1" gradientUnits="userSpaceOnUse" gradientTransform="translate(26 25) rotate(138.223) scale(25 26)">
<stop offset="0.09" stop-color="#9E6F2F"/>
<stop offset="0.38" stop-color="#C79E66"/>
<stop offset="1" stop-color="#8F4E2F"/>
</radialGradient>
</defs>
</svg>
