<svg width="54" height="52" viewBox="0 0 54 52" fill="none" xmlns="http://www.w3.org/2000/svg">
<ellipse cx="27" cy="26" rx="27" ry="26" fill="url(#paint0_radial_64_2064)"/>
<path d="M8.672 33.304C7.936 33.304 7.27467 33.1173 6.688 32.744C6.10133 32.36 5.64267 31.832 5.312 31.16C4.98133 30.488 4.816 29.7307 4.816 28.888C4.816 27.9707 5.01867 27.096 5.424 26.264C5.84 25.4213 6.42133 24.6907 7.168 24.072C7.744 23.592 8.37333 23.224 9.056 22.968C9.74933 22.712 10.4587 22.584 11.184 22.584L11.168 23.464C10.5387 23.4533 9.92 23.56 9.312 23.784C8.71467 24.008 8.16533 24.3333 7.664 24.76C7.216 25.1547 6.832 25.6187 6.512 26.152C6.192 26.6747 5.98933 27.1867 5.904 27.688C6.16 27.208 6.54933 26.8187 7.072 26.52C7.60533 26.2107 8.16 26.056 8.736 26.056C9.38667 26.056 9.99467 26.2213 10.56 26.552C11.1253 26.8827 11.5733 27.3307 11.904 27.896C12.2347 28.4507 12.4 29.0533 12.4 29.704C12.4 30.3653 12.2347 30.9733 11.904 31.528C11.5733 32.072 11.12 32.504 10.544 32.824C9.97867 33.144 9.35467 33.304 8.672 33.304ZM8.688 32.408C9.18933 32.408 9.648 32.2853 10.064 32.04C10.4907 31.7947 10.8267 31.464 11.072 31.048C11.3173 30.632 11.44 30.1787 11.44 29.688C11.44 29.1973 11.3173 28.744 11.072 28.328C10.8267 27.912 10.496 27.5813 10.08 27.336C9.664 27.08 9.21067 26.952 8.72 26.952C8.19733 26.952 7.72267 27.0747 7.296 27.32C6.86933 27.5653 6.53333 27.9013 6.288 28.328C6.05333 28.744 5.936 29.208 5.936 29.72C5.936 30.2107 6.05867 30.664 6.304 31.08C6.56 31.4853 6.896 31.8107 7.312 32.056C7.73867 32.2907 8.19733 32.408 8.688 32.408ZM23.4018 21.976C24.4044 22.04 25.2898 22.3173 26.0578 22.808C26.8258 23.288 27.4178 23.9387 27.8338 24.76C28.2604 25.5813 28.4738 26.5093 28.4738 27.544C28.4738 28.6427 28.2444 29.6187 27.7858 30.472C27.3271 31.3253 26.6818 31.9867 25.8498 32.456C25.0178 32.9253 24.0684 33.16 23.0018 33.16H22.0898C22.0044 33.16 21.8178 33.16 21.5298 33.16C21.2524 33.16 20.7244 33.128 19.9457 33.064L19.1938 33V21.96L23.4018 21.976ZM22.3938 32.28C24.0364 32.28 25.3004 31.8747 26.1858 31.064C27.0711 30.2533 27.5138 29.096 27.5138 27.592C27.5138 26.184 27.1351 25.064 26.3778 24.232C25.6204 23.4 24.5751 22.9467 23.2418 22.872H20.1538V32.2L20.7458 32.232C21.8018 32.264 22.3511 32.28 22.3938 32.28ZM31.0386 29.336C31.0493 30.0827 31.2306 30.7653 31.5826 31.384C31.9346 32.0027 32.6386 32.312 33.6946 32.312C34.1533 32.312 34.5746 32.2533 34.9586 32.136C35.3533 32.0187 35.78 31.8267 36.2386 31.56L36.6546 32.232C36.228 32.52 35.7533 32.7493 35.2306 32.92C34.708 33.0907 34.1746 33.176 33.6306 33.176C32.5106 33.176 31.636 32.8187 31.0066 32.104C30.388 31.3787 30.0786 30.4293 30.0786 29.256C30.0786 28.4987 30.2173 27.7893 30.4946 27.128C30.772 26.456 31.1826 25.912 31.7266 25.496C32.2706 25.08 32.9106 24.872 33.6466 24.872C34.2653 24.872 34.8253 25.0213 35.3266 25.32C35.8386 25.608 36.2386 26.008 36.5266 26.52C36.8253 27.0213 36.9746 27.5813 36.9746 28.2C36.9746 28.3707 36.9693 28.5253 36.9586 28.664C36.948 28.792 36.9373 28.904 36.9266 29L36.8946 29.336H31.0386ZM35.9986 28.472C36.0093 28.3973 36.0146 28.2907 36.0146 28.152C36.0146 27.704 35.908 27.2987 35.6946 26.936C35.4813 26.5627 35.1933 26.2693 34.8306 26.056C34.468 25.8427 34.068 25.736 33.6306 25.736C32.98 25.736 32.42 25.976 31.9506 26.456C31.492 26.9253 31.204 27.5973 31.0866 28.472H35.9986ZM42.2133 33.112C41.0506 33.112 40.1333 32.7547 39.4613 32.04C38.7999 31.3253 38.4693 30.3493 38.4693 29.112C38.4693 28.2587 38.6293 27.5067 38.9493 26.856C39.2693 26.1947 39.7226 25.688 40.3093 25.336C40.8959 24.9733 41.5733 24.792 42.3413 24.792C42.7679 24.792 43.1626 24.872 43.5253 25.032C43.8986 25.1813 44.2826 25.4267 44.6773 25.768L44.0373 26.344C43.7919 26.0987 43.5359 25.9227 43.2693 25.816C43.0133 25.7093 42.7039 25.656 42.3413 25.656C41.4559 25.656 40.7466 25.976 40.2133 26.616C39.6906 27.2453 39.4293 28.0933 39.4293 29.16C39.4293 30.1413 39.6746 30.904 40.1653 31.448C40.6666 31.9813 41.3759 32.248 42.2933 32.248C43.0719 32.248 43.9146 31.9973 44.8213 31.496L45.2373 32.168C44.7999 32.4667 44.3146 32.7013 43.7813 32.872C43.2586 33.032 42.7359 33.112 42.2133 33.112Z" fill="#20202E"/>
<defs>
<radialGradient id="paint0_radial_64_2064" cx="0" cy="0" r="1" gradientUnits="userSpaceOnUse" gradientTransform="translate(27 26) rotate(90) scale(26 27)">
<stop offset="0.48" stop-color="#C79E66"/>
<stop offset="1" stop-color="#8F4E2F"/>
</radialGradient>
</defs>
</svg>
