<svg width="54" height="52" viewBox="0 0 54 52" fill="none" xmlns="http://www.w3.org/2000/svg">
<ellipse cx="27" cy="26" rx="27" ry="26" fill="url(#paint0_radial_64_2061)"/>
<path d="M8 33.128C7.40267 33.128 6.82133 33.0213 6.256 32.808C5.69067 32.584 5.21067 32.2853 4.816 31.912L5.296 31.192C6.032 31.896 6.88533 32.248 7.856 32.248C8.69867 32.248 9.37067 31.992 9.872 31.48C10.384 30.968 10.64 30.2853 10.64 29.432C10.64 28.6213 10.3733 28.024 9.84 27.64C9.31733 27.2453 8.50133 27.048 7.392 27.048C7.08267 27.048 6.704 27.0747 6.256 27.128C5.808 27.1813 5.48267 27.24 5.28 27.304V22.744H10.608V23.64H6.24V26.28C6.848 26.1947 7.31733 26.152 7.648 26.152C8.43733 26.152 9.13067 26.2907 9.728 26.568C10.3253 26.8453 10.784 27.24 11.104 27.752C11.4347 28.264 11.6 28.8613 11.6 29.544C11.6 30.216 11.44 30.8293 11.12 31.384C10.8107 31.928 10.384 32.3547 9.84 32.664C9.296 32.9733 8.68267 33.128 8 33.128ZM22.6361 21.976C23.6388 22.04 24.5241 22.3173 25.2921 22.808C26.0601 23.288 26.6521 23.9387 27.0681 24.76C27.4948 25.5813 27.7081 26.5093 27.7081 27.544C27.7081 28.6427 27.4788 29.6187 27.0201 30.472C26.5615 31.3253 25.9161 31.9867 25.0841 32.456C24.2521 32.9253 23.3028 33.16 22.2361 33.16H21.3241C21.2388 33.16 21.0521 33.16 20.7641 33.16C20.4868 33.16 19.9588 33.128 19.1801 33.064L18.4281 33V21.96L22.6361 21.976ZM21.6281 32.28C23.2708 32.28 24.5348 31.8747 25.4201 31.064C26.3055 30.2533 26.7481 29.096 26.7481 27.592C26.7481 26.184 26.3695 25.064 25.6121 24.232C24.8548 23.4 23.8095 22.9467 22.4761 22.872H19.3881V32.2L19.9801 32.232C21.0361 32.264 21.5855 32.28 21.6281 32.28ZM30.273 29.336C30.2837 30.0827 30.465 30.7653 30.817 31.384C31.169 32.0027 31.873 32.312 32.929 32.312C33.3877 32.312 33.809 32.2533 34.193 32.136C34.5877 32.0187 35.0143 31.8267 35.473 31.56L35.889 32.232C35.4623 32.52 34.9877 32.7493 34.465 32.92C33.9423 33.0907 33.409 33.176 32.865 33.176C31.745 33.176 30.8703 32.8187 30.241 32.104C29.6223 31.3787 29.313 30.4293 29.313 29.256C29.313 28.4987 29.4517 27.7893 29.729 27.128C30.0063 26.456 30.417 25.912 30.961 25.496C31.505 25.08 32.145 24.872 32.881 24.872C33.4997 24.872 34.0597 25.0213 34.561 25.32C35.073 25.608 35.473 26.008 35.761 26.52C36.0597 27.0213 36.209 27.5813 36.209 28.2C36.209 28.3707 36.2037 28.5253 36.193 28.664C36.1823 28.792 36.1717 28.904 36.161 29L36.129 29.336H30.273ZM35.233 28.472C35.2437 28.3973 35.249 28.2907 35.249 28.152C35.249 27.704 35.1423 27.2987 34.929 26.936C34.7157 26.5627 34.4277 26.2693 34.065 26.056C33.7023 25.8427 33.3023 25.736 32.865 25.736C32.2143 25.736 31.6543 25.976 31.185 26.456C30.7263 26.9253 30.4383 27.5973 30.321 28.472H35.233ZM41.4476 33.112C40.285 33.112 39.3676 32.7547 38.6956 32.04C38.0343 31.3253 37.7036 30.3493 37.7036 29.112C37.7036 28.2587 37.8636 27.5067 38.1836 26.856C38.5036 26.1947 38.957 25.688 39.5436 25.336C40.1303 24.9733 40.8076 24.792 41.5756 24.792C42.0023 24.792 42.397 24.872 42.7596 25.032C43.133 25.1813 43.517 25.4267 43.9116 25.768L43.2716 26.344C43.0263 26.0987 42.7703 25.9227 42.5036 25.816C42.2476 25.7093 41.9383 25.656 41.5756 25.656C40.6903 25.656 39.981 25.976 39.4476 26.616C38.925 27.2453 38.6636 28.0933 38.6636 29.16C38.6636 30.1413 38.909 30.904 39.3996 31.448C39.901 31.9813 40.6103 32.248 41.5276 32.248C42.3063 32.248 43.149 31.9973 44.0556 31.496L44.4716 32.168C44.0343 32.4667 43.549 32.7013 43.0156 32.872C42.493 33.032 41.9703 33.112 41.4476 33.112Z" fill="#20202E"/>
<defs>
<radialGradient id="paint0_radial_64_2061" cx="0" cy="0" r="1" gradientUnits="userSpaceOnUse" gradientTransform="translate(27 26) rotate(90) scale(26 27)">
<stop offset="0.48" stop-color="#C79E66"/>
<stop offset="1" stop-color="#8F4E2F"/>
</radialGradient>
</defs>
</svg>
