<svg width="54" height="52" viewBox="0 0 54 52" fill="none" xmlns="http://www.w3.org/2000/svg">
<ellipse cx="27" cy="26" rx="27" ry="26" fill="url(#paint0_radial_64_2058)"/>
<path d="M8.096 33.192C7.328 33.192 6.63467 33.048 6.016 32.76C5.39733 32.4613 4.86933 32.0987 4.432 31.672L4.976 30.984C5.82933 31.8587 6.832 32.296 7.984 32.296C8.77333 32.296 9.43467 32.104 9.968 31.72C10.512 31.336 10.784 30.7813 10.784 30.056C10.784 29.576 10.656 29.16 10.4 28.808C10.144 28.456 9.81333 28.1893 9.408 28.008C9.00267 27.816 8.576 27.7093 8.128 27.688H6.384V26.856H8.112C8.44267 26.856 8.768 26.7707 9.088 26.6C9.41867 26.4187 9.68533 26.1787 9.888 25.88C10.1013 25.5813 10.208 25.2613 10.208 24.92C10.208 24.4293 9.98933 24.0453 9.552 23.768C9.12533 23.48 8.624 23.336 8.048 23.336C7.664 23.336 7.264 23.4053 6.848 23.544C6.44267 23.672 6.09067 23.8587 5.792 24.104L5.376 23.384C5.83467 23.0533 6.272 22.8133 6.688 22.664C7.104 22.5147 7.552 22.44 8.032 22.44C8.608 22.44 9.136 22.5413 9.616 22.744C10.096 22.936 10.4747 23.2187 10.752 23.592C11.0293 23.9547 11.168 24.3813 11.168 24.872C11.168 25.4267 10.9973 25.9333 10.656 26.392C10.3253 26.84 9.904 27.1227 9.392 27.24C10.0853 27.3573 10.6507 27.688 11.088 28.232C11.5253 28.776 11.744 29.432 11.744 30.2C11.744 30.8293 11.5787 31.3733 11.248 31.832C10.9173 32.28 10.4747 32.6213 9.92 32.856C9.36533 33.08 8.75733 33.192 8.096 33.192ZM22.8393 21.976C23.8419 22.04 24.7273 22.3173 25.4953 22.808C26.2633 23.288 26.8553 23.9387 27.2713 24.76C27.6979 25.5813 27.9113 26.5093 27.9113 27.544C27.9113 28.6427 27.6819 29.6187 27.2233 30.472C26.7646 31.3253 26.1193 31.9867 25.2873 32.456C24.4553 32.9253 23.5059 33.16 22.4393 33.16H21.5273C21.4419 33.16 21.2553 33.16 20.9673 33.16C20.6899 33.16 20.1619 33.128 19.3832 33.064L18.6313 33V21.96L22.8393 21.976ZM21.8313 32.28C23.4739 32.28 24.7379 31.8747 25.6233 31.064C26.5086 30.2533 26.9513 29.096 26.9513 27.592C26.9513 26.184 26.5726 25.064 25.8153 24.232C25.0579 23.4 24.0126 22.9467 22.6793 22.872H19.5913V32.2L20.1833 32.232C21.2393 32.264 21.7886 32.28 21.8313 32.28ZM30.4761 29.336C30.4868 30.0827 30.6681 30.7653 31.0201 31.384C31.3721 32.0027 32.0761 32.312 33.1321 32.312C33.5908 32.312 34.0121 32.2533 34.3961 32.136C34.7908 32.0187 35.2175 31.8267 35.6761 31.56L36.0921 32.232C35.6655 32.52 35.1908 32.7493 34.6681 32.92C34.1455 33.0907 33.6121 33.176 33.0681 33.176C31.9481 33.176 31.0735 32.8187 30.4441 32.104C29.8255 31.3787 29.5161 30.4293 29.5161 29.256C29.5161 28.4987 29.6548 27.7893 29.9321 27.128C30.2095 26.456 30.6201 25.912 31.1641 25.496C31.7081 25.08 32.3481 24.872 33.0841 24.872C33.7028 24.872 34.2628 25.0213 34.7641 25.32C35.2761 25.608 35.6761 26.008 35.9641 26.52C36.2628 27.0213 36.4121 27.5813 36.4121 28.2C36.4121 28.3707 36.4068 28.5253 36.3961 28.664C36.3855 28.792 36.3748 28.904 36.3641 29L36.3321 29.336H30.4761ZM35.4361 28.472C35.4468 28.3973 35.4521 28.2907 35.4521 28.152C35.4521 27.704 35.3455 27.2987 35.1321 26.936C34.9188 26.5627 34.6308 26.2693 34.2681 26.056C33.9055 25.8427 33.5055 25.736 33.0681 25.736C32.4175 25.736 31.8575 25.976 31.3881 26.456C30.9295 26.9253 30.6415 27.5973 30.5241 28.472H35.4361ZM41.6508 33.112C40.4881 33.112 39.5708 32.7547 38.8988 32.04C38.2374 31.3253 37.9068 30.3493 37.9068 29.112C37.9068 28.2587 38.0668 27.5067 38.3868 26.856C38.7068 26.1947 39.1601 25.688 39.7468 25.336C40.3334 24.9733 41.0108 24.792 41.7788 24.792C42.2054 24.792 42.6001 24.872 42.9628 25.032C43.3361 25.1813 43.7201 25.4267 44.1148 25.768L43.4748 26.344C43.2294 26.0987 42.9734 25.9227 42.7068 25.816C42.4508 25.7093 42.1414 25.656 41.7788 25.656C40.8934 25.656 40.1841 25.976 39.6508 26.616C39.1281 27.2453 38.8668 28.0933 38.8668 29.16C38.8668 30.1413 39.1121 30.904 39.6028 31.448C40.1041 31.9813 40.8134 32.248 41.7308 32.248C42.5094 32.248 43.3521 31.9973 44.2588 31.496L44.6748 32.168C44.2374 32.4667 43.7521 32.7013 43.2188 32.872C42.6961 33.032 42.1734 33.112 41.6508 33.112Z" fill="#20202E"/>
<defs>
<radialGradient id="paint0_radial_64_2058" cx="0" cy="0" r="1" gradientUnits="userSpaceOnUse" gradientTransform="translate(27 26) rotate(90) scale(26 27)">
<stop offset="0.48" stop-color="#C79E66"/>
<stop offset="1" stop-color="#8F4E2F"/>
</radialGradient>
</defs>
</svg>
