<svg width="39" height="39" viewBox="0 0 39 39" fill="none" xmlns="http://www.w3.org/2000/svg">
<circle cx="19.5" cy="19.5" r="19.5" fill="url(#paint0_radial_139_1711)"/>
<path d="M19.6 25.384C19.753 25.5364 19.9601 25.622 20.176 25.622C20.3919 25.622 20.5991 25.5364 20.752 25.384L21.904 24.232L25.392 27.688L24.8 28.28C24.1962 28.9244 23.3758 29.3232 22.496 29.4H20.184C19.2986 29.3271 18.4718 28.9279 17.864 28.28L9.75201 20.168C9.09221 19.5653 8.68135 18.7379 8.60001 17.848V15.528C8.68135 14.638 9.09221 13.8106 9.75201 13.208L10.328 12.632L13.816 16.104L12.648 17.272C12.4956 17.4249 12.41 17.632 12.41 17.848C12.41 18.0639 12.4956 18.271 12.648 18.424L19.6 25.384ZM27.152 25.992C27.3044 25.8472 27.4267 25.6739 27.5121 25.4818C27.5974 25.2898 27.6441 25.0828 27.6495 24.8727C27.6548 24.6626 27.6187 24.4535 27.5433 24.2574C27.4678 24.0612 27.3544 23.8819 27.2096 23.7296L27.152 23.672L26 22.52C25.8553 22.3676 25.6819 22.2452 25.4899 22.1599C25.2978 22.0745 25.0908 22.0278 24.8807 22.0225C24.6706 22.0171 24.4616 22.0532 24.2654 22.1287C24.0693 22.2042 23.8899 22.3175 23.7376 22.4624L23.68 22.52L27.152 25.992ZM15.504 14.392C15.6564 14.2472 15.7787 14.0739 15.8641 13.8818C15.9494 13.6898 15.9961 13.4828 16.0015 13.2727C16.0068 13.0626 15.9707 12.8535 15.8953 12.6574C15.8198 12.4612 15.7064 12.2819 15.5616 12.1296L14.352 10.92C14.2073 10.7676 14.0339 10.6452 13.8419 10.5599C13.6498 10.4745 13.4428 10.4278 13.2327 10.4225C13.0226 10.4171 12.8136 10.4532 12.6174 10.5287C12.4213 10.6042 12.2419 10.7175 12.0896 10.8624L12.024 10.92L15.504 14.392ZM23 10.2V13.4H19.8V15H23V18.2H24.6V15H27.8V13.4H24.6V10.2H23Z" fill="#20202E"/>
<defs>
<radialGradient id="paint0_radial_139_1711" cx="0" cy="0" r="1" gradientUnits="userSpaceOnUse" gradientTransform="translate(19.5 19.5) rotate(90) scale(19.5)">
<stop offset="0.545" stop-color="#C79E66"/>
<stop offset="1" stop-color="#8F4E2F"/>
</radialGradient>
</defs>
</svg>
