<svg width="52" height="50" viewBox="0 0 52 50" fill="none" xmlns="http://www.w3.org/2000/svg">
<path d="M52 25C52 38.8071 40.3594 50 26 50C11.6406 50 0 38.8071 0 25C0 11.1929 11.6406 0 26 0C40.3594 0 52 11.1929 52 25Z" fill="url(#paint0_radial_64_1404)"/>
<path d="M39.3334 33.8067C39.3334 34.0719 39.228 34.3262 39.0405 34.5138C38.8529 34.7013 38.5986 34.8067 38.3334 34.8067H31.5334C31.3106 35.6372 30.8201 36.371 30.1379 36.8943C29.4557 37.4177 28.6199 37.7014 27.76 37.7014C26.9002 37.7014 26.0643 37.4177 25.3821 36.8943C24.6999 36.371 24.2094 35.6372 23.9867 34.8067H13.6667C13.4015 34.8067 13.1471 34.7013 12.9596 34.5138C12.772 34.3262 12.6667 34.0719 12.6667 33.8067C12.6667 33.5414 12.772 33.2871 12.9596 33.0996C13.1471 32.912 13.4015 32.8067 13.6667 32.8067H23.9867C24.2094 31.9762 24.6999 31.2423 25.3821 30.719C26.0643 30.1956 26.9002 29.9119 27.76 29.9119C28.6199 29.9119 29.4557 30.1956 30.1379 30.719C30.8201 31.2423 31.3106 31.9762 31.5334 32.8067H38.3334C38.5986 32.8067 38.8529 32.912 39.0405 33.0996C39.228 33.2871 39.3334 33.5414 39.3334 33.8067ZM39.3334 16.1933C39.3334 16.4585 39.228 16.7129 39.0405 16.9004C38.8529 17.088 38.5986 17.1933 38.3334 17.1933H35.0667C34.844 18.0238 34.3535 18.7576 33.6712 19.281C32.989 19.8044 32.1532 20.0881 31.2934 20.0881C30.4335 20.0881 29.5977 19.8044 28.9155 19.281C28.2332 18.7576 27.7427 18.0238 27.52 17.1933H13.6667C13.5354 17.1933 13.4053 17.1675 13.284 17.1172C13.1627 17.0669 13.0524 16.9933 12.9596 16.9004C12.8667 16.8076 12.7931 16.6973 12.7428 16.576C12.6926 16.4547 12.6667 16.3246 12.6667 16.1933C12.6667 16.062 12.6926 15.932 12.7428 15.8106C12.7931 15.6893 12.8667 15.5791 12.9596 15.4862C13.0524 15.3934 13.1627 15.3197 13.284 15.2694C13.4053 15.2192 13.5354 15.1933 13.6667 15.1933H27.52C27.7427 14.3628 28.2332 13.629 28.9155 13.1056C29.5977 12.5823 30.4335 12.2986 31.2934 12.2986C32.1532 12.2986 32.989 12.5823 33.6712 13.1056C34.3535 13.629 34.844 14.3628 35.0667 15.1933H38.3334C38.4652 15.1915 38.596 15.2162 38.7182 15.2658C38.8403 15.3154 38.9512 15.389 39.0445 15.4822C39.1377 15.5754 39.2113 15.6864 39.2609 15.8085C39.3105 15.9307 39.3351 16.0615 39.3334 16.1933ZM39.3334 24.9933C39.3351 25.1251 39.3105 25.256 39.2609 25.3781C39.2113 25.5003 39.1377 25.6112 39.0445 25.7044C38.9512 25.7976 38.8403 25.8712 38.7182 25.9209C38.596 25.9705 38.4652 25.9951 38.3334 25.9933H22.7334C22.5106 26.8238 22.0201 27.5576 21.3379 28.081C20.6557 28.6044 19.8199 28.8881 18.96 28.8881C18.1002 28.8881 17.2643 28.6044 16.5821 28.081C15.8999 27.5576 15.4094 26.8238 15.1867 25.9933H13.6667C13.4015 25.9933 13.1471 25.888 12.9596 25.7004C12.772 25.5129 12.6667 25.2585 12.6667 24.9933C12.6667 24.7281 12.772 24.4738 12.9596 24.2862C13.1471 24.0987 13.4015 23.9933 13.6667 23.9933H15.1867C15.4094 23.1628 15.8999 22.429 16.5821 21.9056C17.2643 21.3823 18.1002 21.0986 18.96 21.0986C19.8199 21.0986 20.6557 21.3823 21.3379 21.9056C22.0201 22.429 22.5106 23.1628 22.7334 23.9933H38.3334C38.5986 23.9933 38.8529 24.0987 39.0405 24.2862C39.228 24.4738 39.3334 24.7281 39.3334 24.9933Z" fill="#20202E"/>
<defs>
<radialGradient id="paint0_radial_64_1404" cx="0" cy="0" r="1" gradientUnits="userSpaceOnUse" gradientTransform="translate(26 25) rotate(138.223) scale(25 26)">
<stop offset="0.09" stop-color="#9E6F2F"/>
<stop offset="0.38" stop-color="#C79E66"/>
<stop offset="1" stop-color="#8F4E2F"/>
</radialGradient>
</defs>
</svg>
