<svg width="52" height="50" viewBox="0 0 52 50" fill="none" xmlns="http://www.w3.org/2000/svg">
<path d="M52 25C52 38.8071 40.3594 50 26 50C11.6406 50 0 38.8071 0 25C0 11.1929 11.6406 0 26 0C40.3594 0 52 11.1929 52 25Z" fill="url(#paint0_radial_64_1304)"/>
<path d="M33.7177 23.3015C33.6335 23.2407 33.5286 23.2075 33.4204 23.2075C33.3122 23.2075 33.2072 23.2407 33.123 23.3015L28.8712 26.3644C28.8169 26.4039 28.7731 26.4538 28.743 26.5103C28.7129 26.5669 28.6971 26.6287 28.6969 26.6913V34.5265C28.6969 34.6401 28.7474 34.7491 28.8373 34.8295C28.9271 34.9099 29.049 34.9551 29.1761 34.9551H32.0056C32.1327 34.9551 32.2546 34.9099 32.3444 34.8295C32.4343 34.7491 32.4848 34.6401 32.4848 34.5265V31.5669H34.3787V34.5265C34.3787 34.6401 34.4292 34.7491 34.5191 34.8295C34.6089 34.9099 34.7308 34.9551 34.8579 34.9551H37.6874C37.8145 34.9551 37.9364 34.9099 38.0262 34.8295C38.1161 34.7491 38.1666 34.6401 38.1666 34.5265V26.6879C38.1679 26.623 38.1525 26.5587 38.1217 26.5C38.0908 26.4412 38.0453 26.3896 37.9885 26.3491L33.7177 23.3015ZM32.4848 29.8728H30.5909V28.1787H32.4848V29.8728ZM36.2726 29.8728H34.3787V28.1787H36.2726V29.8728ZM24.3598 14.3127C24.3163 14.254 24.2572 14.2058 24.1878 14.1725C24.1184 14.1392 24.0409 14.1217 23.9621 14.1217C23.8833 14.1217 23.8058 14.1392 23.7364 14.1725C23.667 14.2058 23.6079 14.254 23.5644 14.3127L17.4129 21.294C17.3606 21.3642 17.3329 21.4468 17.3333 21.5311V34.5265C17.3326 34.5826 17.3443 34.6384 17.3679 34.6905C17.3915 34.7426 17.4264 34.7899 17.4707 34.8298C17.5149 34.8697 17.5676 34.9013 17.6256 34.9228C17.6837 34.9443 17.7459 34.9553 17.8087 34.9551H22.5435C22.6059 34.9548 22.6676 34.9436 22.725 34.922C22.7825 34.9004 22.8347 34.8689 22.8785 34.8292C22.9223 34.7896 22.9569 34.7425 22.9804 34.6909C23.0038 34.6392 23.0156 34.5839 23.0151 34.5281V31.5669H24.9091V34.5281C24.9086 34.5843 24.9206 34.6401 24.9444 34.6921C24.9682 34.744 25.0033 34.7913 25.0477 34.831C25.0921 34.8708 25.145 34.9022 25.2031 34.9235C25.2612 34.9448 25.3235 34.9555 25.3863 34.9551H26.803V24.7906C26.8029 24.6633 26.8349 24.5377 26.8965 24.423C26.9582 24.3084 27.0479 24.2076 27.1591 24.1282L30.5909 21.4024C30.5909 21.3177 24.3598 14.3127 24.3598 14.3127ZM21.1212 28.1787H19.2273V26.4846H21.1212V28.1787ZM21.1212 23.0965H19.2273V21.4024H21.1212V23.0965ZM24.9091 28.1787H23.0151V26.4846H24.9091V28.1787ZM24.9091 23.0965H23.0151V21.4024H24.9091V23.0965Z" fill="#20202E"/>
<defs>
<radialGradient id="paint0_radial_64_1304" cx="0" cy="0" r="1" gradientUnits="userSpaceOnUse" gradientTransform="translate(26 25) rotate(138.223) scale(25 26)">
<stop offset="0.09" stop-color="#9E6F2F"/>
<stop offset="0.38" stop-color="#C79E66"/>
<stop offset="1" stop-color="#8F4E2F"/>
</radialGradient>
</defs>
</svg>
