<svg width="39" height="39" viewBox="0 0 39 39" fill="none" xmlns="http://www.w3.org/2000/svg">
<circle cx="19.5" cy="19.5" r="19.5" fill="url(#paint0_radial_139_1698)"/>
<path d="M19 18C18.7348 18 18.4804 18.1054 18.2929 18.2929C18.1054 18.4804 18 18.7348 18 19V25C18 25.2652 18.1054 25.5196 18.2929 25.7071C18.4804 25.8946 18.7348 26 19 26C19.2652 26 19.5196 25.8946 19.7071 25.7071C19.8946 25.5196 20 25.2652 20 25V19C20 18.7348 19.8946 18.4804 19.7071 18.2929C19.5196 18.1054 19.2652 18 19 18ZM19 14C18.7528 14 18.5111 14.0733 18.3055 14.2107C18.1 14.348 17.9398 14.5432 17.8452 14.7716C17.7505 15.0001 17.7258 15.2514 17.774 15.4939C17.8223 15.7363 17.9413 15.9591 18.1161 16.1339C18.2909 16.3087 18.5137 16.4278 18.7561 16.476C18.9986 16.5242 19.2499 16.4995 19.4784 16.4048C19.7068 16.3102 19.902 16.15 20.0393 15.9445C20.1767 15.7389 20.25 15.4972 20.25 15.25C20.25 14.9185 20.1183 14.6005 19.8839 14.3661C19.6495 14.1317 19.3315 14 19 14Z" fill="#20202E"/>
<defs>
<radialGradient id="paint0_radial_139_1698" cx="0" cy="0" r="1" gradientUnits="userSpaceOnUse" gradientTransform="translate(19.5 19.5) rotate(90) scale(19.5)">
<stop offset="0.565" stop-color="#C79E66"/>
<stop offset="1" stop-color="#8F4E2F"/>
</radialGradient>
</defs>
</svg>
