<svg width="20" height="19" viewBox="0 0 20 19" fill="none" xmlns="http://www.w3.org/2000/svg">
<path d="M10 9.10408C9.44749 9.10408 8.91758 8.89557 8.52688 8.5244C8.13618 8.15323 7.91669 7.64983 7.91669 7.12492C7.91669 6.60001 8.13618 6.0966 8.52688 5.72544C8.91758 5.35427 9.44749 5.14575 10 5.14575C10.5526 5.14575 11.0825 5.35427 11.4732 5.72544C11.8639 6.0966 12.0834 6.60001 12.0834 7.12492C12.0834 7.38483 12.0295 7.64219 11.9248 7.88231C11.8201 8.12244 11.6666 8.34062 11.4732 8.5244C11.2797 8.70818 11.05 8.85397 10.7973 8.95343C10.5445 9.05289 10.2736 9.10408 10 9.10408ZM10 1.58325C8.45292 1.58325 6.96919 2.1671 5.87523 3.20637C4.78127 4.24563 4.16669 5.65518 4.16669 7.12492C4.16669 11.2812 10 17.4166 10 17.4166C10 17.4166 15.8334 11.2812 15.8334 7.12492C15.8334 5.65518 15.2188 4.24563 14.1248 3.20637C13.0308 2.1671 11.5471 1.58325 10 1.58325Z" fill="#20202E"/>
</svg>
