<svg width="23" height="24" viewBox="0 0 23 24" fill="none" xmlns="http://www.w3.org/2000/svg">
<path d="M6.43998 16.64C6.68398 16.5657 6.94626 16.5957 7.16911 16.7232C7.39197 16.8507 7.55715 17.0654 7.62831 17.32C7.69948 17.5746 7.6708 17.8483 7.54859 18.0808C7.42638 18.3134 7.22065 18.4857 6.97665 18.56C6.49748 18.706 6.15248 18.86 5.9311 19C6.15919 19.143 6.51952 19.303 7.01977 19.452C8.12665 19.782 9.71077 20 11.5 20C13.2892 20 14.8733 19.782 15.9802 19.452C16.4814 19.303 16.8408 19.143 17.0689 19C16.8484 18.86 16.5034 18.706 16.0243 18.56C15.7841 18.4825 15.5828 18.3096 15.4636 18.0786C15.3445 17.8476 15.3171 17.577 15.3874 17.3251C15.4577 17.0733 15.62 16.8603 15.8393 16.7321C16.0586 16.604 16.3175 16.5709 16.56 16.64C17.2001 16.835 17.7866 17.085 18.2371 17.406C18.6539 17.705 19.1666 18.226 19.1666 19C19.1666 19.783 18.6415 20.308 18.2179 20.607C17.7598 20.929 17.1609 21.18 16.5063 21.375C15.1857 21.77 13.4166 22 11.5 22C9.58331 22 7.81423 21.77 6.49365 21.375C5.8391 21.18 5.24015 20.929 4.78206 20.607C4.35848 20.307 3.83331 19.783 3.83331 19C3.83331 18.226 4.34602 17.705 4.7629 17.406C5.21331 17.085 5.79981 16.835 6.43998 16.64ZM11.5 7.5C10.0241 7.5 9.10223 9.167 9.84015 10.5C10.1823 11.119 10.8148 11.5 11.5 11.5C12.9758 11.5 13.8977 9.833 13.1598 8.5C12.9916 8.19597 12.7496 7.9435 12.4583 7.76796C12.1669 7.59243 11.8364 7.50001 11.5 7.5Z" fill="black"/>
<path opacity="0.3" d="M11.5 2C13.4062 2 15.2344 2.79018 16.5823 4.1967C17.9302 5.60322 18.6875 7.51088 18.6875 9.5C18.6875 12.068 17.3458 14.156 15.9562 15.64C15.4039 16.2239 14.8103 16.7638 14.1805 17.255C13.6112 17.701 12.3098 18.537 12.3098 18.537C12.063 18.6834 11.7839 18.7604 11.5 18.7604C11.2161 18.7604 10.937 18.6834 10.6902 18.537C10.0443 18.1462 9.41983 17.7182 8.81954 17.255C8.18973 16.7638 7.59613 16.2239 7.04375 15.64C5.65417 14.156 4.3125 12.068 4.3125 9.5C4.3125 7.51088 5.06975 5.60322 6.41767 4.1967C7.76559 2.79018 9.59376 2 11.5 2Z" fill="black"/>
</svg>
