<svg width="33" height="33" viewBox="0 0 33 33" fill="none" xmlns="http://www.w3.org/2000/svg">
<path d="M33 16.5C33 25.6127 25.6127 33 16.5 33C7.3873 33 0 25.6127 0 16.5C0 7.3873 7.3873 0 16.5 0C25.6127 0 33 7.3873 33 16.5Z" fill="url(#paint0_radial_64_1276)"/>
<path d="M16.3226 22.192C15.5546 22.192 14.8612 22.048 14.2426 21.76C13.6239 21.4613 13.0959 21.0987 12.6586 20.672L13.2026 19.984C14.0559 20.8587 15.0586 21.296 16.2106 21.296C16.9999 21.296 17.6612 21.104 18.1946 20.72C18.7386 20.336 19.0106 19.7813 19.0106 19.056C19.0106 18.576 18.8826 18.16 18.6266 17.808C18.3706 17.456 18.0399 17.1893 17.6346 17.008C17.2292 16.816 16.8026 16.7093 16.3546 16.688H14.6106V15.856H16.3386C16.6692 15.856 16.9946 15.7707 17.3146 15.6C17.6452 15.4187 17.9119 15.1787 18.1146 14.88C18.3279 14.5813 18.4346 14.2613 18.4346 13.92C18.4346 13.4293 18.2159 13.0453 17.7786 12.768C17.3519 12.48 16.8506 12.336 16.2746 12.336C15.8906 12.336 15.4906 12.4053 15.0746 12.544C14.6692 12.672 14.3172 12.8587 14.0186 13.104L13.6026 12.384C14.0612 12.0533 14.4986 11.8133 14.9146 11.664C15.3306 11.5147 15.7786 11.44 16.2586 11.44C16.8346 11.44 17.3626 11.5413 17.8426 11.744C18.3226 11.936 18.7012 12.2187 18.9786 12.592C19.2559 12.9547 19.3946 13.3813 19.3946 13.872C19.3946 14.4267 19.2239 14.9333 18.8826 15.392C18.5519 15.84 18.1306 16.1227 17.6186 16.24C18.3119 16.3573 18.8772 16.688 19.3146 17.232C19.7519 17.776 19.9706 18.432 19.9706 19.2C19.9706 19.8293 19.8052 20.3733 19.4746 20.832C19.1439 21.28 18.7012 21.6213 18.1466 21.856C17.5919 22.08 16.9839 22.192 16.3226 22.192Z" fill="#20202E"/>
<defs>
<radialGradient id="paint0_radial_64_1276" cx="0" cy="0" r="1" gradientUnits="userSpaceOnUse" gradientTransform="translate(16.5 16.5) rotate(137.104) scale(16.1502 16.8574)">
<stop offset="0.09" stop-color="#9E6F2F"/>
<stop offset="0.38" stop-color="#C79E66"/>
<stop offset="1" stop-color="#8F4E2F"/>
</radialGradient>
</defs>
</svg>
