<svg width="33" height="33" viewBox="0 0 33 33" fill="none" xmlns="http://www.w3.org/2000/svg">
<path d="M33 16.5C33 25.6127 25.6127 33 16.5 33C7.3873 33 0 25.6127 0 16.5C0 7.3873 7.3873 0 16.5 0C25.6127 0 33 7.3873 33 16.5Z" fill="url(#paint0_radial_64_1266)"/>
<path d="M13.0407 21.792C13.0407 20.992 13.27 20.288 13.7287 19.68C14.1874 19.072 14.8807 18.416 15.8087 17.712L16.3367 17.328C16.8274 16.976 17.222 16.672 17.5207 16.416C17.8194 16.1493 18.07 15.84 18.2727 15.488C18.486 15.136 18.5927 14.7413 18.5927 14.304C18.5927 13.7067 18.3954 13.2267 18.0007 12.864C17.606 12.5013 17.0727 12.32 16.4007 12.32C15.7607 12.32 15.2114 12.4907 14.7527 12.832C14.3047 13.1733 13.99 13.6533 13.8087 14.272L13.0567 13.888C13.622 12.3093 14.742 11.52 16.4167 11.52C17.398 11.52 18.1554 11.7707 18.6887 12.272C19.222 12.7627 19.4887 13.4453 19.4887 14.32C19.4887 14.896 19.3767 15.3973 19.1527 15.824C18.9394 16.24 18.662 16.6027 18.3207 16.912C17.99 17.2107 17.5207 17.584 16.9127 18.032C16.486 18.3307 16.102 18.624 15.7607 18.912C15.2594 19.328 14.8754 19.696 14.6087 20.016C14.342 20.3253 14.1607 20.6827 14.0647 21.088H20.0167V22H13.0407V21.792Z" fill="#20202E"/>
<defs>
<radialGradient id="paint0_radial_64_1266" cx="0" cy="0" r="1" gradientUnits="userSpaceOnUse" gradientTransform="translate(16.5 16.5) rotate(137.104) scale(16.1502 16.8574)">
<stop offset="0.09" stop-color="#9E6F2F"/>
<stop offset="0.38" stop-color="#C79E66"/>
<stop offset="1" stop-color="#8F4E2F"/>
</radialGradient>
</defs>
</svg>
