<svg width="33" height="33" viewBox="0 0 33 33" fill="none" xmlns="http://www.w3.org/2000/svg">
<path d="M33 16.5C33 25.6127 25.6127 33 16.5 33C7.3873 33 0 25.6127 0 16.5C0 7.3873 7.3873 0 16.5 0C25.6127 0 33 7.3873 33 16.5Z" fill="url(#paint0_radial_64_1256)"/>
<path d="M16.8235 12.896C16.4288 13.2373 16.0342 13.4933 15.6395 13.664C15.2555 13.8347 14.8342 13.92 14.3755 13.92L14.1675 13.088C14.4875 13.088 14.8128 13.0187 15.1435 12.88C15.4848 12.7413 15.8155 12.5707 16.1355 12.368C16.4555 12.1653 16.9622 11.8293 17.6555 11.36H17.7835V22H16.8235V12.896Z" fill="#20202E"/>
<defs>
<radialGradient id="paint0_radial_64_1256" cx="0" cy="0" r="1" gradientUnits="userSpaceOnUse" gradientTransform="translate(16.5 16.5) rotate(137.104) scale(16.1502 16.8574)">
<stop offset="0.09" stop-color="#9E6F2F"/>
<stop offset="0.38" stop-color="#C79E66"/>
<stop offset="1" stop-color="#8F4E2F"/>
</radialGradient>
</defs>
</svg>
