<svg width="69" height="70" viewBox="0 0 69 70" fill="none" xmlns="http://www.w3.org/2000/svg">
<g clip-path="url(#clip0_74_3112)">
<path d="M14.8781 51.6359C15.3417 52.4343 15.2177 53.375 14.6032 53.7414C13.9887 54.1078 13.1154 53.7632 12.6518 52.9703L7.84334 44.6961C7.37975 43.9031 7.50373 42.957 8.11826 42.5906C8.73279 42.2242 9.60608 42.5687 10.0697 43.3671L14.8781 51.6359Z" fill="#95C8EC"/>
<path d="M16.0802 46.8125C16.9912 46.8071 17.7351 47.3813 17.7405 48.1086C17.7459 48.8305 17.0128 49.4266 16.1072 49.4321L6.64124 49.5196C5.73022 49.525 4.98632 48.9508 4.98093 48.2235C4.97554 47.5016 5.70327 46.9055 6.61968 46.9L16.0802 46.8125Z" fill="#95C8EC"/>
<path d="M12.5655 43.3398C13.013 42.5359 13.8809 42.175 14.5008 42.5305C15.1207 42.8859 15.2609 43.8266 14.8134 44.6305L10.1559 52.9922C9.70852 53.7961 8.84063 54.1625 8.22071 53.807C7.60078 53.4516 7.46063 52.5109 7.90805 51.707L12.5655 43.3398ZM24.5112 67.0961C24.9748 67.8945 24.8508 68.8352 24.2363 69.2016C23.6217 69.568 22.7484 69.2234 22.2848 68.425L17.4818 60.1562C17.0182 59.3633 17.1422 58.4172 17.7567 58.0508C18.3713 57.6844 19.2445 58.0289 19.7081 58.8273L24.5112 67.0961Z" fill="#95C8EC"/>
<path d="M25.7186 62.2726C26.6297 62.2672 27.3736 62.8414 27.379 63.5687C27.3844 64.2906 26.6566 64.8867 25.7456 64.8922L16.2797 64.9851C15.3687 64.9906 14.6247 64.4109 14.6194 63.689C14.614 62.9672 15.3417 62.3711 16.2527 62.3656L25.7186 62.2726Z" fill="#95C8EC"/>
<path d="M22.1986 58.8C22.646 57.9961 23.5139 57.6352 24.1338 57.9906C24.7538 58.3461 24.8939 59.2867 24.4465 60.0906L19.789 68.4523C19.3416 69.2563 18.4737 69.6227 17.8538 69.2617C17.2338 68.9063 17.0937 67.9656 17.5411 67.1617L22.1986 58.8ZM38.0147 56.8148C38.4783 57.6078 38.3543 58.5539 37.7398 58.9203C37.1252 59.2867 36.252 58.9422 35.7884 58.1492L30.9853 49.875C30.5217 49.082 30.6457 48.1359 31.2602 47.7695C31.8748 47.4031 32.7481 47.7477 33.2117 48.5461L38.0147 56.8148Z" fill="#95C8EC"/>
<path d="M39.2222 51.9914C40.1278 51.9804 40.8717 52.5601 40.8825 53.2875C40.8879 54.0093 40.1602 54.6054 39.2491 54.6109L29.7832 54.6984C28.8722 54.7093 28.1283 54.1296 28.1229 53.4078C28.1175 52.6859 28.8452 52.0898 29.7616 52.0843L39.2222 51.9914Z" fill="#95C8EC"/>
<path d="M35.7075 48.5188C36.1549 47.7149 37.0228 47.354 37.6428 47.7094C38.2627 48.0649 38.4028 49.0055 37.9554 49.8094L33.2979 58.1711C32.8505 58.9751 31.9826 59.3415 31.3627 58.9805C30.7428 58.6251 30.6026 57.6844 31.05 56.8805L35.7075 48.5188ZM61.0596 52.7297C61.5232 53.5227 61.3992 54.4688 60.7847 54.8352C60.1702 55.2016 59.2969 54.8571 58.8333 54.0586L54.0249 45.7844C53.5613 44.9915 53.6853 44.0454 54.2998 43.679C54.9143 43.3126 55.7876 43.6571 56.2512 44.4555L61.0596 52.7297Z" fill="#95C8EC"/>
<path d="M62.2617 47.9063C63.1727 47.8953 63.9166 48.475 63.922 49.2024C63.9274 49.9243 63.1996 50.5203 62.2886 50.5258L52.8227 50.6133C51.9117 50.6188 51.1678 50.0446 51.1624 49.3172C51.157 48.5953 51.8901 47.9992 52.8011 47.9883L62.2617 47.9063Z" fill="#95C8EC"/>
<path d="M58.747 44.4336C59.1944 43.6297 60.0623 43.2687 60.6822 43.6242C61.3075 43.9797 61.4423 44.9203 60.9949 45.7242L56.3374 54.0859C55.89 54.8898 55.0221 55.2562 54.4022 54.9008C53.7822 54.5453 53.6421 53.6047 54.0895 52.8008L58.747 44.4336ZM50.7797 67.0687C51.2432 67.8617 51.1193 68.8078 50.5047 69.1742C49.8902 69.5406 49.0169 69.1961 48.5533 68.3977L43.7449 60.1234C43.2813 59.3305 43.4053 58.3898 44.0198 58.018C44.6343 57.6516 45.5076 57.9961 45.9712 58.7945L50.7797 67.0687Z" fill="#95C8EC"/>
<path d="M51.9818 62.2453C52.8928 62.2398 53.6367 62.814 53.6421 63.5414C53.6475 64.2632 52.9197 64.8593 52.0087 64.8648L42.5428 64.9523C41.6318 64.9578 40.8879 64.3836 40.8825 63.6562C40.8771 62.9343 41.6102 62.3382 42.5212 62.3273L51.9818 62.2453Z" fill="#95C8EC"/>
<path d="M48.4671 58.7727C48.9145 57.9688 49.7824 57.6079 50.4023 57.9633C51.0223 58.3188 51.1624 59.2594 50.715 60.0633L46.0575 68.425C45.6101 69.229 44.7422 69.5954 44.1223 69.2344C43.5023 68.879 43.3622 67.9383 43.8096 67.1344L48.4671 58.7727Z" fill="#95C8EC"/>
<path d="M59.2753 17.3414H59.2699C59.2699 17.3031 59.2753 17.2648 59.2753 17.2265C59.2753 11.9984 55.0976 7.75464 49.9387 7.75464C49.2757 7.75464 48.6288 7.82573 48.0035 7.96245C46.1545 3.40151 41.7342 0.18042 36.5646 0.18042C32.6834 0.18042 29.2226 1.99604 26.9585 4.83433C25.4977 4.08511 23.8535 3.64761 22.1016 3.64761C16.5169 3.64761 11.9295 7.96245 11.3958 13.4859C5.31515 13.814 0.442029 18.8671 0.361169 25.1289C0.28031 31.6585 5.42836 37.0179 11.8648 37.1054C12.3661 37.1109 12.8566 37.0781 13.3418 37.0179C15.8269 42.339 21.169 46.0195 27.3574 46.0195C31.0931 46.0195 34.5162 44.6796 37.1899 42.4484C39.2384 43.9851 41.7612 44.9039 44.4996 44.9039C50.122 44.9039 54.855 41.0757 56.3266 35.8531C57.2538 36.1648 58.2403 36.3398 59.2699 36.3398C64.4395 36.3398 68.6334 32.0851 68.6334 26.8406C68.6388 21.596 64.4449 17.3414 59.2753 17.3414Z" fill="#E3EBEE"/>
<path d="M64.7737 19.157C66.8923 21.3281 65.3937 26.3156 63.9328 27.9398C61.065 31.1281 55.793 30.3843 53.6798 29.925C53.1084 29.7992 53.0168 29.8429 52.8281 29.9578C52.661 30.0617 52.5855 30.2257 52.4023 30.614C51.7176 32.1015 49.9657 34.989 46.2515 36.1539C42.3811 37.3679 38.737 35.5195 37.0282 34.4148C36.3813 33.9992 36.3544 33.9882 36.0579 33.9882C35.7614 33.9937 35.4649 34.2125 35.1199 34.4914C33.5782 35.7218 30.0527 37.8929 24.619 37.5812C19.2876 37.2695 16.2419 33.939 15.1962 32.2273C14.9967 31.8992 14.7811 31.6257 14.5331 31.5984C14.2474 31.571 13.9294 31.8664 13.6922 32.107C11.4227 34.3492 4.29092 35.0164 1.92444 31.2046C4.32866 35.1203 8.04819 37.0562 11.8648 37.1054C12.3661 37.1109 12.8566 37.0781 13.3418 37.0179C15.8269 42.339 21.169 46.0195 27.3574 46.0195C31.0931 46.0195 34.5162 44.6796 37.1899 42.4484C39.2383 43.9851 41.7612 44.9039 44.4996 44.9039C50.122 44.9039 54.855 41.0757 56.3266 35.8531C57.2538 36.1648 58.2403 36.3398 59.2699 36.3398C64.4395 36.3398 68.6334 32.0851 68.6334 26.8406C68.6388 24.046 67.2534 20.896 64.7737 19.157Z" fill="#B9CDD2"/>
</g>
<defs>
<clipPath id="clip0_74_3112">
<rect width="69" height="70" fill="white"/>
</clipPath>
</defs>
</svg>
