<svg width="98" height="20" viewBox="0 0 98 20" fill="none" xmlns="http://www.w3.org/2000/svg">
<path fill-rule="evenodd" clip-rule="evenodd" d="M5.00578 4C5.1563 4 5.30066 4.06106 5.40709 4.16975C5.51353 4.27845 5.57332 4.42586 5.57332 4.57958V5.13713L5.94449 4.93659C6.07756 4.86473 6.23312 4.84979 6.37697 4.89506C6.52081 4.94033 6.64116 5.0421 6.71153 5.17799C6.7819 5.31387 6.79652 5.47273 6.75219 5.61963C6.70786 5.76653 6.60821 5.88942 6.47515 5.96128L5.57332 6.44813V7.55048C5.97911 7.65712 6.34064 7.87504 6.62554 8.1712L7.56085 7.62003L7.52283 6.57911C7.51718 6.42547 7.57153 6.27584 7.67392 6.16313C7.77631 6.05041 7.91836 5.98385 8.0688 5.97809C8.21925 5.97233 8.36577 6.02783 8.47615 6.13239C8.58652 6.23695 8.6517 6.38201 8.65734 6.53564L8.67267 6.96453L9.14543 6.68575C9.21 6.64709 9.28142 6.62186 9.35557 6.61151C9.42973 6.60115 9.50516 6.60588 9.57752 6.62542C9.64988 6.64495 9.71775 6.67892 9.7772 6.72534C9.83666 6.77177 9.88654 6.82975 9.92396 6.89595C9.96139 6.96214 9.98562 7.03524 9.99527 7.11104C10.0049 7.18683 9.99978 7.26383 9.98017 7.3376C9.96056 7.41136 9.92686 7.48043 9.881 7.54084C9.83514 7.60125 9.77804 7.6518 9.71297 7.68958L9.24021 7.96777L9.59606 8.19612C9.65918 8.23662 9.71388 8.28941 9.75703 8.35149C9.80018 8.41356 9.83093 8.48372 9.84753 8.55793C9.86414 8.63215 9.86626 8.70897 9.85378 8.78403C9.84131 8.85908 9.81448 8.93089 9.77483 8.99536C9.73518 9.05982 9.68349 9.11568 9.6227 9.15975C9.56191 9.20381 9.49321 9.23522 9.42054 9.25217C9.34786 9.26912 9.27263 9.27129 9.19913 9.25855C9.12564 9.24581 9.05532 9.21842 8.99219 9.17792L8.12839 8.62385L7.19365 9.17445C7.30427 9.58075 7.30427 10.0102 7.19365 10.4165L8.12839 10.9677L8.99219 10.4136C9.11968 10.3318 9.27376 10.3051 9.42054 10.3393C9.56731 10.3736 9.69475 10.466 9.77483 10.5961C9.85491 10.7263 9.88106 10.8837 9.84753 11.0336C9.81401 11.1835 9.72355 11.3136 9.59606 11.3954L9.24078 11.6232L9.71297 11.9019C9.77804 11.9397 9.83514 11.9903 9.881 12.0507C9.92686 12.1111 9.96056 12.1801 9.98017 12.2539C9.99978 12.3277 10.0049 12.4047 9.99527 12.4805C9.98562 12.5563 9.96139 12.6294 9.92396 12.6956C9.88654 12.7618 9.83666 12.8197 9.7772 12.8662C9.71775 12.9126 9.64988 12.9465 9.57752 12.9661C9.50516 12.9856 9.42973 12.9903 9.35557 12.98C9.28142 12.9696 9.21 12.9444 9.14543 12.9058L8.67323 12.6276L8.65734 13.0559C8.6517 13.2095 8.58652 13.3546 8.47615 13.4591C8.36577 13.5637 8.21925 13.6192 8.0688 13.6134C7.91836 13.6076 7.77631 13.5411 7.67392 13.4284C7.57153 13.3157 7.51718 13.166 7.52283 13.0124L7.56085 11.9715L6.62554 11.4203C6.34064 11.7159 5.97855 11.9344 5.57332 12.041V13.1434L6.47515 13.6302C6.60821 13.7021 6.70786 13.825 6.75219 13.9719C6.79652 14.1188 6.7819 14.2776 6.71153 14.4135C6.64116 14.5494 6.52081 14.6512 6.37697 14.6964C6.23312 14.7417 6.07756 14.7268 5.94449 14.6549L5.57332 14.4544V15.0119C5.57332 15.1656 5.51353 15.3131 5.40709 15.4218C5.30066 15.5304 5.1563 15.5915 5.00578 15.5915C4.85526 15.5915 4.7109 15.5304 4.60447 15.4218C4.49803 15.3131 4.43824 15.1656 4.43824 15.0119V14.4544L4.06707 14.6549C4.00118 14.6905 3.92908 14.7125 3.85488 14.7196C3.78067 14.7267 3.70582 14.7189 3.6346 14.6964C3.56337 14.674 3.49717 14.6375 3.43976 14.589C3.38236 14.5404 3.33488 14.4808 3.30004 14.4135C3.26519 14.3462 3.24367 14.2726 3.23669 14.1968C3.22971 14.121 3.23742 14.0446 3.25937 13.9719C3.28132 13.8991 3.31708 13.8315 3.36462 13.7729C3.41215 13.7143 3.47053 13.6658 3.53642 13.6302L4.43824 13.1434V12.041C4.03872 11.9354 3.67494 11.7206 3.38602 11.4197L2.45071 11.9715L2.48874 13.0124C2.49149 13.0885 2.47955 13.1643 2.45359 13.2357C2.42763 13.3071 2.38816 13.3725 2.33744 13.4283C2.28671 13.4841 2.22573 13.5291 2.15796 13.5608C2.09019 13.5925 2.01697 13.6103 1.94248 13.6131C1.86798 13.6159 1.79368 13.6037 1.7238 13.5772C1.65392 13.5507 1.58984 13.5104 1.53521 13.4586C1.48059 13.4068 1.43649 13.3445 1.40544 13.2753C1.37438 13.2061 1.35698 13.1314 1.35422 13.0553L1.3389 12.627L0.866135 12.9052C0.801528 12.946 0.729553 12.9731 0.654479 12.985C0.579404 12.9969 0.502757 12.9933 0.429081 12.9744C0.355405 12.9554 0.2862 12.9216 0.225569 12.8748C0.164937 12.8281 0.114114 12.7694 0.0761108 12.7022C0.0381078 12.635 0.0136989 12.5608 0.0043311 12.4838C-0.00503665 12.4068 0.000827499 12.3286 0.0215757 12.254C0.0423239 12.1794 0.0775339 12.1098 0.125119 12.0493C0.172703 11.9888 0.231694 11.9387 0.298593 11.9019L0.771355 11.6232L0.415507 11.3948C0.29139 11.3115 0.204196 11.1818 0.172634 11.0336C0.141073 10.8854 0.16766 10.7305 0.24669 10.6021C0.32572 10.4736 0.450895 10.382 0.595353 10.3467C0.739811 10.3115 0.892039 10.3355 1.01937 10.4136L1.88317 10.9677L2.81791 10.4165C2.70739 10.0104 2.70739 9.58115 2.81791 9.17503L1.88317 8.62443L1.01937 9.17792C0.892039 9.256 0.739811 9.27999 0.595353 9.24476C0.450895 9.20952 0.32572 9.11786 0.24669 8.98944C0.16766 8.86102 0.141073 8.70609 0.172634 8.55788C0.204196 8.40967 0.29139 8.28 0.415507 8.1967L0.771355 7.96835L0.298593 7.69016C0.168167 7.6133 0.072979 7.48668 0.0339707 7.33815C-0.00503755 7.18963 0.0153287 7.03136 0.0905894 6.89817C0.16585 6.76497 0.28984 6.66777 0.435283 6.62793C0.580726 6.5881 0.735708 6.60889 0.866135 6.68575L1.3389 6.96453L1.35422 6.53564C1.35986 6.38201 1.42504 6.23695 1.53542 6.13239C1.59007 6.08062 1.65417 6.04034 1.72406 6.01387C1.79395 5.98739 1.86827 5.97524 1.94276 5.97809C2.01725 5.98094 2.09047 5.99875 2.15822 6.0305C2.22597 6.06225 2.28694 6.10732 2.33764 6.16313C2.38834 6.21894 2.42777 6.2844 2.4537 6.35577C2.47963 6.42715 2.49153 6.50304 2.48874 6.57911L2.45071 7.62003L3.38602 8.17178C3.67494 7.87086 4.03872 7.65606 4.43824 7.55048V6.44813L3.53642 5.96128C3.40336 5.88942 3.3037 5.76653 3.25937 5.61963C3.21504 5.47273 3.22967 5.31387 3.30004 5.17799C3.3704 5.0421 3.49075 4.94033 3.6346 4.89506C3.77844 4.84979 3.93401 4.86473 4.06707 4.93659L4.43824 5.13713V4.57958C4.43824 4.42586 4.49803 4.27845 4.60447 4.16975C4.7109 4.06106 4.85526 4 5.00578 4ZM5.00578 10.9549C5.30682 10.9549 5.59554 10.8328 5.80841 10.6154C6.02128 10.398 6.14086 10.1032 6.14086 9.79575C6.14086 9.48833 6.02128 9.19349 5.80841 8.97611C5.59554 8.75873 5.30682 8.6366 5.00578 8.6366C4.70474 8.6366 4.41603 8.75873 4.20316 8.97611C3.99029 9.19349 3.8707 9.48833 3.8707 9.79575C3.8707 10.1032 3.99029 10.398 4.20316 10.6154C4.41603 10.8328 4.70474 10.9549 5.00578 10.9549Z" fill="#EAE4D8"/>
<path fill-rule="evenodd" clip-rule="evenodd" d="M26.0058 4C26.1563 4 26.3007 4.06106 26.4071 4.16975C26.5135 4.27845 26.5733 4.42586 26.5733 4.57958V5.13713L26.9445 4.93659C27.0776 4.86473 27.2331 4.84979 27.377 4.89506C27.5208 4.94033 27.6412 5.0421 27.7115 5.17799C27.7819 5.31387 27.7965 5.47273 27.7522 5.61963C27.7079 5.76653 27.6082 5.88942 27.4751 5.96128L26.5733 6.44813V7.55048C26.9791 7.65712 27.3406 7.87504 27.6255 8.1712L28.5609 7.62003L28.5228 6.57911C28.5172 6.42547 28.5715 6.27584 28.6739 6.16313C28.7763 6.05041 28.9184 5.98385 29.0688 5.97809C29.2192 5.97233 29.3658 6.02783 29.4761 6.13239C29.5865 6.23695 29.6517 6.38201 29.6573 6.53564L29.6727 6.96453L30.1454 6.68575C30.21 6.64709 30.2814 6.62186 30.3556 6.61151C30.4297 6.60115 30.5052 6.60588 30.5775 6.62542C30.6499 6.64495 30.7177 6.67892 30.7772 6.72534C30.8367 6.77177 30.8865 6.82975 30.924 6.89595C30.9614 6.96214 30.9856 7.03524 30.9953 7.11104C31.0049 7.18683 30.9998 7.26383 30.9802 7.3376C30.9606 7.41136 30.9269 7.48043 30.881 7.54084C30.8351 7.60125 30.778 7.6518 30.713 7.68958L30.2402 7.96777L30.5961 8.19612C30.6592 8.23662 30.7139 8.28941 30.757 8.35149C30.8002 8.41356 30.8309 8.48372 30.8475 8.55793C30.8641 8.63215 30.8663 8.70897 30.8538 8.78403C30.8413 8.85908 30.8145 8.93089 30.7748 8.99536C30.7352 9.05982 30.6835 9.11568 30.6227 9.15975C30.5619 9.20381 30.4932 9.23522 30.4205 9.25217C30.3479 9.26912 30.2726 9.27129 30.1991 9.25855C30.1256 9.24581 30.0553 9.21842 29.9922 9.17792L29.1284 8.62385L28.1937 9.17445C28.3043 9.58075 28.3043 10.0102 28.1937 10.4165L29.1284 10.9677L29.9922 10.4136C30.1197 10.3318 30.2738 10.3051 30.4205 10.3393C30.5673 10.3736 30.6948 10.466 30.7748 10.5961C30.8549 10.7263 30.8811 10.8837 30.8475 11.0336C30.814 11.1835 30.7235 11.3136 30.5961 11.3954L30.2408 11.6232L30.713 11.9019C30.778 11.9397 30.8351 11.9903 30.881 12.0507C30.9269 12.1111 30.9606 12.1801 30.9802 12.2539C30.9998 12.3277 31.0049 12.4047 30.9953 12.4805C30.9856 12.5563 30.9614 12.6294 30.924 12.6956C30.8865 12.7618 30.8367 12.8197 30.7772 12.8662C30.7177 12.9126 30.6499 12.9465 30.5775 12.9661C30.5052 12.9856 30.4297 12.9903 30.3556 12.98C30.2814 12.9696 30.21 12.9444 30.1454 12.9058L29.6732 12.6276L29.6573 13.0559C29.6517 13.2095 29.5865 13.3546 29.4761 13.4591C29.3658 13.5637 29.2192 13.6192 29.0688 13.6134C28.9184 13.6076 28.7763 13.5411 28.6739 13.4284C28.5715 13.3157 28.5172 13.166 28.5228 13.0124L28.5609 11.9715L27.6255 11.4203C27.3406 11.7159 26.9785 11.9344 26.5733 12.041V13.1434L27.4751 13.6302C27.6082 13.7021 27.7079 13.825 27.7522 13.9719C27.7965 14.1188 27.7819 14.2776 27.7115 14.4135C27.6412 14.5494 27.5208 14.6512 27.377 14.6964C27.2331 14.7417 27.0776 14.7268 26.9445 14.6549L26.5733 14.4544V15.0119C26.5733 15.1656 26.5135 15.3131 26.4071 15.4218C26.3007 15.5304 26.1563 15.5915 26.0058 15.5915C25.8553 15.5915 25.7109 15.5304 25.6045 15.4218C25.498 15.3131 25.4382 15.1656 25.4382 15.0119V14.4544L25.0671 14.6549C25.0012 14.6905 24.9291 14.7125 24.8549 14.7196C24.7807 14.7267 24.7058 14.7189 24.6346 14.6964C24.5634 14.674 24.4972 14.6375 24.4398 14.589C24.3824 14.5404 24.3349 14.4808 24.3 14.4135C24.2652 14.3462 24.2437 14.2726 24.2367 14.1968C24.2297 14.121 24.2374 14.0446 24.2594 13.9719C24.2813 13.8991 24.3171 13.8315 24.3646 13.7729C24.4122 13.7143 24.4705 13.6658 24.5364 13.6302L25.4382 13.1434V12.041C25.0387 11.9354 24.6749 11.7206 24.386 11.4197L23.4507 11.9715L23.4887 13.0124C23.4915 13.0885 23.4796 13.1643 23.4536 13.2357C23.4276 13.3071 23.3882 13.3725 23.3374 13.4283C23.2867 13.4841 23.2257 13.5291 23.158 13.5608C23.0902 13.5925 23.017 13.6103 22.9425 13.6131C22.868 13.6159 22.7937 13.6037 22.7238 13.5772C22.6539 13.5507 22.5898 13.5104 22.5352 13.4586C22.4806 13.4068 22.4365 13.3445 22.4054 13.2753C22.3744 13.2061 22.357 13.1314 22.3542 13.0553L22.3389 12.627L21.8661 12.9052C21.8015 12.946 21.7296 12.9731 21.6545 12.985C21.5794 12.9969 21.5028 12.9933 21.4291 12.9744C21.3554 12.9554 21.2862 12.9216 21.2256 12.8748C21.1649 12.8281 21.1141 12.7694 21.0761 12.7022C21.0381 12.635 21.0137 12.5608 21.0043 12.4838C20.995 12.4068 21.0008 12.3286 21.0216 12.254C21.0423 12.1794 21.0775 12.1098 21.1251 12.0493C21.1727 11.9888 21.2317 11.9387 21.2986 11.9019L21.7714 11.6232L21.4155 11.3948C21.2914 11.3115 21.2042 11.1818 21.1726 11.0336C21.1411 10.8854 21.1677 10.7305 21.2467 10.6021C21.3257 10.4736 21.4509 10.382 21.5954 10.3467C21.7398 10.3115 21.892 10.3355 22.0194 10.4136L22.8832 10.9677L23.8179 10.4165C23.7074 10.0104 23.7074 9.58115 23.8179 9.17503L22.8832 8.62443L22.0194 9.17792C21.892 9.256 21.7398 9.27999 21.5954 9.24476C21.4509 9.20952 21.3257 9.11786 21.2467 8.98944C21.1677 8.86102 21.1411 8.70609 21.1726 8.55788C21.2042 8.40967 21.2914 8.28 21.4155 8.1967L21.7714 7.96835L21.2986 7.69016C21.1682 7.6133 21.073 7.48668 21.034 7.33815C20.995 7.18963 21.0153 7.03136 21.0906 6.89817C21.1659 6.76497 21.2898 6.66777 21.4353 6.62793C21.5807 6.5881 21.7357 6.60889 21.8661 6.68575L22.3389 6.96453L22.3542 6.53564C22.3599 6.38201 22.425 6.23695 22.5354 6.13239C22.5901 6.08062 22.6542 6.04034 22.7241 6.01387C22.794 5.98739 22.8683 5.97524 22.9428 5.97809C23.0173 5.98094 23.0905 5.99875 23.1582 6.0305C23.226 6.06225 23.2869 6.10732 23.3376 6.16313C23.3883 6.21894 23.4278 6.2844 23.4537 6.35577C23.4796 6.42715 23.4915 6.50304 23.4887 6.57911L23.4507 7.62003L24.386 8.17178C24.6749 7.87086 25.0387 7.65606 25.4382 7.55048V6.44813L24.5364 5.96128C24.4034 5.88942 24.3037 5.76653 24.2594 5.61963C24.215 5.47273 24.2297 5.31387 24.3 5.17799C24.3704 5.0421 24.4907 4.94033 24.6346 4.89506C24.7784 4.84979 24.934 4.86473 25.0671 4.93659L25.4382 5.13713V4.57958C25.4382 4.42586 25.498 4.27845 25.6045 4.16975C25.7109 4.06106 25.8553 4 26.0058 4ZM26.0058 10.9549C26.3068 10.9549 26.5955 10.8328 26.8084 10.6154C27.0213 10.398 27.1409 10.1032 27.1409 9.79575C27.1409 9.48833 27.0213 9.19349 26.8084 8.97611C26.5955 8.75873 26.3068 8.6366 26.0058 8.6366C25.7047 8.6366 25.416 8.75873 25.2032 8.97611C24.9903 9.19349 24.8707 9.48833 24.8707 9.79575C24.8707 10.1032 24.9903 10.398 25.2032 10.6154C25.416 10.8328 25.7047 10.9549 26.0058 10.9549Z" fill="#EAE4D8"/>
<path fill-rule="evenodd" clip-rule="evenodd" d="M93.0058 4C93.1563 4 93.3007 4.06106 93.4071 4.16975C93.5135 4.27845 93.5733 4.42586 93.5733 4.57958V5.13713L93.9445 4.93659C94.0776 4.86473 94.2331 4.84979 94.377 4.89506C94.5208 4.94033 94.6412 5.0421 94.7115 5.17799C94.7819 5.31387 94.7965 5.47273 94.7522 5.61963C94.7079 5.76653 94.6082 5.88942 94.4751 5.96128L93.5733 6.44813V7.55048C93.9791 7.65712 94.3406 7.87504 94.6255 8.1712L95.5609 7.62003L95.5228 6.57911C95.5172 6.42547 95.5715 6.27584 95.6739 6.16313C95.7763 6.05041 95.9184 5.98385 96.0688 5.97809C96.2192 5.97233 96.3658 6.02783 96.4761 6.13239C96.5865 6.23695 96.6517 6.38201 96.6573 6.53564L96.6727 6.96453L97.1454 6.68575C97.21 6.64709 97.2814 6.62186 97.3556 6.61151C97.4297 6.60115 97.5052 6.60588 97.5775 6.62542C97.6499 6.64495 97.7177 6.67892 97.7772 6.72534C97.8367 6.77177 97.8865 6.82975 97.924 6.89595C97.9614 6.96214 97.9856 7.03524 97.9953 7.11104C98.0049 7.18683 97.9998 7.26383 97.9802 7.3376C97.9606 7.41136 97.9269 7.48043 97.881 7.54084C97.8351 7.60125 97.778 7.6518 97.713 7.68958L97.2402 7.96777L97.5961 8.19612C97.6592 8.23662 97.7139 8.28941 97.757 8.35149C97.8002 8.41356 97.8309 8.48372 97.8475 8.55793C97.8641 8.63215 97.8663 8.70897 97.8538 8.78403C97.8413 8.85908 97.8145 8.93089 97.7748 8.99536C97.7352 9.05982 97.6835 9.11568 97.6227 9.15975C97.5619 9.20381 97.4932 9.23522 97.4205 9.25217C97.3479 9.26912 97.2726 9.27129 97.1991 9.25855C97.1256 9.24581 97.0553 9.21842 96.9922 9.17792L96.1284 8.62385L95.1937 9.17445C95.3043 9.58075 95.3043 10.0102 95.1937 10.4165L96.1284 10.9677L96.9922 10.4136C97.1197 10.3318 97.2738 10.3051 97.4205 10.3393C97.5673 10.3736 97.6948 10.466 97.7748 10.5961C97.8549 10.7263 97.8811 10.8837 97.8475 11.0336C97.814 11.1835 97.7235 11.3136 97.5961 11.3954L97.2408 11.6232L97.713 11.9019C97.778 11.9397 97.8351 11.9903 97.881 12.0507C97.9269 12.1111 97.9606 12.1801 97.9802 12.2539C97.9998 12.3277 98.0049 12.4047 97.9953 12.4805C97.9856 12.5563 97.9614 12.6294 97.924 12.6956C97.8865 12.7618 97.8367 12.8197 97.7772 12.8662C97.7177 12.9126 97.6499 12.9465 97.5775 12.9661C97.5052 12.9856 97.4297 12.9903 97.3556 12.98C97.2814 12.9696 97.21 12.9444 97.1454 12.9058L96.6732 12.6276L96.6573 13.0559C96.6517 13.2095 96.5865 13.3546 96.4761 13.4591C96.3658 13.5637 96.2192 13.6192 96.0688 13.6134C95.9184 13.6076 95.7763 13.5411 95.6739 13.4284C95.5715 13.3157 95.5172 13.166 95.5228 13.0124L95.5609 11.9715L94.6255 11.4203C94.3406 11.7159 93.9785 11.9344 93.5733 12.041V13.1434L94.4751 13.6302C94.6082 13.7021 94.7079 13.825 94.7522 13.9719C94.7965 14.1188 94.7819 14.2776 94.7115 14.4135C94.6412 14.5494 94.5208 14.6512 94.377 14.6964C94.2331 14.7417 94.0776 14.7268 93.9445 14.6549L93.5733 14.4544V15.0119C93.5733 15.1656 93.5135 15.3131 93.4071 15.4218C93.3007 15.5304 93.1563 15.5915 93.0058 15.5915C92.8553 15.5915 92.7109 15.5304 92.6045 15.4218C92.498 15.3131 92.4382 15.1656 92.4382 15.0119V14.4544L92.0671 14.6549C92.0012 14.6905 91.9291 14.7125 91.8549 14.7196C91.7807 14.7267 91.7058 14.7189 91.6346 14.6964C91.5634 14.674 91.4972 14.6375 91.4398 14.589C91.3824 14.5404 91.3349 14.4808 91.3 14.4135C91.2652 14.3462 91.2437 14.2726 91.2367 14.1968C91.2297 14.121 91.2374 14.0446 91.2594 13.9719C91.2813 13.8991 91.3171 13.8315 91.3646 13.7729C91.4122 13.7143 91.4705 13.6658 91.5364 13.6302L92.4382 13.1434V12.041C92.0387 11.9354 91.6749 11.7206 91.386 11.4197L90.4507 11.9715L90.4887 13.0124C90.4915 13.0885 90.4796 13.1643 90.4536 13.2357C90.4276 13.3071 90.3882 13.3725 90.3374 13.4283C90.2867 13.4841 90.2257 13.5291 90.158 13.5608C90.0902 13.5925 90.017 13.6103 89.9425 13.6131C89.868 13.6159 89.7937 13.6037 89.7238 13.5772C89.6539 13.5507 89.5898 13.5104 89.5352 13.4586C89.4806 13.4068 89.4365 13.3445 89.4054 13.2753C89.3744 13.2061 89.357 13.1314 89.3542 13.0553L89.3389 12.627L88.8661 12.9052C88.8015 12.946 88.7296 12.9731 88.6545 12.985C88.5794 12.9969 88.5028 12.9933 88.4291 12.9744C88.3554 12.9554 88.2862 12.9216 88.2256 12.8748C88.1649 12.8281 88.1141 12.7694 88.0761 12.7022C88.0381 12.635 88.0137 12.5608 88.0043 12.4838C87.995 12.4068 88.0008 12.3286 88.0216 12.254C88.0423 12.1794 88.0775 12.1098 88.1251 12.0493C88.1727 11.9888 88.2317 11.9387 88.2986 11.9019L88.7714 11.6232L88.4155 11.3948C88.2914 11.3115 88.2042 11.1818 88.1726 11.0336C88.1411 10.8854 88.1677 10.7305 88.2467 10.6021C88.3257 10.4736 88.4509 10.382 88.5954 10.3467C88.7398 10.3115 88.892 10.3355 89.0194 10.4136L89.8832 10.9677L90.8179 10.4165C90.7074 10.0104 90.7074 9.58115 90.8179 9.17503L89.8832 8.62443L89.0194 9.17792C88.892 9.256 88.7398 9.27999 88.5954 9.24476C88.4509 9.20952 88.3257 9.11786 88.2467 8.98944C88.1677 8.86102 88.1411 8.70609 88.1726 8.55788C88.2042 8.40967 88.2914 8.28 88.4155 8.1967L88.7714 7.96835L88.2986 7.69016C88.1682 7.6133 88.073 7.48668 88.034 7.33815C87.995 7.18963 88.0153 7.03136 88.0906 6.89817C88.1659 6.76497 88.2898 6.66777 88.4353 6.62793C88.5807 6.5881 88.7357 6.60889 88.8661 6.68575L89.3389 6.96453L89.3542 6.53564C89.3599 6.38201 89.425 6.23695 89.5354 6.13239C89.5901 6.08062 89.6542 6.04034 89.7241 6.01387C89.794 5.98739 89.8683 5.97524 89.9428 5.97809C90.0173 5.98094 90.0905 5.99875 90.1582 6.0305C90.226 6.06225 90.2869 6.10732 90.3376 6.16313C90.3883 6.21894 90.4278 6.2844 90.4537 6.35577C90.4796 6.42715 90.4915 6.50304 90.4887 6.57911L90.4507 7.62003L91.386 8.17178C91.6749 7.87086 92.0387 7.65606 92.4382 7.55048V6.44813L91.5364 5.96128C91.4034 5.88942 91.3037 5.76653 91.2594 5.61963C91.215 5.47273 91.2297 5.31387 91.3 5.17799C91.3704 5.0421 91.4907 4.94033 91.6346 4.89506C91.7784 4.84979 91.934 4.86473 92.0671 4.93659L92.4382 5.13713V4.57958C92.4382 4.42586 92.498 4.27845 92.6045 4.16975C92.7109 4.06106 92.8553 4 93.0058 4ZM93.0058 10.9549C93.3068 10.9549 93.5955 10.8328 93.8084 10.6154C94.0213 10.398 94.1409 10.1032 94.1409 9.79575C94.1409 9.48833 94.0213 9.19349 93.8084 8.97611C93.5955 8.75873 93.3068 8.6366 93.0058 8.6366C92.7047 8.6366 92.416 8.75873 92.2032 8.97611C91.9903 9.19349 91.8707 9.48833 91.8707 9.79575C91.8707 10.1032 91.9903 10.398 92.2032 10.6154C92.416 10.8328 92.7047 10.9549 93.0058 10.9549Z" fill="#EAE4D8"/>
<path fill-rule="evenodd" clip-rule="evenodd" d="M72.0058 4C72.1563 4 72.3007 4.06106 72.4071 4.16975C72.5135 4.27845 72.5733 4.42586 72.5733 4.57958V5.13713L72.9445 4.93659C73.0776 4.86473 73.2331 4.84979 73.377 4.89506C73.5208 4.94033 73.6412 5.0421 73.7115 5.17799C73.7819 5.31387 73.7965 5.47273 73.7522 5.61963C73.7079 5.76653 73.6082 5.88942 73.4751 5.96128L72.5733 6.44813V7.55048C72.9791 7.65712 73.3406 7.87504 73.6255 8.1712L74.5609 7.62003L74.5228 6.57911C74.5172 6.42547 74.5715 6.27584 74.6739 6.16313C74.7763 6.05041 74.9184 5.98385 75.0688 5.97809C75.2192 5.97233 75.3658 6.02783 75.4761 6.13239C75.5865 6.23695 75.6517 6.38201 75.6573 6.53564L75.6727 6.96453L76.1454 6.68575C76.21 6.64709 76.2814 6.62186 76.3556 6.61151C76.4297 6.60115 76.5052 6.60588 76.5775 6.62542C76.6499 6.64495 76.7177 6.67892 76.7772 6.72534C76.8367 6.77177 76.8865 6.82975 76.924 6.89595C76.9614 6.96214 76.9856 7.03524 76.9953 7.11104C77.0049 7.18683 76.9998 7.26383 76.9802 7.3376C76.9606 7.41136 76.9269 7.48043 76.881 7.54084C76.8351 7.60125 76.778 7.6518 76.713 7.68958L76.2402 7.96777L76.5961 8.19612C76.6592 8.23662 76.7139 8.28941 76.757 8.35149C76.8002 8.41356 76.8309 8.48372 76.8475 8.55793C76.8641 8.63215 76.8663 8.70897 76.8538 8.78403C76.8413 8.85908 76.8145 8.93089 76.7748 8.99536C76.7352 9.05982 76.6835 9.11568 76.6227 9.15975C76.5619 9.20381 76.4932 9.23522 76.4205 9.25217C76.3479 9.26912 76.2726 9.27129 76.1991 9.25855C76.1256 9.24581 76.0553 9.21842 75.9922 9.17792L75.1284 8.62385L74.1937 9.17445C74.3043 9.58075 74.3043 10.0102 74.1937 10.4165L75.1284 10.9677L75.9922 10.4136C76.1197 10.3318 76.2738 10.3051 76.4205 10.3393C76.5673 10.3736 76.6948 10.466 76.7748 10.5961C76.8549 10.7263 76.8811 10.8837 76.8475 11.0336C76.814 11.1835 76.7235 11.3136 76.5961 11.3954L76.2408 11.6232L76.713 11.9019C76.778 11.9397 76.8351 11.9903 76.881 12.0507C76.9269 12.1111 76.9606 12.1801 76.9802 12.2539C76.9998 12.3277 77.0049 12.4047 76.9953 12.4805C76.9856 12.5563 76.9614 12.6294 76.924 12.6956C76.8865 12.7618 76.8367 12.8197 76.7772 12.8662C76.7177 12.9126 76.6499 12.9465 76.5775 12.9661C76.5052 12.9856 76.4297 12.9903 76.3556 12.98C76.2814 12.9696 76.21 12.9444 76.1454 12.9058L75.6732 12.6276L75.6573 13.0559C75.6517 13.2095 75.5865 13.3546 75.4761 13.4591C75.3658 13.5637 75.2192 13.6192 75.0688 13.6134C74.9184 13.6076 74.7763 13.5411 74.6739 13.4284C74.5715 13.3157 74.5172 13.166 74.5228 13.0124L74.5609 11.9715L73.6255 11.4203C73.3406 11.7159 72.9785 11.9344 72.5733 12.041V13.1434L73.4751 13.6302C73.6082 13.7021 73.7079 13.825 73.7522 13.9719C73.7965 14.1188 73.7819 14.2776 73.7115 14.4135C73.6412 14.5494 73.5208 14.6512 73.377 14.6964C73.2331 14.7417 73.0776 14.7268 72.9445 14.6549L72.5733 14.4544V15.0119C72.5733 15.1656 72.5135 15.3131 72.4071 15.4218C72.3007 15.5304 72.1563 15.5915 72.0058 15.5915C71.8553 15.5915 71.7109 15.5304 71.6045 15.4218C71.498 15.3131 71.4382 15.1656 71.4382 15.0119V14.4544L71.0671 14.6549C71.0012 14.6905 70.9291 14.7125 70.8549 14.7196C70.7807 14.7267 70.7058 14.7189 70.6346 14.6964C70.5634 14.674 70.4972 14.6375 70.4398 14.589C70.3824 14.5404 70.3349 14.4808 70.3 14.4135C70.2652 14.3462 70.2437 14.2726 70.2367 14.1968C70.2297 14.121 70.2374 14.0446 70.2594 13.9719C70.2813 13.8991 70.3171 13.8315 70.3646 13.7729C70.4122 13.7143 70.4705 13.6658 70.5364 13.6302L71.4382 13.1434V12.041C71.0387 11.9354 70.6749 11.7206 70.386 11.4197L69.4507 11.9715L69.4887 13.0124C69.4915 13.0885 69.4796 13.1643 69.4536 13.2357C69.4276 13.3071 69.3882 13.3725 69.3374 13.4283C69.2867 13.4841 69.2257 13.5291 69.158 13.5608C69.0902 13.5925 69.017 13.6103 68.9425 13.6131C68.868 13.6159 68.7937 13.6037 68.7238 13.5772C68.6539 13.5507 68.5898 13.5104 68.5352 13.4586C68.4806 13.4068 68.4365 13.3445 68.4054 13.2753C68.3744 13.2061 68.357 13.1314 68.3542 13.0553L68.3389 12.627L67.8661 12.9052C67.8015 12.946 67.7296 12.9731 67.6545 12.985C67.5794 12.9969 67.5028 12.9933 67.4291 12.9744C67.3554 12.9554 67.2862 12.9216 67.2256 12.8748C67.1649 12.8281 67.1141 12.7694 67.0761 12.7022C67.0381 12.635 67.0137 12.5608 67.0043 12.4838C66.995 12.4068 67.0008 12.3286 67.0216 12.254C67.0423 12.1794 67.0775 12.1098 67.1251 12.0493C67.1727 11.9888 67.2317 11.9387 67.2986 11.9019L67.7714 11.6232L67.4155 11.3948C67.2914 11.3115 67.2042 11.1818 67.1726 11.0336C67.1411 10.8854 67.1677 10.7305 67.2467 10.6021C67.3257 10.4736 67.4509 10.382 67.5954 10.3467C67.7398 10.3115 67.892 10.3355 68.0194 10.4136L68.8832 10.9677L69.8179 10.4165C69.7074 10.0104 69.7074 9.58115 69.8179 9.17503L68.8832 8.62443L68.0194 9.17792C67.892 9.256 67.7398 9.27999 67.5954 9.24476C67.4509 9.20952 67.3257 9.11786 67.2467 8.98944C67.1677 8.86102 67.1411 8.70609 67.1726 8.55788C67.2042 8.40967 67.2914 8.28 67.4155 8.1967L67.7714 7.96835L67.2986 7.69016C67.1682 7.6133 67.073 7.48668 67.034 7.33815C66.995 7.18963 67.0153 7.03136 67.0906 6.89817C67.1659 6.76497 67.2898 6.66777 67.4353 6.62793C67.5807 6.5881 67.7357 6.60889 67.8661 6.68575L68.3389 6.96453L68.3542 6.53564C68.3599 6.38201 68.425 6.23695 68.5354 6.13239C68.5901 6.08062 68.6542 6.04034 68.7241 6.01387C68.794 5.98739 68.8683 5.97524 68.9428 5.97809C69.0173 5.98094 69.0905 5.99875 69.1582 6.0305C69.226 6.06225 69.2869 6.10732 69.3376 6.16313C69.3883 6.21894 69.4278 6.2844 69.4537 6.35577C69.4796 6.42715 69.4915 6.50304 69.4887 6.57911L69.4507 7.62003L70.386 8.17178C70.6749 7.87086 71.0387 7.65606 71.4382 7.55048V6.44813L70.5364 5.96128C70.4034 5.88942 70.3037 5.76653 70.2594 5.61963C70.215 5.47273 70.2297 5.31387 70.3 5.17799C70.3704 5.0421 70.4907 4.94033 70.6346 4.89506C70.7784 4.84979 70.934 4.86473 71.0671 4.93659L71.4382 5.13713V4.57958C71.4382 4.42586 71.498 4.27845 71.6045 4.16975C71.7109 4.06106 71.8553 4 72.0058 4ZM72.0058 10.9549C72.3068 10.9549 72.5955 10.8328 72.8084 10.6154C73.0213 10.398 73.1409 10.1032 73.1409 9.79575C73.1409 9.48833 73.0213 9.19349 72.8084 8.97611C72.5955 8.75873 72.3068 8.6366 72.0058 8.6366C71.7047 8.6366 71.416 8.75873 71.2032 8.97611C70.9903 9.19349 70.8707 9.48833 70.8707 9.79575C70.8707 10.1032 70.9903 10.398 71.2032 10.6154C71.416 10.8328 71.7047 10.9549 72.0058 10.9549Z" fill="#EAE4D8"/>
<path d="M56.6333 13.4416L54.9667 12.4833L55.7083 12.2833C55.8173 12.2579 55.92 12.2109 56.0103 12.145C56.1007 12.0791 56.1769 11.9957 56.2343 11.8997C56.2917 11.8037 56.3293 11.6972 56.3447 11.5864C56.3601 11.4756 56.353 11.3629 56.3239 11.2549C56.2948 11.1469 56.2443 11.0459 56.1753 10.9579C56.1063 10.8698 56.0204 10.7965 55.9225 10.7424C55.8246 10.6883 55.7168 10.6545 55.6056 10.6429C55.4944 10.6313 55.3819 10.6422 55.275 10.675L52.925 11.3083L50.6667 9.99998L52.925 8.69165L55.275 9.32498H55.4917C55.7127 9.35371 55.9361 9.29347 56.1127 9.15751C56.2893 9.02154 56.4046 8.82099 56.4333 8.59998C56.4621 8.37896 56.4018 8.15559 56.2659 7.97899C56.1299 7.8024 55.9294 7.68704 55.7083 7.65831L54.9667 7.49998L56.6333 6.54165C56.7286 6.48693 56.8121 6.41399 56.8791 6.32701C56.9461 6.24002 56.9953 6.14068 57.024 6.03467C57.0526 5.92866 57.0601 5.81804 57.0459 5.70914C57.0318 5.60024 56.9964 5.49519 56.9417 5.39998C56.887 5.30477 56.814 5.22127 56.727 5.15425C56.6401 5.08723 56.5407 5.038 56.4347 5.00937C56.3287 4.98073 56.2181 4.97326 56.1092 4.98738C56.0003 5.0015 55.8952 5.03693 55.8 5.09165L54 6.14165L54.25 5.21665C54.2828 5.10972 54.2937 4.99729 54.2821 4.88605C54.2705 4.77481 54.2367 4.66704 54.1826 4.56917C54.1284 4.4713 54.0552 4.38531 53.9671 4.31635C53.8791 4.24739 53.7781 4.19685 53.6701 4.16776C53.5621 4.13866 53.4493 4.1316 53.3386 4.147C53.2278 4.16239 53.1213 4.19993 53.0253 4.25737C52.9293 4.31481 52.8459 4.39097 52.78 4.48133C52.7141 4.57169 52.6671 4.67439 52.6417 4.78331L51.9583 7.28331L49.8333 8.55831V5.94998L51.5583 4.22498C51.7136 4.06884 51.8007 3.85763 51.8007 3.63748C51.8007 3.41732 51.7136 3.20611 51.5583 3.04998C51.4809 2.97187 51.3887 2.90988 51.2872 2.86757C51.1856 2.82526 51.0767 2.80348 50.9667 2.80348C50.8567 2.80348 50.7477 2.82526 50.6462 2.86757C50.5447 2.90988 50.4525 2.97187 50.375 3.04998L49.8333 3.59165V1.66665C49.8333 1.44563 49.7455 1.23367 49.5893 1.07739C49.433 0.92111 49.221 0.833313 49 0.833313C48.779 0.833313 48.567 0.92111 48.4108 1.07739C48.2545 1.23367 48.1667 1.44563 48.1667 1.66665V3.72498L47.4917 3.04998C47.4142 2.97187 47.322 2.90988 47.2205 2.86757C47.1189 2.82526 47.01 2.80348 46.9 2.80348C46.79 2.80348 46.6811 2.82526 46.5795 2.86757C46.478 2.90988 46.3858 2.97187 46.3083 3.04998C46.1531 3.20611 46.066 3.41732 46.066 3.63748C46.066 3.85763 46.1531 4.06884 46.3083 4.22498L48.1667 6.08331V8.58331L46.025 7.31665L45.3417 4.81665C45.3163 4.70772 45.2693 4.60502 45.2034 4.51467C45.1375 4.42431 45.054 4.34814 44.9581 4.2907C44.8621 4.23326 44.7556 4.19573 44.6448 4.18033C44.534 4.16494 44.4213 4.172 44.3133 4.20109C44.2053 4.23019 44.1043 4.28072 44.0162 4.34968C43.9282 4.41865 43.8549 4.50463 43.8008 4.6025C43.7467 4.70038 43.7128 4.80814 43.7012 4.91938C43.6896 5.03062 43.7006 5.14305 43.7333 5.24998L44 6.14165L42.2 5.10831C42.1048 5.0536 41.9998 5.01817 41.8909 5.00405C41.782 4.98993 41.6713 4.9974 41.5653 5.02603C41.4593 5.05466 41.36 5.1039 41.273 5.17092C41.186 5.23794 41.1131 5.32144 41.0583 5.41665C41.0036 5.51185 40.9682 5.61691 40.9541 5.72581C40.94 5.83471 40.9474 5.94532 40.9761 6.05134C41.0339 6.26544 41.1744 6.44781 41.3667 6.55831L43.0333 7.49998L42.3333 7.71665C42.1123 7.74538 41.9118 7.86073 41.7758 8.03733C41.6399 8.21392 41.5796 8.4373 41.6083 8.65831C41.6371 8.87933 41.7524 9.07987 41.929 9.21584C42.1056 9.3518 42.329 9.41204 42.55 9.38331H42.7667L45.1167 8.74998L47.3333 9.99998L45.075 11.3083L42.725 10.675C42.6147 10.634 42.4971 10.6169 42.3797 10.6247C42.2623 10.6325 42.148 10.665 42.0441 10.7202C41.9402 10.7754 41.8492 10.8519 41.777 10.9448C41.7048 11.0376 41.6531 11.1447 41.6253 11.259C41.5974 11.3733 41.5941 11.4922 41.6155 11.6078C41.6369 11.7235 41.6826 11.8333 41.7494 11.9301C41.8163 12.0268 41.9029 12.1083 42.0036 12.1692C42.1042 12.2301 42.2166 12.269 42.3333 12.2833L43.075 12.4833L41.4083 13.4416C41.2161 13.5522 41.0756 13.7345 41.0177 13.9486C40.9599 14.1627 40.9895 14.391 41.1 14.5833C41.2105 14.7756 41.3929 14.9161 41.607 14.9739C41.8211 15.0317 42.0494 15.0022 42.2417 14.8916L44 13.8583L43.75 14.7833C43.717 14.89 43.7057 15.0022 43.7169 15.1133C43.7281 15.2244 43.7615 15.3321 43.8151 15.4301C43.8688 15.528 43.9415 15.6142 44.0291 15.6835C44.1167 15.7527 44.2173 15.8037 44.325 15.8333C44.397 15.8412 44.4697 15.8412 44.5417 15.8333C44.7298 15.8398 44.9146 15.7823 45.0659 15.6703C45.2172 15.5584 45.3262 15.3984 45.375 15.2166L46.0583 12.7166L48.1667 11.4416V14.05L46.4417 15.775C46.2865 15.9311 46.1994 16.1423 46.1994 16.3625C46.1994 16.5826 46.2865 16.7938 46.4417 16.95C46.5189 17.0287 46.6109 17.0914 46.7125 17.1343C46.814 17.1772 46.9231 17.1995 47.0333 17.2C47.1436 17.1995 47.2527 17.1772 47.3542 17.1343C47.4558 17.0914 47.5478 17.0287 47.625 16.95L48.1667 16.4083V18.3333C48.1667 18.5543 48.2545 18.7663 48.4108 18.9226C48.567 19.0788 48.779 19.1666 49 19.1666C49.221 19.1666 49.433 19.0788 49.5893 18.9226C49.7455 18.7663 49.8333 18.5543 49.8333 18.3333V16.275L50.5083 16.95C50.5858 17.0281 50.678 17.0901 50.7795 17.1324C50.8811 17.1747 50.99 17.1965 51.1 17.1965C51.21 17.1965 51.3189 17.1747 51.4205 17.1324C51.522 17.0901 51.6142 17.0281 51.6917 16.95C51.8469 16.7938 51.934 16.5826 51.934 16.3625C51.934 16.1423 51.8469 15.9311 51.6917 15.775L49.8333 13.9166V11.4166L51.975 12.6583L52.6583 15.1583C52.7072 15.3401 52.8161 15.5 52.9675 15.612C53.1188 15.724 53.3035 15.7814 53.4917 15.775C53.5637 15.7828 53.6363 15.7828 53.7083 15.775C53.8147 15.7469 53.9145 15.6981 54.002 15.6313C54.0894 15.5645 54.1627 15.481 54.2177 15.3858C54.2727 15.2905 54.3083 15.1852 54.3225 15.0761C54.3366 14.967 54.329 14.8561 54.3 14.75L54 13.8583L55.7833 14.8916C55.8786 14.9464 55.9836 14.9818 56.0925 14.9959C56.2014 15.01 56.312 15.0026 56.418 14.9739C56.5241 14.9453 56.6234 14.8961 56.7104 14.829C56.7974 14.762 56.8703 14.6785 56.925 14.5833C56.9797 14.4881 57.0152 14.383 57.0293 14.2741C57.0434 14.1652 57.0359 14.0546 57.0073 13.9486C56.9787 13.8426 56.9294 13.7433 56.8624 13.6563C56.7954 13.5693 56.7119 13.4964 56.6167 13.4416H56.6333Z" fill="#EAE4D8"/>
</svg>
