<svg width="35" height="37" viewBox="0 0 35 37" fill="none" xmlns="http://www.w3.org/2000/svg">
<g clip-path="url(#clip0_74_3162)">
<g clip-path="url(#clip1_74_3162)">
<path d="M11.3477 17.8496C12.8578 17.8496 14.082 16.5554 14.082 14.959C14.082 13.3625 12.8578 12.0684 11.3477 12.0684C9.8375 12.0684 8.61328 13.3625 8.61328 14.959C8.61328 16.5554 9.8375 17.8496 11.3477 17.8496Z" fill="url(#paint0_linear_74_3162)" stroke="#F8AF18" stroke-width="0.125" stroke-miterlimit="10"/>
<path d="M14.5669 11.5557L15.7947 10.2578M6.90062 19.6601L8.12839 18.3622M15.8962 14.9641L17.6315 14.9692M5.0638 14.959L6.79911 14.9641M11.3477 10.1556V8.31601M11.3477 21.6121V19.7725M6.90062 10.2578L8.12839 11.5557M15.7947 19.6601L14.5669 18.3622" stroke="#FBBF24" stroke-width="0.375" stroke-miterlimit="10" stroke-linecap="round"/>
</g>
<g clip-path="url(#clip2_74_3162)">
<path d="M25.4297 18.211L25.2588 18.2182C25.5868 16.8144 25.4293 15.3329 24.815 14.041C24.2006 12.7491 23.1696 11.7318 21.9082 11.1728C20.6467 10.6137 19.2378 10.5497 17.9356 10.9922C16.6334 11.4347 15.5237 12.3546 14.8066 13.586C14.2262 13.2214 13.5648 13.0257 12.8897 13.0186C12.2146 13.0115 11.5497 13.1932 10.9624 13.5455C10.3752 13.8977 9.88654 14.4078 9.54601 15.0241C9.20547 15.6404 9.02518 16.341 9.02342 17.0547C9.02523 17.2727 9.04352 17.4902 9.07811 17.7051C8.07043 17.902 7.16897 18.4905 6.55118 19.3548C5.93338 20.2191 5.64402 21.2966 5.74004 22.3751C5.83606 23.4537 6.31052 24.4551 7.07001 25.1824C7.8295 25.9097 8.819 26.31 9.84374 26.3047L10.1172 26.2903V26.3047H25.4297C26.445 26.3047 27.4187 25.8784 28.1366 25.1194C28.8545 24.3605 29.2578 23.3311 29.2578 22.2578C29.2578 21.1845 28.8545 20.1552 28.1366 19.3963C27.4187 18.6373 26.445 18.211 25.4297 18.211Z" fill="url(#paint1_linear_74_3162)" stroke="#E6EFFC" stroke-width="0.1875" stroke-miterlimit="10"/>
</g>
</g>
<defs>
<linearGradient id="paint0_linear_74_3162" x1="9.98047" y1="12.4586" x2="12.9491" y2="17.3237" gradientUnits="userSpaceOnUse">
<stop stop-color="#FBBF24"/>
<stop offset="0.5" stop-color="#FBBF24"/>
<stop offset="1" stop-color="#F59E0B"/>
</linearGradient>
<linearGradient id="paint1_linear_74_3162" x1="12.3389" y1="12.6971" x2="22.2171" y2="28.8933" gradientUnits="userSpaceOnUse">
<stop stop-color="#F3F7FE"/>
<stop offset="0.5" stop-color="#F3F7FE"/>
<stop offset="1" stop-color="#DEEAFB"/>
</linearGradient>
<clipPath id="clip0_74_3162">
<rect width="24.8145" height="18.6445" fill="white" transform="translate(4.64844 7.87695)"/>
</clipPath>
<clipPath id="clip1_74_3162">
<rect width="13.3984" height="14.1641" fill="white" transform="translate(4.64844 7.87695)"/>
</clipPath>
<clipPath id="clip2_74_3162">
<rect width="23.9258" height="16.043" fill="white" transform="translate(5.53711 10.4785)"/>
</clipPath>
</defs>
</svg>
