<svg width="39" height="39" viewBox="0 0 39 39" fill="none" xmlns="http://www.w3.org/2000/svg">
<circle cx="19.5" cy="19.5" r="19.5" fill="url(#paint0_radial_184_460)"/>
<path d="M12 10H19C19.8 10 20.56 10.32 21.12 10.88C21.68 11.44 22 12.2 22 13V14H20V12H11V19H16V24H15L12 27H11V25L12 24C11.2 24 10.44 23.68 9.88 23.12C9.32 22.56 9 21.8 9 21V13C9 12.2 9.32 11.44 9.88 10.88C10.44 10.32 11.2 10 12 10ZM12.71 20.29C12.5 20.11 12.27 20 12 20C11.74 20 11.5 20.11 11.29 20.29C11.11 20.5 11 20.74 11 21C11 21.27 11.11 21.5 11.29 21.71C11.5 21.9 11.74 22 12 22C12.27 22 12.5 21.9 12.71 21.71C12.9 21.5 13 21.27 13 21C13 20.74 12.9 20.5 12.71 20.29ZM18 19C18 17.34 19 16 22 16H25C28 16 29 17.34 29 19V26C29 26.74 28.6 27.39 28 27.73V29C28 29.55 27.55 30 27 30C26.45 30 26 29.55 26 29V28H21V29C21 29.55 20.55 30 20 30C19.45 30 19 29.55 19 29V27.73C18.4 27.39 18 26.74 18 26V19ZM20 18V22H27V18H20ZM21 26C21.55 26 22 25.55 22 25C22 24.45 21.55 24 21 24C20.45 24 20 24.45 20 25C20 25.55 20.45 26 21 26ZM27 25C27 24.45 26.55 24 26 24C25.45 24 25 24.45 25 25C25 25.55 25.45 26 26 26C26.55 26 27 25.55 27 25Z" fill="#20202E"/>
<defs>
<radialGradient id="paint0_radial_184_460" cx="0" cy="0" r="1" gradientUnits="userSpaceOnUse" gradientTransform="translate(19.5 19.5) rotate(90) scale(19.5)">
<stop offset="0.565" stop-color="#C79E66"/>
<stop offset="1" stop-color="#8F4E2F"/>
</radialGradient>
</defs>
</svg>
