<svg width="52" height="50" viewBox="0 0 52 50" fill="none" xmlns="http://www.w3.org/2000/svg">
<path d="M52 25C52 38.8071 40.3594 50 26 50C11.6406 50 0 38.8071 0 25C0 11.1929 11.6406 0 26 0C40.3594 0 52 11.1929 52 25Z" fill="url(#paint0_radial_139_3467)"/>
<path d="M27.1303 15.6625C27.0578 15.5635 26.9629 15.4829 26.8534 15.4274C26.7439 15.3719 26.6229 15.343 26.5001 15.343C26.3773 15.343 26.2563 15.3719 26.1468 15.4274C26.0373 15.4829 25.9425 15.5635 25.8699 15.6625L20.1407 23.475C20.0552 23.5914 20.0036 23.7293 19.9918 23.8733C19.9799 24.0173 20.0082 24.1618 20.0735 24.2906C20.1388 24.4195 20.2385 24.5277 20.3617 24.6033C20.4848 24.6789 20.6265 24.7189 20.7709 24.7188H22.4053L18.5657 30.2636C18.4845 30.3808 18.437 30.518 18.4282 30.6604C18.4195 30.8027 18.4499 30.9448 18.5161 31.0711C18.5823 31.1974 18.6818 31.3032 18.8039 31.3769C18.9259 31.4507 19.0658 31.4897 19.2084 31.4896H25.7189V34.875C25.7189 35.0822 25.8012 35.2809 25.9477 35.4274C26.0942 35.574 26.2929 35.6563 26.5001 35.6563C26.7073 35.6563 26.906 35.574 27.0525 35.4274C27.1991 35.2809 27.2814 35.0822 27.2814 34.875V31.4896H33.7918C33.9344 31.4897 34.0743 31.4507 34.1964 31.3769C34.3184 31.3032 34.4179 31.1974 34.4842 31.0711C34.5504 30.9448 34.5807 30.8027 34.572 30.6604C34.5632 30.518 34.5157 30.3808 34.4345 30.2636L30.5939 24.7188H32.2293C32.3738 24.7189 32.5154 24.6789 32.6386 24.6033C32.7617 24.5277 32.8614 24.4195 32.9267 24.2906C32.992 24.1618 33.0203 24.0173 33.0085 23.8733C32.9966 23.7293 32.945 23.5914 32.8595 23.475L27.1303 15.6625Z" fill="#20202E"/>
<defs>
<radialGradient id="paint0_radial_139_3467" cx="0" cy="0" r="1" gradientUnits="userSpaceOnUse" gradientTransform="translate(26 25) rotate(138.223) scale(25 26)">
<stop offset="0.09" stop-color="#9E6F2F"/>
<stop offset="0.38" stop-color="#C79E66"/>
<stop offset="1" stop-color="#8F4E2F"/>
</radialGradient>
</defs>
</svg>
