<svg width="39" height="39" viewBox="0 0 39 39" fill="none" xmlns="http://www.w3.org/2000/svg">
<circle cx="19.5" cy="19.5" r="19.5" fill="url(#paint0_radial_139_1689)"/>
<g clip-path="url(#clip0_139_1689)">
<path d="M20.5 30C20.0833 30 19.7293 29.8583 19.438 29.575C19.1467 29.2917 19.0007 28.9417 19 28.525C19 28.325 19.0377 28.1333 19.113 27.95C19.1883 27.7667 19.3007 27.6083 19.45 27.475L20.5 26.5L21.55 27.475C21.7 27.6083 21.8127 27.7667 21.888 27.95C21.9633 28.1333 22.0007 28.325 22 28.525C22 28.9417 21.8543 29.2917 21.563 29.575C21.2717 29.8583 20.9173 30 20.5 30ZM17.05 28.5L16 27.45L18.95 24.5L20 25.55L17.05 28.5ZM23.5 27L22 25.5L23.5 24L25 25.5L23.5 27ZM14.5 27L13 25.5L14.5 24L16 25.5L14.5 27ZM15.5 23C13.9833 23 12.6877 22.4627 11.613 21.388C10.5383 20.3133 10.0007 19.0173 10 17.5C10 16.1167 10.4583 14.9083 11.375 13.875C12.2917 12.8417 13.425 12.2333 14.775 12.05C15.3083 11.1 16.0377 10.354 16.963 9.812C17.8883 9.27 18.9007 8.99933 20 9C21.5 9 22.8043 9.47933 23.913 10.438C25.0217 11.3967 25.6923 12.5923 25.925 14.025C27.075 14.125 28.0417 14.6 28.825 15.45C29.6083 16.3 30 17.3167 30 18.5C30 19.75 29.5627 20.8127 28.688 21.688C27.8133 22.5633 26.7507 23.0007 25.5 23H15.5Z" fill="#20202E"/>
</g>
<defs>
<radialGradient id="paint0_radial_139_1689" cx="0" cy="0" r="1" gradientUnits="userSpaceOnUse" gradientTransform="translate(19.5 19.5) rotate(90) scale(19.5)">
<stop offset="0.565" stop-color="#C79E66"/>
<stop offset="1" stop-color="#8F4E2F"/>
</radialGradient>
<clipPath id="clip0_139_1689">
<rect width="24" height="24" fill="white" transform="translate(8 6)"/>
</clipPath>
</defs>
</svg>
