<svg width="19" height="14" viewBox="0 0 19 14" fill="none" xmlns="http://www.w3.org/2000/svg">
<path fill-rule="evenodd" clip-rule="evenodd" d="M16.4971 13.201C16.4345 13.2062 16.3722 13.1848 16.324 13.1413C16.2758 13.0979 16.2456 13.036 16.2401 12.9694L16.2198 12.7276L16.0728 12.8275C16.02 12.8633 15.9559 12.8751 15.8944 12.8605C15.833 12.8459 15.7793 12.8059 15.7451 12.7494C15.7109 12.693 15.699 12.6246 15.7121 12.5593C15.7252 12.4941 15.7622 12.4373 15.815 12.4015L16.1723 12.159L16.1323 11.681C15.9597 11.6488 15.8015 11.5669 15.6723 11.4484L15.3033 11.7199L15.3569 12.17C15.3648 12.2365 15.3477 12.3032 15.3092 12.3557C15.2707 12.4081 15.214 12.4419 15.1517 12.4497C15.0893 12.4574 15.0264 12.4384 14.9767 12.3969C14.927 12.3554 14.8947 12.2948 14.8867 12.2283L14.8648 12.0429L14.6783 12.1802C14.6529 12.1992 14.6241 12.2126 14.5937 12.2197C14.5632 12.2268 14.5317 12.2274 14.5009 12.2214C14.4701 12.2154 14.4406 12.2031 14.4142 12.185C14.3878 12.1669 14.365 12.1435 14.347 12.1161C14.329 12.0887 14.3163 12.0579 14.3096 12.0253C14.3028 11.9928 14.3021 11.9592 14.3076 11.9265C14.3131 11.8939 14.3246 11.8627 14.3415 11.835C14.3584 11.8072 14.3803 11.7833 14.406 11.7646L14.5924 11.6275L14.4362 11.5409C14.4085 11.5255 14.3838 11.5045 14.3636 11.4791C14.3434 11.4537 14.3281 11.4243 14.3185 11.3927C14.3089 11.3611 14.3052 11.3279 14.3077 11.2949C14.3102 11.2619 14.3187 11.2298 14.3329 11.2005C14.347 11.1711 14.3665 11.1451 14.3902 11.1239C14.4138 11.1027 14.4413 11.0867 14.4709 11.0768C14.5005 11.0669 14.5317 11.0633 14.5627 11.0663C14.5937 11.0693 14.624 11.0787 14.6517 11.0941L15.0309 11.3043L15.3996 11.033C15.3389 10.8607 15.3233 10.6745 15.3546 10.4944L14.9459 10.2879L14.6069 10.5582C14.5568 10.5981 14.4937 10.615 14.4314 10.6053C14.3692 10.5956 14.3128 10.5599 14.2748 10.5063C14.2368 10.4526 14.2202 10.3852 14.2287 10.3191C14.2372 10.2529 14.2701 10.1933 14.3202 10.1534L14.4596 10.0423L14.2532 9.93781C14.2247 9.92369 14.1992 9.90376 14.1779 9.87915C14.1566 9.85455 14.1401 9.82577 14.1293 9.79446C14.1185 9.76315 14.1135 9.72994 14.1148 9.69673C14.1161 9.66353 14.1235 9.63098 14.1367 9.60097C14.1498 9.57096 14.1685 9.54409 14.1915 9.52188C14.2145 9.49968 14.2415 9.48259 14.2709 9.4716C14.3003 9.46061 14.3315 9.45594 14.3627 9.45785C14.3939 9.45976 14.4245 9.46822 14.4528 9.48274L14.6592 9.58697L14.6503 9.40067C14.647 9.33385 14.6689 9.26867 14.711 9.21949C14.7531 9.1703 14.812 9.14114 14.8748 9.13841C14.9375 9.13568 14.999 9.1596 15.0457 9.20492C15.0923 9.25024 15.1204 9.31324 15.1236 9.38007L15.1455 9.83281L15.5544 10.0393C15.6622 9.90122 15.8048 9.79387 15.9694 9.73353L15.9294 9.25547L15.5368 9.0757C15.4789 9.04916 15.433 8.99933 15.4092 8.93717C15.3855 8.875 15.3858 8.8056 15.4101 8.74422C15.4344 8.68285 15.4808 8.63453 15.539 8.60989C15.5971 8.58526 15.6624 8.58632 15.7203 8.61286L15.8819 8.68692L15.8617 8.44512C15.8561 8.37846 15.8756 8.31245 15.9159 8.26161C15.9562 8.21078 16.0141 8.17927 16.0766 8.17404C16.1392 8.16881 16.2015 8.19027 16.2497 8.2337C16.2979 8.27714 16.3281 8.33899 16.3337 8.40565L16.3539 8.64745L16.5009 8.54757C16.527 8.52985 16.5562 8.51781 16.5868 8.51214C16.6174 8.50647 16.6488 8.50728 16.6793 8.51452C16.7097 8.52177 16.7385 8.5353 16.7642 8.55436C16.7898 8.57342 16.8117 8.59762 16.8286 8.62559C16.8456 8.65355 16.8572 8.68474 16.8628 8.71736C16.8685 8.74998 16.868 8.78339 16.8616 8.8157C16.8551 8.84801 16.8426 8.87857 16.825 8.90565C16.8074 8.93272 16.7849 8.95578 16.7588 8.9735L16.4014 9.216L16.4414 9.69406C16.6114 9.72596 16.7704 9.80646 16.9015 9.92691L17.2704 9.6551L17.2168 9.20501C17.2129 9.17211 17.2151 9.13879 17.2233 9.10694C17.2315 9.07509 17.2456 9.04534 17.2646 9.01938C17.2837 8.99342 17.3074 8.97177 17.3344 8.95566C17.3615 8.93955 17.3913 8.9293 17.4221 8.92549C17.453 8.92168 17.4844 8.92438 17.5144 8.93345C17.5444 8.94251 17.5725 8.95777 17.5971 8.97833C17.6217 8.9989 17.6423 9.02437 17.6577 9.0533C17.6731 9.08224 17.6831 9.11406 17.687 9.14695L17.7089 9.33217L17.8954 9.19508C17.9208 9.17513 17.9497 9.16085 17.9805 9.15309C18.0113 9.14532 18.0433 9.14423 18.0746 9.14988C18.1059 9.15552 18.1359 9.16779 18.1628 9.18596C18.1897 9.20412 18.213 9.22781 18.2312 9.25562C18.2495 9.28344 18.2623 9.3148 18.269 9.34787C18.2757 9.38093 18.2761 9.41502 18.2702 9.4481C18.2642 9.48119 18.2521 9.51261 18.2345 9.54049C18.2169 9.56837 18.1942 9.59216 18.1677 9.61043L17.9813 9.74776L18.1375 9.83442C18.1922 9.86623 18.2331 9.91943 18.2516 9.98261C18.2701 10.0458 18.2647 10.1139 18.2365 10.1723C18.2083 10.2308 18.1595 10.2749 18.1008 10.2952C18.042 10.3155 17.9778 10.3104 17.922 10.281L17.5428 10.0707L17.1741 10.3422C17.2348 10.5145 17.2503 10.7007 17.2191 10.8806L17.6277 11.0869L17.9668 10.8168C18.017 10.7785 18.0794 10.7628 18.1407 10.7731C18.2021 10.7834 18.2574 10.8188 18.295 10.8717C18.3325 10.9246 18.3492 10.9909 18.3414 11.0563C18.3337 11.1216 18.3021 11.1809 18.2535 11.2214L18.1138 11.3328L18.3205 11.437C18.3775 11.4658 18.4217 11.5174 18.4433 11.5804C18.4649 11.6435 18.4622 11.7128 18.4357 11.7732C18.4093 11.8336 18.3612 11.88 18.3022 11.9024C18.2432 11.9247 18.178 11.9211 18.1209 11.8923L17.9143 11.7878L17.9234 11.9744C17.9267 12.0412 17.9048 12.1064 17.8627 12.1555C17.8419 12.1799 17.8167 12.1996 17.7886 12.2135C17.7605 12.2274 17.73 12.2353 17.6989 12.2366C17.6679 12.238 17.6368 12.2328 17.6075 12.2214C17.5781 12.21 17.5511 12.1926 17.528 12.1701C17.5049 12.1477 17.4862 12.1207 17.4728 12.0906C17.4594 12.0606 17.4517 12.0281 17.4501 11.995L17.4282 11.5422L17.0193 11.3355C16.91 11.476 16.7666 11.5818 16.6043 11.6415L16.6443 12.1196L17.0369 12.2993C17.0948 12.3259 17.1407 12.3757 17.1645 12.4379C17.1883 12.5 17.1879 12.5694 17.1636 12.6308C17.1393 12.6922 17.0929 12.7405 17.0347 12.7651C16.9766 12.7898 16.9113 12.7887 16.8534 12.7622L16.6918 12.6881L16.712 12.9299C16.7176 12.9966 16.6981 13.0626 16.6578 13.1134C16.6175 13.1643 16.5596 13.1958 16.4971 13.201ZM16.2448 10.1848C16.1196 10.1953 16.004 10.2583 15.9234 10.36C15.8428 10.4616 15.8037 10.5937 15.8149 10.727C15.826 10.8603 15.8864 10.984 15.9828 11.0709C16.0792 11.1578 16.2037 11.2007 16.3289 11.1902C16.4541 11.1797 16.5697 11.1167 16.6503 11.0151C16.7309 10.9134 16.77 10.7814 16.7588 10.648C16.7477 10.5147 16.6873 10.391 16.5909 10.3041C16.4945 10.2173 16.37 10.1744 16.2448 10.1848Z" fill="#20202E"/>
<path fill-rule="evenodd" clip-rule="evenodd" d="M11.2672 9.33347C11.1578 9.34262 11.0493 9.30738 10.9654 9.2355C10.8815 9.16362 10.8292 9.061 10.8199 8.9502L10.7863 8.54832L10.5287 8.71541C10.4364 8.7753 10.3242 8.79552 10.217 8.77163C10.1098 8.74774 10.0162 8.68169 9.95688 8.58802C9.89757 8.49436 9.87736 8.38073 9.90071 8.27216C9.92407 8.16358 9.98906 8.06894 10.0814 8.00906L10.7073 7.60334L10.6408 6.80877C10.3396 6.75656 10.0638 6.62145 9.83891 6.42528L9.19261 6.8794L9.28298 7.62739C9.29635 7.73779 9.26588 7.84894 9.19828 7.93641C9.13069 8.02387 9.0315 8.08048 8.92254 8.09378C8.81359 8.10707 8.70378 8.07597 8.61729 8.00731C8.5308 7.93865 8.4747 7.83805 8.46134 7.72765L8.42435 7.41944L8.09768 7.64911C8.0531 7.6809 8.00273 7.70343 7.94948 7.7154C7.89622 7.72736 7.84113 7.72854 7.78738 7.71886C7.73363 7.70917 7.68228 7.68881 7.63628 7.65896C7.59029 7.62911 7.55056 7.59035 7.51938 7.54491C7.4882 7.49947 7.46618 7.44825 7.4546 7.3942C7.44303 7.34015 7.44211 7.28434 7.45191 7.22998C7.46171 7.17562 7.48204 7.12378 7.51171 7.07746C7.54139 7.03113 7.57983 6.99122 7.62483 6.96004L7.95153 6.73079L7.67923 6.58781C7.63093 6.56246 7.588 6.52773 7.55291 6.48561C7.51782 6.44348 7.49125 6.39479 7.47471 6.3423C7.45818 6.28982 7.452 6.23457 7.45654 6.17971C7.46108 6.12485 7.47624 6.07146 7.50116 6.02259C7.52609 5.97371 7.56028 5.9303 7.60179 5.89485C7.6433 5.8594 7.69131 5.83258 7.74309 5.81595C7.79487 5.79931 7.8494 5.79318 7.90356 5.79789C7.95773 5.80261 8.01047 5.81809 8.05877 5.84344L8.71975 6.19033L9.36568 5.73666C9.26082 5.45052 9.23493 5.14099 9.29081 4.8414L8.57846 4.50091L7.98429 4.95277C7.89659 5.01946 7.78625 5.04808 7.67755 5.03232C7.56885 5.01656 7.47069 4.95771 7.40467 4.86873C7.33864 4.77976 7.31015 4.66793 7.32548 4.55785C7.3408 4.44778 7.39867 4.34847 7.48637 4.28178L7.73076 4.09602L7.37089 3.92376C7.32134 3.90049 7.27681 3.86752 7.23985 3.82677C7.20289 3.78601 7.17424 3.73827 7.15554 3.68629C7.13685 3.63431 7.12848 3.57913 7.13092 3.52391C7.13336 3.46868 7.14656 3.41452 7.16976 3.36454C7.19296 3.31455 7.2257 3.26973 7.2661 3.23265C7.3065 3.19557 7.35375 3.16697 7.40515 3.14849C7.45654 3.13001 7.51106 3.12202 7.56556 3.12497C7.62007 3.12793 7.67348 3.14178 7.72272 3.16572L8.08256 3.33755L8.06828 3.02786C8.06312 2.91678 8.10173 2.80826 8.17562 2.72619C8.2495 2.64411 8.35261 2.5952 8.46227 2.59022C8.57192 2.58523 8.67913 2.62458 8.76031 2.6996C8.8415 2.77462 8.89001 2.87918 8.89517 2.99026L8.93029 3.74287L9.64305 4.08332C9.83222 3.85295 10.0821 3.67346 10.3701 3.57197L10.3037 2.77739L9.6191 2.48127C9.51809 2.43756 9.43828 2.35503 9.39722 2.25184C9.35616 2.14865 9.35721 2.03325 9.40014 1.93103C9.44307 1.82881 9.52437 1.74814 9.62615 1.70677C9.72793 1.6654 9.84186 1.66671 9.94286 1.71043L10.2246 1.83242L10.191 1.43053C10.1817 1.31974 10.2163 1.20985 10.2871 1.12503C10.3579 1.04022 10.4591 0.987436 10.5684 0.97829C10.6778 0.969144 10.7863 1.00439 10.8702 1.07626C10.9541 1.14814 11.0064 1.25077 11.0157 1.36156L11.0493 1.76345L11.3069 1.59635C11.3526 1.5667 11.4037 1.54648 11.4571 1.53683C11.5106 1.52719 11.5655 1.52831 11.6186 1.54014C11.6717 1.55197 11.722 1.57427 11.7666 1.60577C11.8112 1.63728 11.8493 1.67736 11.8787 1.72374C11.9081 1.77012 11.9282 1.82189 11.9378 1.87608C11.9474 1.93028 11.9464 1.98584 11.9349 2.03961C11.9233 2.09337 11.9014 2.14427 11.8704 2.18942C11.8394 2.23456 11.7999 2.27306 11.7542 2.30271L11.1283 2.70842L11.1948 3.503C11.4914 3.55483 11.7687 3.68755 11.9967 3.8869L12.643 3.43236L12.5526 2.68438C12.546 2.62971 12.5501 2.57429 12.5647 2.52128C12.5792 2.46826 12.604 2.4187 12.6375 2.3754C12.6709 2.33211 12.7125 2.29595 12.7599 2.26897C12.8072 2.24199 12.8593 2.22473 12.9133 2.21818C12.9672 2.21162 13.0219 2.2159 13.0743 2.23076C13.1267 2.24562 13.1757 2.27078 13.2185 2.3048C13.2613 2.33882 13.2971 2.38103 13.3238 2.42903C13.3505 2.47702 13.3677 2.52986 13.3743 2.58453L13.4112 2.89232L13.7379 2.66307C13.7824 2.62972 13.8331 2.60578 13.8869 2.59265C13.9407 2.57952 13.9966 2.57748 14.0513 2.58665C14.106 2.59581 14.1583 2.616 14.2052 2.64601C14.252 2.67602 14.2925 2.71525 14.3242 2.76136C14.3558 2.80747 14.378 2.85954 14.3895 2.91446C14.4009 2.96939 14.4014 3.02606 14.3908 3.08111C14.3802 3.13617 14.3588 3.18849 14.3279 3.23497C14.297 3.28146 14.2572 3.32116 14.2108 3.35173L13.8841 3.58139L14.1564 3.72437C14.2516 3.77687 14.3228 3.86504 14.3546 3.96995C14.3865 4.07486 14.3765 4.18815 14.3268 4.28552C14.2772 4.38288 14.1917 4.45656 14.0889 4.49074C13.9861 4.52491 13.874 4.51687 13.7768 4.46833L13.1158 4.12144L12.4699 4.57552C12.5747 4.86154 12.6006 5.17091 12.5448 5.47036L13.2571 5.81044L13.8513 5.35899C13.9391 5.29498 14.0483 5.26843 14.1553 5.28505C14.2624 5.30168 14.3589 5.36014 14.424 5.4479C14.4892 5.53566 14.5179 5.64573 14.5039 5.75447C14.4899 5.86322 14.4343 5.96198 14.3492 6.02956L14.1044 6.21578L14.4647 6.38758C14.5641 6.43506 14.6408 6.52054 14.6781 6.62523C14.7154 6.72992 14.7102 6.84523 14.6635 6.94581C14.6169 7.04639 14.5327 7.12399 14.4294 7.16154C14.3261 7.19909 14.2123 7.19352 14.1129 7.14604L13.7526 6.97383L13.7673 7.2839C13.7725 7.39499 13.7339 7.5035 13.66 7.58558C13.6234 7.62621 13.5792 7.65914 13.5301 7.68247C13.4809 7.7058 13.4276 7.71908 13.3733 7.72155C13.319 7.72402 13.2648 7.71563 13.2136 7.69686C13.1625 7.67809 13.1155 7.64931 13.0753 7.61216C13.0351 7.57502 13.0025 7.53023 12.9793 7.48036C12.9562 7.43049 12.943 7.37651 12.9404 7.3215L12.9053 6.5689L12.1925 6.22802C12.0007 6.46248 11.7494 6.63941 11.4655 6.7398L11.5319 7.53437L12.2165 7.8305C12.3175 7.87421 12.3973 7.95674 12.4384 8.05993C12.4794 8.16312 12.4784 8.27851 12.4354 8.38073C12.3925 8.48295 12.3112 8.56362 12.2094 8.60499C12.1077 8.64636 11.9937 8.64505 11.8927 8.60134L11.611 8.47935L11.6446 8.88123C11.6538 8.99203 11.6193 9.10192 11.5485 9.18673C11.4777 9.27154 11.3765 9.32433 11.2672 9.33347ZM10.8479 4.32036C10.6292 4.33866 10.4268 4.44423 10.2853 4.61385C10.1437 4.78348 10.0746 5.00326 10.0931 5.22485C10.1117 5.44645 10.2163 5.6517 10.3841 5.79545C10.5518 5.93921 10.769 6.00969 10.9877 5.9914C11.2064 5.97311 11.4088 5.86754 11.5503 5.69791C11.6919 5.52829 11.761 5.30851 11.7425 5.08691C11.7239 4.86532 11.6193 4.66007 11.4515 4.51631C11.2838 4.37256 11.0666 4.30207 10.8479 4.32036Z" fill="#20202E"/>
<path fill-rule="evenodd" clip-rule="evenodd" d="M2.77825 6.41825C2.70768 6.42415 2.63769 6.4023 2.5837 6.35751C2.5297 6.31272 2.49611 6.24865 2.49032 6.17941L2.46932 5.92823L2.30285 6.03312C2.24317 6.07071 2.1708 6.08354 2.10165 6.06879C2.0325 6.05404 1.97225 6.01291 1.93413 5.95445C1.89602 5.896 1.88318 5.825 1.89843 5.75709C1.91368 5.68917 1.95577 5.6299 2.01545 5.59231L2.41992 5.33762L2.37839 4.84101C2.18412 4.80888 2.00641 4.72489 1.86167 4.60264L1.44392 4.88761L1.50097 5.35506C1.50941 5.42405 1.48956 5.49359 1.4458 5.54838C1.40204 5.60317 1.33796 5.63873 1.26764 5.64722C1.19732 5.65572 1.12653 5.63646 1.07084 5.59368C1.01515 5.55091 0.979131 5.48812 0.970696 5.41912L0.947353 5.22651L0.736204 5.37064C0.707387 5.39058 0.674853 5.40475 0.640475 5.41232C0.606097 5.4199 0.570554 5.42073 0.535891 5.41476C0.501229 5.4088 0.468133 5.39616 0.438508 5.37757C0.408883 5.35899 0.383314 5.33482 0.363273 5.30647C0.343233 5.27812 0.329117 5.24614 0.321738 5.21237C0.314359 5.1786 0.313863 5.14371 0.320278 5.10971C0.326694 5.07571 0.339894 5.04327 0.359118 5.01426C0.378342 4.98525 0.403211 4.96024 0.432294 4.94067L0.643465 4.7968L0.468024 4.70788C0.436901 4.69212 0.409266 4.67048 0.386697 4.64421C0.364128 4.61793 0.347067 4.58753 0.336487 4.55475C0.325908 4.52197 0.322018 4.48744 0.325038 4.45314C0.328059 4.41884 0.337932 4.38544 0.354093 4.35484C0.370254 4.32424 0.392386 4.29705 0.419228 4.27482C0.446068 4.25258 0.477092 4.23574 0.510526 4.22525C0.543961 4.21477 0.579152 4.21084 0.61409 4.2137C0.649028 4.21655 0.683029 4.22614 0.714152 4.24191L1.14001 4.45765L1.55752 4.17295C1.49035 3.99425 1.47417 3.80079 1.51072 3.61341L1.05171 3.40176L0.667596 3.68524C0.610903 3.72708 0.53967 3.74515 0.469566 3.73549C0.399462 3.72582 0.33623 3.6892 0.293781 3.63368C0.251332 3.57817 0.233142 3.50831 0.243214 3.43947C0.253286 3.37064 0.290794 3.30846 0.347486 3.26662L0.505476 3.15008L0.273587 3.043C0.241657 3.02854 0.21298 3.008 0.189203 2.98259C0.165427 2.95717 0.147022 2.92738 0.135048 2.89491C0.123074 2.86245 0.117769 2.82797 0.119436 2.79344C0.121104 2.75892 0.129711 2.72503 0.144763 2.69375C0.159816 2.66246 0.181016 2.63438 0.207142 2.61114C0.233269 2.58789 0.263806 2.56993 0.296996 2.55829C0.330186 2.54665 0.365373 2.54156 0.400532 2.54332C0.43569 2.54508 0.470125 2.55364 0.501855 2.56853L0.733723 2.67534L0.725036 2.48176C0.721894 2.41233 0.746987 2.34443 0.794796 2.29299C0.842604 2.24156 0.909211 2.21081 0.979964 2.20751C1.05072 2.20421 1.11982 2.22862 1.17207 2.27539C1.22432 2.32215 1.25544 2.38743 1.25859 2.45686L1.27998 2.92729L1.73926 3.13892C1.8617 2.99458 2.02323 2.88195 2.2092 2.81802L2.16767 2.32141L1.72651 2.13745C1.66142 2.11029 1.61006 2.05884 1.58374 1.9944C1.55743 1.92996 1.5583 1.85782 1.58617 1.79384C1.61404 1.72987 1.66663 1.6793 1.73237 1.65327C1.7981 1.62723 1.8716 1.62786 1.93669 1.65502L2.11827 1.73081L2.09727 1.47963C2.09147 1.41038 2.11395 1.34162 2.15976 1.28849C2.20557 1.23535 2.27095 1.20218 2.34152 1.19628C2.41209 1.19037 2.48207 1.21222 2.53607 1.25701C2.59006 1.30181 2.62365 1.36587 2.62944 1.43512L2.65045 1.6863L2.81692 1.5814C2.84647 1.56279 2.87944 1.55006 2.91396 1.54394C2.94849 1.53782 2.98388 1.53843 3.01811 1.54574C3.05235 1.55304 3.08477 1.5669 3.11351 1.58652C3.14225 1.60614 3.16676 1.63113 3.18563 1.66008C3.2045 1.68902 3.21737 1.72135 3.22349 1.75521C3.22962 1.78907 3.22889 1.82381 3.22134 1.85744C3.21379 1.89107 3.19957 1.92293 3.17949 1.9512C3.15941 1.97947 3.13387 2.00361 3.10432 2.02222L2.69984 2.2769L2.74138 2.77351C2.93267 2.80541 3.11132 2.88792 3.25811 3.01215L3.67584 2.72691L3.6188 2.25947C3.61464 2.22531 3.61738 2.19065 3.62686 2.15749C3.63634 2.12432 3.65238 2.09329 3.67406 2.06618C3.69574 2.03906 3.72264 2.01638 3.75322 1.99943C3.78379 1.98249 3.81745 1.97161 3.85227 1.96742C3.88709 1.96323 3.92239 1.96581 3.95615 1.97502C3.98991 1.98422 4.02147 1.99986 4.04904 2.02106C4.0766 2.04225 4.09962 2.06858 4.11679 2.09854C4.13396 2.1285 4.14493 2.1615 4.14909 2.19566L4.17241 2.38801L4.38358 2.24415C4.41234 2.22323 4.44506 2.20817 4.47981 2.19987C4.51456 2.19158 4.55063 2.19021 4.58589 2.19584C4.62114 2.20148 4.65486 2.21401 4.68505 2.2327C4.71524 2.25138 4.74128 2.27583 4.76163 2.3046C4.78198 2.33338 4.79622 2.36589 4.80351 2.4002C4.81081 2.43452 4.811 2.46995 4.80408 2.50438C4.79717 2.53882 4.78328 2.57156 4.76325 2.60067C4.74322 2.62979 4.71745 2.65467 4.68747 2.67386L4.47632 2.81798L4.65176 2.9069C4.71309 2.93956 4.75886 2.99456 4.77924 3.06009C4.79962 3.12562 4.79299 3.19646 4.76078 3.25741C4.72857 3.31836 4.67333 3.36456 4.60693 3.3861C4.54053 3.40764 4.46825 3.4028 4.40561 3.37262L3.97975 3.15688L3.56227 3.44184C3.62939 3.62046 3.64556 3.81382 3.60904 4.00111L4.06804 4.2125L4.45217 3.92928C4.50893 3.88912 4.57939 3.87234 4.64845 3.88255C4.71751 3.89276 4.77965 3.92915 4.82154 3.9839C4.86343 4.03865 4.88173 4.10741 4.87252 4.17541C4.86331 4.24342 4.82731 4.30525 4.77226 4.34765L4.61402 4.46447L4.84616 4.57126C4.9102 4.60077 4.9596 4.65408 4.98349 4.71946C5.00737 4.78484 5.00378 4.85694 4.97352 4.9199C4.94325 4.98285 4.88878 5.0315 4.82209 5.05515C4.7554 5.0788 4.68196 5.07551 4.61791 5.046L4.38575 4.93895L4.39473 5.13276C4.39787 5.2022 4.37278 5.2701 4.32497 5.32153C4.3013 5.347 4.27276 5.36766 4.24099 5.38232C4.20922 5.39699 4.17483 5.40538 4.1398 5.40702C4.10477 5.40865 4.06977 5.4035 4.03681 5.39185C4.00385 5.38021 3.97357 5.3623 3.94769 5.33914C3.92182 5.31599 3.90086 5.28804 3.88602 5.25691C3.87118 5.22577 3.86274 5.19205 3.86118 5.15767L3.83979 4.68724L3.38049 4.47535C3.25636 4.62224 3.0939 4.73327 2.91057 4.79651L2.9521 5.29312L3.39326 5.47708C3.45835 5.50423 3.5097 5.55569 3.53602 5.62013C3.56234 5.68457 3.56147 5.75671 3.53359 5.82068C3.50572 5.88466 3.45313 5.93522 3.3874 5.96126C3.32166 5.98729 3.24816 5.98666 3.18307 5.95951L3.00149 5.88372L3.0225 6.1349C3.02829 6.20415 3.00581 6.2729 2.96 6.32604C2.9142 6.37918 2.84882 6.41235 2.77825 6.41825ZM2.51621 3.28507C2.37507 3.29687 2.24431 3.36321 2.15269 3.46949C2.06108 3.57576 2.01612 3.71328 2.0277 3.85177C2.03929 3.99027 2.10646 4.1184 2.21446 4.20798C2.32245 4.29757 2.46241 4.34126 2.60356 4.32946C2.7447 4.31766 2.87546 4.25132 2.96707 4.14504C3.05868 4.03876 3.10364 3.90125 3.09206 3.76276C3.08048 3.62426 3.0133 3.49613 2.90531 3.40654C2.79731 3.31696 2.65735 3.27326 2.51621 3.28507Z" fill="#20202E"/>
</svg>
