<svg width="21" height="16" viewBox="0 0 21 16" fill="none" xmlns="http://www.w3.org/2000/svg">
<path fill-rule="evenodd" clip-rule="evenodd" d="M4.37182 0.557252C4.43429 0.563733 4.49146 0.59638 4.53076 0.648012C4.57005 0.699643 4.58825 0.76603 4.58134 0.832567L4.55631 1.07391L4.71936 1.00309C4.77781 0.977713 4.84305 0.977944 4.90071 1.00373C4.95838 1.02952 5.00376 1.07876 5.02686 1.14061C5.04997 1.20245 5.0489 1.27185 5.02391 1.33353C4.99891 1.39521 4.95203 1.44411 4.89358 1.46949L4.49743 1.6414L4.44793 2.11857C4.61156 2.18221 4.75182 2.2921 4.85676 2.43257L5.2697 2.23425L5.30066 1.78204C5.30522 1.71529 5.33449 1.65286 5.38205 1.60848C5.42961 1.5641 5.49155 1.5414 5.55425 1.54538C5.61694 1.54937 5.67527 1.5797 5.71638 1.62971C5.75749 1.67973 5.77803 1.74532 5.77347 1.81207L5.76057 1.99838L5.9693 1.89806C5.99784 1.88411 6.02861 1.87626 6.05985 1.87497C6.0911 1.87368 6.12219 1.87898 6.15135 1.89055C6.1805 1.90212 6.20714 1.91975 6.22973 1.9424C6.25232 1.96506 6.27042 1.99231 6.28298 2.02257C6.29554 2.05283 6.30231 2.08552 6.30292 2.11875C6.30352 2.15197 6.29793 2.18508 6.28648 2.21617C6.27503 2.24725 6.25794 2.2757 6.23619 2.29987C6.21444 2.32405 6.18847 2.34347 6.15977 2.35702L5.95107 2.45709L6.0885 2.57125C6.11288 2.5915 6.13322 2.61671 6.14834 2.64544C6.16346 2.67417 6.17307 2.70586 6.17663 2.7387C6.18018 2.77154 6.17761 2.80488 6.16907 2.83684C6.16052 2.86879 6.14616 2.89872 6.12681 2.92491C6.10746 2.95111 6.08349 2.97307 6.05629 2.98952C6.02908 3.00598 5.99916 3.01661 5.96823 3.02082C5.93731 3.02503 5.90599 3.02273 5.87606 3.01405C5.84613 3.00538 5.81817 2.99049 5.79379 2.97024L5.46017 2.69321L5.04749 2.8913C5.07516 3.07194 5.05587 3.25782 4.99172 3.42893L5.35491 3.70777L5.7383 3.50512C5.79489 3.47521 5.86003 3.47028 5.91941 3.49142C5.97879 3.51256 6.02753 3.55804 6.05492 3.61784C6.08231 3.67765 6.0861 3.74688 6.06545 3.81032C6.04481 3.87376 6.00142 3.9262 5.94483 3.95611L5.78715 4.0394L5.97061 4.18041C5.99592 4.19956 6.01735 4.2239 6.03367 4.25202C6.04999 4.28015 6.06088 4.3115 6.0657 4.34427C6.07053 4.37705 6.0692 4.4106 6.06179 4.44299C6.05438 4.47539 6.04104 4.50599 6.02254 4.53303C6.00403 4.56007 5.98073 4.58302 5.95397 4.60056C5.92721 4.61809 5.89752 4.62987 5.86661 4.63521C5.8357 4.64056 5.80418 4.63935 5.77387 4.63168C5.74355 4.624 5.71505 4.61001 5.68998 4.59049L5.5065 4.44974L5.48067 4.63446C5.47143 4.70072 5.43786 4.7607 5.38736 4.80121C5.33686 4.84172 5.27355 4.85943 5.21137 4.85046C5.14919 4.84149 5.09323 4.80656 5.05579 4.75336C5.01836 4.70016 5.00252 4.63305 5.01176 4.56679L5.07429 4.11785L4.71086 3.83899C4.57934 3.95468 4.41924 4.03367 4.24627 4.06238L4.19677 4.53955L4.5492 4.78912C4.60119 4.82595 4.63704 4.88344 4.64884 4.94894C4.66064 5.01443 4.64743 5.08257 4.61213 5.13836C4.57682 5.19415 4.5223 5.23302 4.46057 5.24642C4.39883 5.25982 4.33494 5.24666 4.28294 5.20982L4.1379 5.10704L4.11286 5.34838C4.10596 5.41492 4.07452 5.47616 4.02547 5.51863C3.97641 5.56109 3.91376 5.58131 3.85129 5.57483C3.78882 5.56835 3.73164 5.5357 3.69235 5.48407C3.65306 5.43244 3.63486 5.36605 3.64176 5.29951L3.6668 5.05817L3.50375 5.12899C3.47481 5.14155 3.44389 5.14797 3.41278 5.14785C3.38166 5.14774 3.35095 5.14111 3.32239 5.12834C3.29384 5.11558 3.268 5.09692 3.24636 5.07343C3.22471 5.04995 3.20769 5.0221 3.19625 4.99147C3.18481 4.96085 3.17918 4.92805 3.17969 4.89495C3.18019 4.86185 3.18682 4.82909 3.1992 4.79855C3.21158 4.76801 3.22946 4.74028 3.25182 4.71696C3.27418 4.69363 3.30058 4.67515 3.32953 4.66259L3.72568 4.49068L3.77518 4.01351C3.61411 3.9506 3.47277 3.84196 3.36637 3.69926L2.95341 3.89783L2.92245 4.35004C2.92018 4.38309 2.91181 4.41542 2.89783 4.44519C2.88386 4.47497 2.86454 4.50159 2.84098 4.52356C2.81742 4.54552 2.79009 4.56239 2.76054 4.5732C2.73099 4.58401 2.6998 4.58855 2.66876 4.58656C2.63771 4.58457 2.60742 4.57609 2.57961 4.56161C2.5518 4.54712 2.52701 4.52692 2.50667 4.50214C2.48632 4.47737 2.47082 4.44851 2.46104 4.41722C2.45126 4.38592 2.44739 4.35281 2.44966 4.31976L2.46254 4.1337L2.25383 4.23377C2.22518 4.24865 2.19409 4.25731 2.1624 4.25922C2.13071 4.26113 2.09906 4.25626 2.06933 4.2449C2.0396 4.23353 2.0124 4.2159 1.98934 4.19306C1.96627 4.17021 1.94782 4.14261 1.93506 4.1119C1.9223 4.08118 1.91551 4.04797 1.91508 4.01424C1.91465 3.98051 1.92059 3.94695 1.93255 3.91554C1.94452 3.88412 1.96226 3.8555 1.98472 3.83137C2.00719 3.80724 2.03392 3.78809 2.06334 3.77506L2.27207 3.67474L2.13463 3.56057C2.08686 3.51917 2.05649 3.45929 2.05005 3.39377C2.04361 3.32826 2.0616 3.26234 2.10017 3.21016C2.13873 3.15797 2.1948 3.12368 2.25634 3.11465C2.31788 3.10562 2.37998 3.12256 2.42932 3.16184L2.76294 3.43887L3.17564 3.24053C3.14801 3.05997 3.16728 2.87418 3.23139 2.70315L2.86817 2.42456L2.48481 2.62696C2.42845 2.65528 2.3642 2.65911 2.30582 2.63763C2.24745 2.61616 2.19962 2.57109 2.17258 2.5121C2.14555 2.45311 2.14147 2.3849 2.16123 2.32211C2.18098 2.25931 2.22299 2.20694 2.27825 2.17622L2.43619 2.0927L2.25247 1.95192C2.20179 1.91304 2.16797 1.85413 2.15845 1.78816C2.14893 1.72219 2.16449 1.65455 2.20171 1.60014C2.23893 1.54573 2.29475 1.50899 2.3569 1.49801C2.41906 1.48703 2.48244 1.5027 2.53312 1.54159L2.71682 1.68261L2.74244 1.49762C2.75168 1.43136 2.78524 1.37138 2.83575 1.33087C2.86075 1.31081 2.88917 1.29614 2.91936 1.28769C2.94956 1.27924 2.98095 1.27718 3.01174 1.28162C3.04253 1.28606 3.07211 1.29692 3.09881 1.31358C3.1255 1.33024 3.14878 1.35238 3.16732 1.37872C3.18585 1.40506 3.19928 1.43509 3.20683 1.4671C3.21439 1.49912 3.21592 1.53248 3.21135 1.56529L3.14882 2.01423L3.51223 2.29334C3.64565 2.17552 3.80628 2.0982 3.97683 2.0697L4.02634 1.59253L3.67391 1.34296C3.62191 1.30612 3.58607 1.24864 3.57427 1.18314C3.56247 1.11765 3.57567 1.04951 3.61098 0.993719C3.64629 0.93793 3.70081 0.899059 3.76254 0.885657C3.82427 0.872254 3.88817 0.885419 3.94017 0.922254L4.08521 1.02504L4.11025 0.783694C4.11715 0.717157 4.14859 0.65592 4.19764 0.613453C4.2467 0.570987 4.30935 0.550771 4.37182 0.557252ZM4.0595 3.5678C4.18444 3.58076 4.30975 3.54033 4.40786 3.45539C4.50597 3.37046 4.56884 3.24799 4.58265 3.11491C4.59646 2.98184 4.56006 2.84906 4.48148 2.7458C4.40289 2.64254 4.28855 2.57724 4.16361 2.56428C4.03866 2.55132 3.91336 2.59175 3.81525 2.67669C3.71714 2.76162 3.65426 2.88409 3.64046 3.01717C3.62665 3.15024 3.66305 3.28301 3.74163 3.38628C3.82022 3.48954 3.93456 3.55484 4.0595 3.5678Z" fill="#20202E"/>
<path fill-rule="evenodd" clip-rule="evenodd" d="M8.7924 5.32882C8.90156 5.34014 9.00168 5.39493 9.07076 5.48114C9.13983 5.56735 9.17219 5.67791 9.16071 5.7885L9.1191 6.18963L9.40323 6.07328C9.50509 6.03159 9.61902 6.03254 9.71995 6.07594C9.82089 6.11933 9.90056 6.2016 9.94145 6.30466C9.98234 6.40771 9.98109 6.52311 9.93798 6.62546C9.89487 6.72781 9.81343 6.80873 9.71157 6.85042L9.02125 7.13284L8.93897 7.92593C9.22528 8.03319 9.47119 8.21717 9.65569 8.45168L10.3751 8.1255L10.4252 7.37374C10.4326 7.26278 10.4832 7.15922 10.5658 7.08583C10.6485 7.01244 10.7565 6.97524 10.866 6.98241C10.9755 6.98958 11.0776 7.04053 11.1499 7.12406C11.2221 7.2076 11.2586 7.31686 11.2512 7.42782L11.2303 7.73754L11.5939 7.57254C11.6436 7.54958 11.6973 7.5368 11.7519 7.53493C11.8064 7.53306 11.8608 7.54214 11.9118 7.56164C11.9628 7.58114 12.0095 7.61067 12.0491 7.64855C12.0888 7.68643 12.1206 7.73189 12.1428 7.78233C12.165 7.83277 12.1771 7.88719 12.1785 7.94245C12.1798 7.9977 12.1703 8.05271 12.1506 8.10431C12.1309 8.1559 12.1013 8.20306 12.0635 8.24308C12.0258 8.28309 11.9806 8.31516 11.9306 8.33744L11.567 8.50203L11.808 8.69309C11.8507 8.72697 11.8865 8.76906 11.9131 8.81697C11.9398 8.86488 11.9568 8.91767 11.9633 8.97231C11.9698 9.02695 11.9657 9.08239 11.951 9.13545C11.9364 9.18851 11.9115 9.23815 11.878 9.28155C11.8444 9.32495 11.8028 9.36125 11.7554 9.38838C11.708 9.41551 11.6558 9.43293 11.6019 9.43966C11.5479 9.44639 11.4932 9.44229 11.4408 9.4276C11.3885 9.4129 11.3396 9.3879 11.2968 9.35402L10.7117 8.8904L9.99279 9.21621C10.0427 9.51685 10.0106 9.8258 9.90009 10.1098L10.5368 10.5767L11.2046 10.243C11.3031 10.1938 11.4169 10.1862 11.5207 10.2218C11.6246 10.2575 11.7101 10.3336 11.7585 10.4332C11.8068 10.5329 11.8141 10.6481 11.7786 10.7534C11.7431 10.8587 11.6678 10.9456 11.5692 10.9948L11.2946 11.132L11.6162 11.3681C11.6605 11.4001 11.6982 11.4408 11.7269 11.4877C11.7557 11.5346 11.775 11.5868 11.7837 11.6414C11.7924 11.6959 11.7904 11.7517 11.7777 11.8055C11.7651 11.8593 11.742 11.9101 11.7099 11.9549C11.6779 11.9997 11.6374 12.0377 11.5908 12.0666C11.5442 12.0955 11.4925 12.1149 11.4385 12.1235C11.3846 12.1321 11.3295 12.1298 11.2765 12.1168C11.2235 12.1038 11.1736 12.0802 11.1297 12.0476L10.808 11.8119L10.7645 12.1188C10.749 12.229 10.6909 12.3284 10.603 12.3953C10.5152 12.4623 10.4048 12.4912 10.2961 12.4757C10.1874 12.4602 10.0894 12.4017 10.0236 12.3129C9.95773 12.2241 9.92948 12.1123 9.94504 12.0022L10.0503 11.2562L9.41318 10.7893C9.18451 10.9805 8.90562 11.1105 8.6038 11.1567L8.52153 11.9498L9.13917 12.3679C9.2303 12.4296 9.2934 12.5255 9.31458 12.6345C9.33577 12.7436 9.3133 12.8568 9.25213 12.9492C9.19096 13.0417 9.09609 13.1059 8.9884 13.1276C8.8807 13.1494 8.769 13.1269 8.67788 13.0652L8.42368 12.893L8.38206 13.2941C8.37059 13.4047 8.31622 13.5063 8.23093 13.5765C8.14563 13.6467 8.03639 13.6797 7.92723 13.6684C7.81808 13.6571 7.71795 13.6023 7.64888 13.5161C7.57981 13.4299 7.54745 13.3193 7.55892 13.2087L7.60054 12.8076L7.3164 12.924C7.26597 12.9446 7.21204 12.955 7.1577 12.9545C7.10336 12.9541 7.04966 12.9428 6.99969 12.9213C6.94971 12.8998 6.90442 12.8686 6.86642 12.8293C6.82841 12.7901 6.79843 12.7436 6.77819 12.6926C6.75794 12.6415 6.74783 12.587 6.74842 12.5319C6.74902 12.4769 6.76031 12.4225 6.78166 12.3718C6.80301 12.3211 6.83399 12.2751 6.87283 12.2365C6.91168 12.1979 6.95763 12.1675 7.00807 12.1468L7.69839 11.8644L7.78067 11.0713C7.49882 10.9653 7.25105 10.7834 7.06399 10.5451L6.34454 10.8717L6.29443 11.6235C6.29075 11.6784 6.27642 11.7321 6.25227 11.7815C6.22812 11.8309 6.19461 11.875 6.15367 11.9113C6.11272 11.9476 6.06513 11.9755 6.01362 11.9932C5.96211 12.0109 5.90768 12.0182 5.85345 12.0146C5.79922 12.011 5.74625 11.9967 5.69755 11.9723C5.64885 11.948 5.60539 11.9142 5.56965 11.8728C5.5339 11.8314 5.50657 11.7833 5.48921 11.7312C5.47186 11.679 5.46482 11.6239 5.4685 11.569L5.48935 11.2597L5.12575 11.4243C5.07585 11.4488 5.02163 11.4629 4.9663 11.4658C4.91097 11.4687 4.85566 11.4603 4.80365 11.4412C4.75163 11.422 4.70397 11.3925 4.66349 11.3543C4.62301 11.3161 4.59054 11.27 4.56799 11.2188C4.54545 11.1676 4.53329 11.1124 4.53224 11.0563C4.5312 11.0002 4.54128 10.9444 4.5619 10.8923C4.58251 10.8401 4.61324 10.7927 4.65227 10.7528C4.69129 10.7128 4.73781 10.6812 4.78906 10.6598L5.15271 10.4948L4.9117 10.3037C4.82791 10.2345 4.77435 10.1346 4.76253 10.0256C4.7507 9.9166 4.78155 9.80713 4.84844 9.72069C4.91534 9.63425 5.01296 9.57772 5.12034 9.56323C5.22773 9.54875 5.33633 9.57746 5.42284 9.64321L6.0079 10.1068L6.72689 9.7806C6.67706 9.4801 6.70909 9.17131 6.81955 8.88743L6.18279 8.42098L5.51507 8.75421C5.41691 8.80081 5.30472 8.80661 5.20259 8.77039C5.10047 8.73417 5.01653 8.65881 4.96881 8.56047C4.92108 8.46214 4.91336 8.34867 4.94731 8.24441C4.98126 8.14016 5.05417 8.05343 5.1504 8.00284L5.4255 7.86532L5.10342 7.6296C5.01458 7.56449 4.955 7.46623 4.9378 7.35644C4.92059 7.24665 4.94718 7.13431 5.0117 7.04415C5.07621 6.95398 5.17338 6.89338 5.28183 6.87566C5.39027 6.85794 5.50111 6.88456 5.58996 6.94967L5.91199 7.1858L5.95511 6.87839C5.97067 6.76828 6.02876 6.66883 6.11661 6.6019C6.1601 6.56876 6.2096 6.54461 6.26226 6.53082C6.31492 6.51703 6.36972 6.51388 6.42352 6.52153C6.47733 6.52919 6.5291 6.54751 6.57586 6.57545C6.62262 6.60339 6.66347 6.6404 6.69607 6.68437C6.72867 6.72833 6.75238 6.7784 6.76586 6.8317C6.77933 6.885 6.7823 6.9405 6.77459 6.99502L6.66933 7.74105L7.30641 8.20838C7.53839 8.01362 7.81823 7.88645 8.11583 7.84054L8.19811 7.04744L7.58046 6.62934C7.48934 6.56762 7.42624 6.47171 7.40506 6.36269C7.38387 6.25367 7.40634 6.14047 7.46751 6.048C7.52868 5.95554 7.62355 5.89137 7.73124 5.86962C7.83894 5.84787 7.95063 5.87033 8.04176 5.93204L8.29596 6.10424L8.33758 5.7031C8.34905 5.59251 8.40341 5.49095 8.48871 5.42076C8.57401 5.35057 8.68325 5.31749 8.7924 5.32882ZM8.2733 10.3326C8.49161 10.3552 8.7101 10.2891 8.88069 10.1487C9.05128 10.0083 9.16001 9.80519 9.18296 9.58401C9.2059 9.36283 9.14119 9.14171 9.00304 8.9693C8.8649 8.79689 8.66465 8.6873 8.44634 8.66466C8.22803 8.64201 8.00954 8.70815 7.83895 8.84854C7.66836 8.98892 7.55963 9.19204 7.53668 9.41322C7.51374 9.6344 7.57845 9.85552 7.7166 10.0279C7.85474 10.2003 8.05499 10.3099 8.2733 10.3326Z" fill="#20202E"/>
<path fill-rule="evenodd" clip-rule="evenodd" d="M16.5922 9.76994C16.6626 9.77725 16.7274 9.81171 16.7721 9.86575C16.8168 9.91979 16.8379 9.98899 16.8308 10.0581L16.8048 10.3088L16.9878 10.2367C17.0534 10.2108 17.1269 10.2116 17.1921 10.239C17.2573 10.2663 17.3089 10.3179 17.3355 10.3824C17.3621 10.447 17.3615 10.5191 17.3339 10.583C17.3063 10.6469 17.254 10.6973 17.1883 10.7232L16.7436 10.8983L16.6922 11.394C16.8771 11.4617 17.0361 11.5772 17.1556 11.7242L17.619 11.5218L17.6498 11.0519C17.6543 10.9825 17.6867 10.9179 17.7399 10.8721C17.7931 10.8264 17.8627 10.8034 17.9333 10.8081C18.004 10.8128 18.07 10.8449 18.1168 10.8973C18.1635 10.9496 18.1873 11.018 18.1827 11.0874L18.1699 11.281L18.4042 11.1786C18.4362 11.1643 18.4708 11.1565 18.506 11.1554C18.5411 11.1543 18.5762 11.1601 18.6092 11.1724C18.6421 11.1847 18.6723 11.2033 18.698 11.2271C18.7236 11.2508 18.7443 11.2793 18.7587 11.3109C18.7731 11.3425 18.781 11.3765 18.782 11.4111C18.783 11.4456 18.777 11.48 18.7644 11.5122C18.7518 11.5444 18.7328 11.5739 18.7085 11.5988C18.6842 11.6237 18.6551 11.6437 18.6229 11.6575L18.3887 11.7597L18.5446 11.8796C18.5722 11.9009 18.5954 11.9273 18.6127 11.9573C18.63 11.9873 18.6411 12.0203 18.6454 12.0545C18.6497 12.0887 18.6471 12.1233 18.6378 12.1565C18.6284 12.1896 18.6125 12.2206 18.591 12.2477C18.5694 12.2747 18.5426 12.2974 18.5121 12.3142C18.4816 12.3311 18.448 12.3419 18.4132 12.346C18.3784 12.3501 18.3431 12.3474 18.3093 12.3381C18.2755 12.3288 18.2438 12.313 18.2162 12.2918L17.8378 12.0007L17.3747 12.2029C17.4075 12.391 17.3875 12.5841 17.3167 12.7614L17.7285 13.0546L18.1585 12.8474C18.222 12.8168 18.2954 12.8123 18.3625 12.8348C18.4295 12.8573 18.4849 12.9051 18.5163 12.9675C18.5477 13.0299 18.5526 13.1019 18.5299 13.1677C18.5072 13.2335 18.4588 13.2876 18.3953 13.3182L18.2184 13.4034L18.4264 13.5516C18.4551 13.5718 18.4795 13.5973 18.4981 13.6267C18.5168 13.6561 18.5293 13.6888 18.535 13.7229C18.5408 13.757 18.5396 13.7919 18.5315 13.8255C18.5235 13.8591 18.5087 13.8908 18.4881 13.9187C18.4675 13.9467 18.4415 13.9703 18.4115 13.9883C18.3815 14.0063 18.3482 14.0183 18.3134 14.0236C18.2786 14.0288 18.2431 14.0273 18.2089 14.0191C18.1747 14.0108 18.1424 13.996 18.114 13.9755L17.906 13.8275L17.8786 14.0193C17.8688 14.0881 17.8315 14.1501 17.775 14.1918C17.7185 14.2335 17.6473 14.2513 17.5772 14.2414C17.507 14.2315 17.4437 14.1947 17.401 14.139C17.3583 14.0834 17.3399 14.0135 17.3497 13.9446L17.416 13.4784L17.0041 13.1852C16.8569 13.3043 16.6773 13.3849 16.4827 13.4132L16.4313 13.9089L16.8306 14.1716C16.8895 14.2104 16.9304 14.2705 16.9443 14.3387C16.9582 14.4069 16.9439 14.4776 16.9047 14.5353C16.8654 14.593 16.8043 14.6329 16.7349 14.6463C16.6655 14.6596 16.5934 14.6454 16.5345 14.6066L16.3701 14.4984L16.3441 14.7491C16.3369 14.8182 16.3021 14.8816 16.2472 14.9253C16.1923 14.969 16.1219 14.9895 16.0515 14.9822C15.981 14.9749 15.9163 14.9404 15.8716 14.8864C15.8269 14.8323 15.8058 14.7631 15.8129 14.694L15.8389 14.4433L15.6559 14.5155C15.6234 14.5283 15.5886 14.5346 15.5536 14.5342C15.5185 14.5338 15.4838 14.5267 15.4516 14.5131C15.4193 14.4996 15.39 14.48 15.3654 14.4553C15.3408 14.4307 15.3214 14.4016 15.3082 14.3697C15.295 14.3377 15.2884 14.3036 15.2887 14.2692C15.2889 14.2347 15.2961 14.2007 15.3098 14.1691C15.3234 14.1375 15.3433 14.1088 15.3683 14.0847C15.3933 14.0607 15.4229 14.0417 15.4553 14.0289L15.9001 13.8538L15.9515 13.3581C15.7695 13.2912 15.6093 13.177 15.4881 13.0277L15.0246 13.2303L14.9939 13.7003C14.9916 13.7346 14.9825 13.7681 14.967 13.799C14.9515 13.8298 14.93 13.8573 14.9037 13.8799C14.8773 13.9025 14.8467 13.9198 14.8135 13.9308C14.7803 13.9418 14.7452 13.9462 14.7102 13.9439C14.6752 13.9415 14.641 13.9324 14.6096 13.9171C14.5781 13.9018 14.55 13.8806 14.5269 13.8546C14.5037 13.8287 14.486 13.7985 14.4747 13.7659C14.4634 13.7333 14.4587 13.6988 14.461 13.6645L14.4738 13.4711L14.2396 13.5733C14.2074 13.5885 14.1725 13.5972 14.1368 13.5989C14.1011 13.6006 14.0654 13.5952 14.0318 13.5832C13.9982 13.5711 13.9674 13.5525 13.9412 13.5285C13.915 13.5046 13.894 13.4757 13.8793 13.4436C13.8647 13.4116 13.8567 13.377 13.8559 13.3419C13.8551 13.3069 13.8615 13.272 13.8747 13.2395C13.8879 13.2069 13.9076 13.1773 13.9327 13.1524C13.9578 13.1275 13.9877 13.1079 14.0208 13.0946L14.255 12.9922L14.0991 12.8722C14.0449 12.8287 14.0102 12.7662 14.0023 12.698C13.9945 12.6299 14.0141 12.5615 14.0571 12.5076C14.1001 12.4537 14.1629 12.4185 14.2322 12.4097C14.3014 12.4009 14.3716 12.419 14.4275 12.4603L14.8059 12.7514L15.269 12.549C15.2363 12.361 15.2563 12.168 15.3269 11.9907L14.9152 11.6978L14.4851 11.9047C14.4219 11.9336 14.3496 11.937 14.2836 11.9142C14.2176 11.8913 14.1633 11.844 14.1323 11.7824C14.1013 11.7209 14.0961 11.6499 14.1178 11.5848C14.1395 11.5197 14.1864 11.4656 14.2483 11.4342L14.4255 11.3488L14.2172 11.2007C14.1598 11.1598 14.1212 11.0983 14.1098 11.0296C14.0985 10.9609 14.1154 10.8907 14.1568 10.8345C14.1983 10.7783 14.2608 10.7406 14.3308 10.7297C14.4007 10.7189 14.4722 10.7357 14.5297 10.7766L14.7379 10.9249L14.7651 10.7328C14.7749 10.664 14.8122 10.602 14.8687 10.5603C14.8967 10.5397 14.9286 10.5247 14.9625 10.5162C14.9965 10.5077 15.0318 10.5058 15.0665 10.5107C15.1013 10.5156 15.1347 10.5272 15.1649 10.5447C15.1951 10.5623 15.2216 10.5855 15.2427 10.6131C15.2638 10.6406 15.2792 10.672 15.288 10.7053C15.2968 10.7387 15.2988 10.7734 15.294 10.8075L15.2276 11.2737L15.6396 11.5672C15.7888 11.4459 15.9691 11.367 16.161 11.3389L16.2124 10.8432L15.8131 10.5805C15.7542 10.5417 15.7133 10.4816 15.6994 10.4134C15.6855 10.3452 15.6997 10.2745 15.739 10.2168C15.7783 10.1591 15.8394 10.1192 15.9088 10.1058C15.9782 10.0925 16.0503 10.1067 16.1092 10.1455L16.2736 10.2537L16.2996 10.003C16.3067 9.93388 16.3416 9.87049 16.3965 9.82679C16.4514 9.78308 16.5218 9.76263 16.5922 9.76994ZM16.2678 12.8973C16.4086 12.9119 16.5495 12.871 16.6592 12.7836C16.769 12.6962 16.8387 12.5694 16.853 12.4312C16.8674 12.2929 16.8252 12.1545 16.7357 12.0465C16.6462 11.9384 16.5168 11.8694 16.3759 11.8548C16.235 11.8402 16.0942 11.8811 15.9845 11.9685C15.8747 12.0559 15.805 12.1827 15.7907 12.3209C15.7763 12.4592 15.8185 12.5976 15.908 12.7056C15.9975 12.8137 16.1269 12.8827 16.2678 12.8973Z" fill="#20202E"/>
</svg>
