<svg width="19" height="14" viewBox="0 0 19 14" fill="none" xmlns="http://www.w3.org/2000/svg">
<path fill-rule="evenodd" clip-rule="evenodd" d="M16.497 13.201C16.4345 13.2062 16.3722 13.1848 16.324 13.1413C16.2758 13.0979 16.2456 13.0361 16.24 12.9694L16.2198 12.7276L16.0727 12.8275C16.02 12.8633 15.9559 12.8751 15.8944 12.8605C15.833 12.8459 15.7792 12.8059 15.7451 12.7495C15.7109 12.693 15.699 12.6246 15.7121 12.5593C15.7252 12.4941 15.7622 12.4373 15.8149 12.4015L16.1723 12.159L16.1323 11.681C15.9597 11.6488 15.8015 11.5669 15.6722 11.4484L15.3033 11.7199L15.3569 12.17C15.3648 12.2365 15.3476 12.3032 15.3092 12.3557C15.2707 12.4081 15.214 12.4419 15.1517 12.4497C15.0893 12.4574 15.0264 12.4384 14.9767 12.3969C14.927 12.3554 14.8946 12.2948 14.8867 12.2283L14.8648 12.0429L14.6783 12.1802C14.6529 12.1992 14.6241 12.2126 14.5936 12.2197C14.5632 12.2268 14.5316 12.2274 14.5009 12.2214C14.4701 12.2154 14.4406 12.2031 14.4142 12.185C14.3878 12.1669 14.365 12.1435 14.347 12.1161C14.329 12.0887 14.3163 12.0579 14.3095 12.0253C14.3028 11.9928 14.3021 11.9592 14.3076 11.9266C14.3131 11.8939 14.3246 11.8628 14.3415 11.835C14.3583 11.8072 14.3803 11.7833 14.4059 11.7646L14.5924 11.6275L14.4362 11.5409C14.4085 11.5255 14.3838 11.5045 14.3636 11.4791C14.3434 11.4537 14.3281 11.4243 14.3185 11.3927C14.3089 11.3611 14.3052 11.3279 14.3077 11.2949C14.3102 11.2619 14.3187 11.2298 14.3329 11.2005C14.347 11.1711 14.3665 11.1451 14.3902 11.1239C14.4138 11.1027 14.4413 11.0867 14.4709 11.0768C14.5005 11.0669 14.5317 11.0634 14.5627 11.0663C14.5937 11.0693 14.6239 11.0787 14.6517 11.0941L15.0309 11.3043L15.3996 11.0331C15.3389 10.8607 15.3233 10.6745 15.3546 10.4944L14.9459 10.2879L14.6068 10.5582C14.5568 10.5981 14.4937 10.6151 14.4314 10.6053C14.3692 10.5956 14.3128 10.5599 14.2748 10.5063C14.2368 10.4526 14.2202 10.3853 14.2287 10.3191C14.2372 10.2529 14.2701 10.1933 14.3201 10.1534L14.4596 10.0423L14.2532 9.93782C14.2247 9.9237 14.1992 9.90376 14.1779 9.87916C14.1566 9.85456 14.1401 9.82578 14.1293 9.79447C14.1185 9.76316 14.1135 9.72995 14.1148 9.69674C14.1161 9.66353 14.1235 9.63099 14.1366 9.60098C14.1498 9.57097 14.1684 9.54409 14.1915 9.52189C14.2145 9.49969 14.2415 9.4826 14.2709 9.47161C14.3003 9.46062 14.3315 9.45595 14.3627 9.45786C14.3939 9.45977 14.4245 9.46823 14.4527 9.48275L14.6592 9.58698L14.6502 9.40068C14.647 9.33385 14.6689 9.26868 14.711 9.2195C14.7531 9.17031 14.812 9.14115 14.8747 9.13841C14.9375 9.13568 14.999 9.15961 15.0456 9.20493C15.0923 9.25025 15.1203 9.31325 15.1236 9.38008L15.1455 9.83282L15.5544 10.0393C15.6621 9.90123 15.8048 9.79388 15.9694 9.73354L15.9294 9.25548L15.5368 9.07571C15.4789 9.04917 15.433 8.99934 15.4092 8.93717C15.3854 8.87501 15.3858 8.80561 15.4101 8.74423C15.4344 8.68285 15.4808 8.63453 15.5389 8.6099C15.5971 8.58526 15.6623 8.58633 15.7203 8.61287L15.8819 8.68693L15.8617 8.44513C15.8561 8.37847 15.8756 8.31246 15.9159 8.26162C15.9562 8.21078 16.014 8.17928 16.0766 8.17405C16.1392 8.16881 16.2015 8.19027 16.2497 8.23371C16.2979 8.27715 16.3281 8.339 16.3336 8.40566L16.3539 8.64746L16.5009 8.54758C16.527 8.52986 16.5562 8.51782 16.5868 8.51215C16.6174 8.50648 16.6488 8.50729 16.6792 8.51453C16.7097 8.52178 16.7385 8.53531 16.7642 8.55437C16.7898 8.57342 16.8117 8.59763 16.8286 8.62559C16.8455 8.65356 16.8572 8.68474 16.8628 8.71736C16.8685 8.74998 16.868 8.7834 16.8615 8.81571C16.8551 8.84802 16.8426 8.87858 16.825 8.90566C16.8074 8.93273 16.7848 8.95579 16.7587 8.97351L16.4014 9.216L16.4414 9.69407C16.6113 9.72596 16.7704 9.80647 16.9014 9.92692L17.2703 9.65511L17.2168 9.20501C17.2129 9.17212 17.2151 9.1388 17.2233 9.10695C17.2315 9.0751 17.2455 9.04534 17.2646 9.01939C17.2837 8.99343 17.3074 8.97178 17.3344 8.95567C17.3615 8.93956 17.3913 8.92931 17.4221 8.9255C17.453 8.92168 17.4843 8.92439 17.5144 8.93346C17.5444 8.94252 17.5725 8.95777 17.5971 8.97834C17.6217 8.9989 17.6423 9.02438 17.6577 9.05331C17.6731 9.08224 17.6831 9.11407 17.687 9.14696L17.7089 9.33217L17.8954 9.19509C17.9207 9.17514 17.9497 9.16086 17.9805 9.15309C18.0113 9.14533 18.0433 9.14424 18.0746 9.14988C18.1059 9.15553 18.1359 9.1678 18.1628 9.18596C18.1897 9.20413 18.213 9.22782 18.2312 9.25563C18.2495 9.28344 18.2623 9.31481 18.269 9.34787C18.2757 9.38094 18.2761 9.41502 18.2702 9.44811C18.2642 9.4812 18.2521 9.51262 18.2345 9.5405C18.2169 9.56838 18.1942 9.59216 18.1677 9.61043L17.9813 9.74777L18.1375 9.83443C18.1921 9.86624 18.2331 9.91944 18.2516 9.98262C18.2701 10.0458 18.2647 10.1139 18.2365 10.1723C18.2083 10.2308 18.1595 10.2749 18.1007 10.2952C18.042 10.3155 17.9778 10.3104 17.922 10.281L17.5427 10.0707L17.1741 10.3422C17.2347 10.5145 17.2503 10.7007 17.2191 10.8806L17.6277 11.0869L17.9668 10.8168C18.0169 10.7785 18.0794 10.7628 18.1407 10.7731C18.2021 10.7834 18.2574 10.8188 18.295 10.8717C18.3325 10.9246 18.3491 10.9909 18.3414 11.0563C18.3336 11.1217 18.3021 11.1809 18.2535 11.2214L18.1138 11.3328L18.3205 11.437C18.3775 11.4658 18.4217 11.5174 18.4433 11.5804C18.4649 11.6435 18.4622 11.7128 18.4357 11.7732C18.4092 11.8336 18.3612 11.8801 18.3022 11.9024C18.2432 11.9247 18.178 11.9211 18.1209 11.8923L17.9142 11.7878L17.9234 11.9744C17.9267 12.0412 17.9048 12.1064 17.8627 12.1556C17.8419 12.1799 17.8167 12.1996 17.7886 12.2135C17.7605 12.2274 17.73 12.2353 17.6989 12.2366C17.6679 12.238 17.6368 12.2328 17.6074 12.2214C17.5781 12.21 17.5511 12.1926 17.528 12.1701C17.5049 12.1477 17.4861 12.1207 17.4728 12.0906C17.4594 12.0606 17.4517 12.0281 17.4501 11.995L17.4282 11.5422L17.0192 11.3355C16.91 11.476 16.7666 11.5818 16.6043 11.6415L16.6442 12.1196L17.0369 12.2993C17.0948 12.3259 17.1407 12.3757 17.1645 12.4379C17.1882 12.5 17.1879 12.5694 17.1636 12.6308C17.1393 12.6922 17.0929 12.7405 17.0347 12.7652C16.9766 12.7898 16.9113 12.7887 16.8534 12.7622L16.6918 12.6881L16.712 12.9299C16.7176 12.9966 16.6981 13.0626 16.6578 13.1134C16.6174 13.1643 16.5596 13.1958 16.497 13.201ZM16.2448 10.1848C16.1196 10.1953 16.004 10.2583 15.9234 10.36C15.8427 10.4617 15.8037 10.5937 15.8149 10.727C15.826 10.8603 15.8864 10.984 15.9828 11.0709C16.0792 11.1578 16.2037 11.2007 16.3289 11.1902C16.4541 11.1798 16.5697 11.1167 16.6503 11.0151C16.7309 10.9134 16.77 10.7814 16.7588 10.6481C16.7477 10.5147 16.6872 10.391 16.5908 10.3042C16.4944 10.2173 16.37 10.1744 16.2448 10.1848Z" fill="#EAE4D8"/>
<path fill-rule="evenodd" clip-rule="evenodd" d="M11.2672 9.33348C11.1578 9.34263 11.0493 9.30739 10.9654 9.23551C10.8815 9.16363 10.8292 9.061 10.8199 8.95021L10.7863 8.54832L10.5287 8.71542C10.4364 8.7753 10.3242 8.79552 10.217 8.77163C10.1098 8.74774 10.0162 8.6817 9.95688 8.58803C9.89757 8.49436 9.87736 8.38074 9.90071 8.27217C9.92407 8.16359 9.98906 8.06895 10.0814 8.00907L10.7073 7.60335L10.6408 6.80877C10.3396 6.75656 10.0638 6.62145 9.83891 6.42529L9.19261 6.87941L9.28298 7.62739C9.29635 7.73779 9.26588 7.84895 9.19828 7.93642C9.13069 8.02388 9.0315 8.08049 8.92254 8.09379C8.81359 8.10708 8.70378 8.07598 8.61729 8.00732C8.5308 7.93866 8.4747 7.83806 8.46134 7.72766L8.42435 7.41945L8.09768 7.64912C8.0531 7.68091 8.00273 7.70343 7.94948 7.7154C7.89622 7.72737 7.84113 7.72855 7.78738 7.71886C7.73363 7.70918 7.68228 7.68882 7.63628 7.65897C7.59029 7.62912 7.55056 7.59035 7.51938 7.54492C7.4882 7.49948 7.46618 7.44826 7.4546 7.39421C7.44303 7.34016 7.44211 7.28435 7.45191 7.22999C7.46171 7.17563 7.48204 7.12379 7.51171 7.07746C7.54139 7.03114 7.57983 6.99123 7.62483 6.96005L7.95153 6.7308L7.67923 6.58782C7.63093 6.56247 7.588 6.52774 7.55291 6.48562C7.51782 6.44349 7.49125 6.3948 7.47471 6.34231C7.45818 6.28982 7.452 6.23458 7.45654 6.17972C7.46108 6.12486 7.47624 6.07147 7.50116 6.02259C7.52609 5.97372 7.56028 5.93031 7.60179 5.89486C7.6433 5.8594 7.69131 5.83259 7.74309 5.81596C7.79487 5.79932 7.8494 5.79319 7.90356 5.7979C7.95773 5.80262 8.01047 5.81809 8.05877 5.84344L8.71975 6.19034L9.36568 5.73667C9.26082 5.45052 9.23493 5.141 9.29081 4.84141L8.57846 4.50092L7.98429 4.95278C7.89659 5.01947 7.78625 5.04808 7.67755 5.03232C7.56885 5.01656 7.47069 4.95772 7.40467 4.86874C7.33864 4.77976 7.31015 4.66794 7.32548 4.55786C7.3408 4.44779 7.39867 4.34848 7.48637 4.28179L7.73076 4.09602L7.37089 3.92377C7.32134 3.90049 7.27681 3.86753 7.23985 3.82677C7.20289 3.78602 7.17424 3.73828 7.15554 3.6863C7.13685 3.63432 7.12848 3.57913 7.13092 3.52391C7.13336 3.46869 7.14656 3.41453 7.16976 3.36454C7.19296 3.31456 7.2257 3.26973 7.2661 3.23265C7.3065 3.19558 7.35375 3.16697 7.40515 3.14849C7.45654 3.13002 7.51106 3.12202 7.56556 3.12498C7.62007 3.12794 7.67348 3.14179 7.72272 3.16573L8.08256 3.33756L8.06828 3.02787C8.06312 2.91679 8.10173 2.80827 8.17562 2.7262C8.2495 2.64412 8.35261 2.59521 8.46227 2.59023C8.57192 2.58524 8.67913 2.62459 8.76031 2.69961C8.8415 2.77463 8.89001 2.87918 8.89517 2.99027L8.93029 3.74287L9.64305 4.08333C9.83222 3.85296 10.0821 3.67347 10.3701 3.57198L10.3037 2.7774L9.6191 2.48128C9.51809 2.43756 9.43828 2.35504 9.39722 2.25185C9.35616 2.14866 9.35721 2.03326 9.40014 1.93104C9.44307 1.82882 9.52437 1.74815 9.62615 1.70678C9.72793 1.66541 9.84186 1.66672 9.94286 1.71043L10.2246 1.83243L10.191 1.43054C10.1817 1.31974 10.2163 1.20985 10.2871 1.12504C10.3579 1.04023 10.4591 0.987444 10.5684 0.978298C10.6778 0.969152 10.7863 1.00439 10.8702 1.07627C10.9541 1.14815 11.0064 1.25077 11.0157 1.36157L11.0493 1.76346L11.3069 1.59636C11.3526 1.56671 11.4037 1.54648 11.4571 1.53684C11.5106 1.52719 11.5655 1.52832 11.6186 1.54015C11.6717 1.55198 11.722 1.57428 11.7666 1.60578C11.8112 1.63728 11.8493 1.67737 11.8787 1.72375C11.9081 1.77013 11.9282 1.82189 11.9378 1.87609C11.9474 1.93029 11.9464 1.98585 11.9349 2.03961C11.9233 2.09338 11.9014 2.14428 11.8704 2.18942C11.8394 2.23457 11.7999 2.27306 11.7542 2.30271L11.1283 2.70843L11.1948 3.50301C11.4914 3.55484 11.7687 3.68756 11.9967 3.88691L12.643 3.43237L12.5526 2.68439C12.546 2.62972 12.5501 2.5743 12.5647 2.52128C12.5792 2.46827 12.604 2.4187 12.6375 2.37541C12.6709 2.33212 12.7125 2.29596 12.7599 2.26898C12.8072 2.242 12.8593 2.22474 12.9133 2.21819C12.9672 2.21163 13.0219 2.21591 13.0743 2.23077C13.1267 2.24563 13.1757 2.27079 13.2185 2.30481C13.2613 2.33883 13.2971 2.38104 13.3238 2.42903C13.3505 2.47703 13.3677 2.52987 13.3743 2.58453L13.4112 2.89233L13.7379 2.66308C13.7824 2.62973 13.8331 2.60578 13.8869 2.59266C13.9407 2.57953 13.9966 2.57749 14.0513 2.58665C14.106 2.59582 14.1583 2.61601 14.2052 2.64602C14.252 2.67603 14.2925 2.71525 14.3242 2.76137C14.3558 2.80748 14.378 2.85954 14.3895 2.91447C14.4009 2.96939 14.4014 3.02606 14.3908 3.08112C14.3802 3.13618 14.3588 3.1885 14.3279 3.23498C14.297 3.28147 14.2572 3.32117 14.2108 3.35173L13.8841 3.5814L14.1564 3.72438C14.2516 3.77688 14.3228 3.86505 14.3546 3.96996C14.3865 4.07487 14.3765 4.18816 14.3268 4.28553C14.2772 4.38289 14.1917 4.45657 14.0889 4.49074C13.9861 4.52492 13.874 4.51688 13.7768 4.46834L13.1158 4.12144L12.4699 4.57553C12.5747 4.86155 12.6006 5.17092 12.5448 5.47037L13.2571 5.81044L13.8513 5.359C13.9391 5.29498 14.0483 5.26844 14.1553 5.28506C14.2624 5.30168 14.3589 5.36015 14.424 5.44791C14.4892 5.53567 14.5179 5.64573 14.5039 5.75448C14.4899 5.86322 14.4343 5.96199 14.3492 6.02957L14.1044 6.21579L14.4647 6.38759C14.5641 6.43506 14.6408 6.52055 14.6781 6.62524C14.7154 6.72992 14.7102 6.84524 14.6635 6.94582C14.6169 7.0464 14.5327 7.124 14.4294 7.16155C14.3261 7.1991 14.2123 7.19353 14.1129 7.14605L13.7526 6.97384L13.7673 7.28391C13.7725 7.39499 13.7339 7.50351 13.66 7.58558C13.6234 7.62622 13.5792 7.65915 13.5301 7.68248C13.4809 7.70581 13.4276 7.71908 13.3733 7.72155C13.319 7.72402 13.2648 7.71563 13.2136 7.69687C13.1625 7.6781 13.1155 7.64932 13.0753 7.61217C13.0351 7.57503 13.0025 7.53024 12.9793 7.48037C12.9562 7.43049 12.943 7.37652 12.9404 7.32151L12.9053 6.56891L12.1925 6.22803C12.0007 6.46249 11.7494 6.63942 11.4655 6.7398L11.5319 7.53438L12.2165 7.8305C12.3175 7.87422 12.3973 7.95674 12.4384 8.05993C12.4794 8.16312 12.4784 8.27852 12.4354 8.38074C12.3925 8.48296 12.3112 8.56363 12.2094 8.605C12.1077 8.64637 11.9937 8.64506 11.8927 8.60134L11.611 8.47935L11.6446 8.88124C11.6538 8.99203 11.6193 9.10193 11.5485 9.18674C11.4777 9.27155 11.3765 9.32434 11.2672 9.33348ZM10.8479 4.32037C10.6292 4.33866 10.4268 4.44423 10.2853 4.61386C10.1437 4.78348 10.0746 5.00327 10.0931 5.22486C10.1117 5.44645 10.2163 5.6517 10.3841 5.79546C10.5518 5.93922 10.769 6.0097 10.9877 5.99141C11.2064 5.97312 11.4088 5.86755 11.5503 5.69792C11.6919 5.5283 11.761 5.30851 11.7425 5.08692C11.7239 4.86533 11.6193 4.66008 11.4515 4.51632C11.2838 4.37256 11.0666 4.30208 10.8479 4.32037Z" fill="#EAE4D8"/>
<path fill-rule="evenodd" clip-rule="evenodd" d="M2.77825 6.41826C2.70768 6.42416 2.63769 6.40231 2.5837 6.35752C2.5297 6.31273 2.49611 6.24866 2.49032 6.17941L2.46932 5.92824L2.30285 6.03313C2.24317 6.07072 2.1708 6.08355 2.10165 6.0688C2.0325 6.05404 1.97225 6.01291 1.93413 5.95446C1.89602 5.896 1.88318 5.82501 1.89843 5.75709C1.91368 5.68918 1.95577 5.62991 2.01545 5.59232L2.41992 5.33763L2.37839 4.84102C2.18412 4.80889 2.00641 4.72489 1.86167 4.60264L1.44392 4.88762L1.50097 5.35506C1.50941 5.42406 1.48956 5.4936 1.4458 5.54839C1.40204 5.60318 1.33796 5.63874 1.26764 5.64723C1.19732 5.65573 1.12653 5.63647 1.07084 5.59369C1.01515 5.55091 0.979131 5.48812 0.970696 5.41913L0.947353 5.22652L0.736204 5.37065C0.707387 5.39059 0.674853 5.40476 0.640475 5.41233C0.606097 5.4199 0.570554 5.42073 0.535891 5.41477C0.501229 5.4088 0.468133 5.39617 0.438508 5.37758C0.408883 5.359 0.383314 5.33483 0.363273 5.30648C0.343233 5.27813 0.329117 5.24615 0.321738 5.21238C0.314359 5.17861 0.313863 5.14372 0.320278 5.10972C0.326694 5.07572 0.339894 5.04328 0.359118 5.01427C0.378342 4.98526 0.403211 4.96025 0.432294 4.94068L0.643465 4.79681L0.468024 4.70789C0.436901 4.69213 0.409266 4.67049 0.386697 4.64421C0.364128 4.61794 0.347067 4.58754 0.336487 4.55476C0.325908 4.52198 0.322018 4.48745 0.325038 4.45315C0.328059 4.41885 0.337932 4.38544 0.354093 4.35485C0.370254 4.32425 0.392386 4.29706 0.419228 4.27482C0.446068 4.25259 0.477092 4.23575 0.510526 4.22526C0.543961 4.21477 0.579152 4.21085 0.61409 4.2137C0.649028 4.21656 0.683029 4.22615 0.714152 4.24191L1.14001 4.45765L1.55752 4.17296C1.49035 3.99425 1.47417 3.8008 1.51072 3.61342L1.05171 3.40177L0.667596 3.68525C0.610903 3.72709 0.53967 3.74516 0.469566 3.73549C0.399462 3.72582 0.33623 3.68921 0.293781 3.63369C0.251332 3.57818 0.233142 3.50832 0.243214 3.43948C0.253286 3.37064 0.290794 3.30847 0.347486 3.26663L0.505476 3.15008L0.273587 3.04301C0.241657 3.02854 0.21298 3.00801 0.189203 2.98259C0.165427 2.95718 0.147022 2.92738 0.135048 2.89492C0.123074 2.86246 0.117769 2.82797 0.119436 2.79345C0.121104 2.75892 0.129711 2.72504 0.144763 2.69375C0.159816 2.66247 0.181016 2.63439 0.207142 2.61114C0.233269 2.5879 0.263806 2.56994 0.296996 2.5583C0.330186 2.54666 0.365373 2.54157 0.400532 2.54333C0.43569 2.54508 0.470125 2.55365 0.501855 2.56853L0.733723 2.67535L0.725036 2.48177C0.721894 2.41234 0.746987 2.34443 0.794796 2.293C0.842604 2.24157 0.909211 2.21082 0.979964 2.20752C1.05072 2.20421 1.11982 2.22863 1.17207 2.27539C1.22432 2.32216 1.25544 2.38743 1.25859 2.45687L1.27998 2.92729L1.73926 3.13892C1.8617 2.99459 2.02323 2.88196 2.2092 2.81803L2.16767 2.32142L1.72651 2.13746C1.66142 2.1103 1.61006 2.05884 1.58374 1.9944C1.55743 1.92997 1.5583 1.85782 1.58617 1.79385C1.61404 1.72988 1.66663 1.67931 1.73237 1.65328C1.7981 1.62724 1.8716 1.62787 1.93669 1.65503L2.11827 1.73081L2.09727 1.47964C2.09147 1.41039 2.11395 1.34163 2.15976 1.28849C2.20557 1.23535 2.27095 1.20219 2.34152 1.19628C2.41209 1.19038 2.48207 1.21223 2.53607 1.25702C2.59006 1.30181 2.62365 1.36588 2.62944 1.43513L2.65045 1.68631L2.81692 1.58141C2.84647 1.5628 2.87944 1.55007 2.91396 1.54395C2.94849 1.53783 2.98388 1.53844 3.01811 1.54575C3.05235 1.55305 3.08477 1.56691 3.11351 1.58653C3.14225 1.60614 3.16676 1.63114 3.18563 1.66008C3.2045 1.68903 3.21737 1.72135 3.22349 1.75522C3.22962 1.78908 3.22889 1.82382 3.22134 1.85745C3.21379 1.89108 3.19957 1.92294 3.17949 1.95121C3.15941 1.97948 3.13387 2.00361 3.10432 2.02223L2.69984 2.27691L2.74138 2.77352C2.93267 2.80542 3.11132 2.88792 3.25811 3.01216L3.67584 2.72692L3.6188 2.25948C3.61464 2.22531 3.61738 2.19066 3.62686 2.1575C3.63634 2.12433 3.65238 2.0933 3.67406 2.06618C3.69574 2.03906 3.72264 2.01638 3.75322 1.99944C3.78379 1.9825 3.81745 1.97162 3.85227 1.96743C3.88709 1.96324 3.92239 1.96582 3.95615 1.97502C3.98991 1.98423 4.02147 1.99987 4.04904 2.02106C4.0766 2.04226 4.09962 2.06859 4.11679 2.09855C4.13396 2.12851 4.14493 2.16151 4.14909 2.19567L4.17241 2.38802L4.38358 2.24416C4.41234 2.22324 4.44506 2.20818 4.47981 2.19988C4.51456 2.19158 4.55063 2.19021 4.58589 2.19585C4.62114 2.20149 4.65486 2.21402 4.68505 2.2327C4.71524 2.25139 4.74128 2.27584 4.76163 2.30461C4.78198 2.33339 4.79622 2.36589 4.80351 2.40021C4.81081 2.43453 4.811 2.46995 4.80408 2.50439C4.79717 2.53883 4.78328 2.57157 4.76325 2.60068C4.74322 2.62979 4.71745 2.65468 4.68747 2.67387L4.47632 2.81799L4.65176 2.90691C4.71309 2.93957 4.75886 2.99457 4.77924 3.0601C4.79962 3.12563 4.79299 3.19647 4.76078 3.25742C4.72857 3.31837 4.67333 3.36457 4.60693 3.38611C4.54053 3.40765 4.46825 3.40281 4.40561 3.37263L3.97975 3.15689L3.56227 3.44185C3.62939 3.62047 3.64556 3.81383 3.60904 4.00112L4.06804 4.21251L4.45217 3.92929C4.50893 3.88913 4.57939 3.87235 4.64845 3.88256C4.71751 3.89277 4.77965 3.92915 4.82154 3.98391C4.86343 4.03866 4.88173 4.10742 4.87252 4.17542C4.86331 4.24343 4.82731 4.30526 4.77226 4.34765L4.61402 4.46448L4.84616 4.57127C4.9102 4.60078 4.9596 4.65409 4.98349 4.71947C5.00737 4.78485 5.00378 4.85695 4.97352 4.9199C4.94325 4.98286 4.88878 5.03151 4.82209 5.05516C4.7554 5.07881 4.68196 5.07552 4.61791 5.04601L4.38575 4.93896L4.39473 5.13277C4.39787 5.2022 4.37278 5.27011 4.32497 5.32154C4.3013 5.34701 4.27276 5.36766 4.24099 5.38233C4.20922 5.397 4.17483 5.40539 4.1398 5.40702C4.10477 5.40866 4.06977 5.40351 4.03681 5.39186C4.00385 5.38021 3.97357 5.3623 3.94769 5.33915C3.92182 5.31599 3.90086 5.28805 3.88602 5.25691C3.87118 5.22578 3.86274 5.19205 3.86118 5.15767L3.83979 4.68725L3.38049 4.47536C3.25636 4.62225 3.0939 4.73328 2.91057 4.79651L2.9521 5.29312L3.39326 5.47709C3.45835 5.50424 3.5097 5.5557 3.53602 5.62014C3.56234 5.68458 3.56147 5.75672 3.53359 5.82069C3.50572 5.88467 3.45313 5.93523 3.3874 5.96127C3.32166 5.9873 3.24816 5.98667 3.18307 5.95951L3.00149 5.88373L3.0225 6.13491C3.02829 6.20415 3.00581 6.27291 2.96 6.32605C2.9142 6.37919 2.84882 6.41236 2.77825 6.41826ZM2.51621 3.28507C2.37507 3.29688 2.24431 3.36322 2.15269 3.46949C2.06108 3.57577 2.01612 3.71328 2.0277 3.85178C2.03929 3.99027 2.10646 4.11841 2.21446 4.20799C2.32245 4.29758 2.46241 4.34127 2.60356 4.32947C2.7447 4.31766 2.87546 4.25133 2.96707 4.14505C3.05868 4.03877 3.10364 3.90126 3.09206 3.76276C3.08048 3.62427 3.0133 3.49613 2.90531 3.40655C2.79731 3.31697 2.65735 3.27327 2.51621 3.28507Z" fill="#EAE4D8"/>
</svg>
