<svg width="21" height="16" viewBox="0 0 21 16" fill="none" xmlns="http://www.w3.org/2000/svg">
<path fill-rule="evenodd" clip-rule="evenodd" d="M4.37181 0.557252C4.43428 0.563733 4.49146 0.59638 4.53075 0.648012C4.57004 0.699643 4.58824 0.76603 4.58134 0.832567L4.5563 1.07391L4.71935 1.00309C4.7778 0.977713 4.84304 0.977944 4.90071 1.00373C4.95837 1.02952 5.00375 1.07876 5.02685 1.14061C5.04996 1.20245 5.0489 1.27185 5.0239 1.33353C4.99891 1.39521 4.95203 1.44411 4.89357 1.46949L4.49742 1.6414L4.44792 2.11857C4.61155 2.18221 4.75181 2.2921 4.85675 2.43257L5.26969 2.23425L5.30065 1.78204C5.30521 1.71529 5.33448 1.65286 5.38204 1.60848C5.4296 1.5641 5.49154 1.5414 5.55424 1.54538C5.61694 1.54937 5.67526 1.5797 5.71637 1.62971C5.75748 1.67973 5.77802 1.74532 5.77346 1.81207L5.76056 1.99838L5.9693 1.89806C5.99783 1.88411 6.0286 1.87626 6.05985 1.87497C6.09109 1.87368 6.12218 1.87898 6.15134 1.89055C6.18049 1.90212 6.20713 1.91975 6.22972 1.9424C6.25232 1.96506 6.27041 1.99231 6.28297 2.02257C6.29553 2.05283 6.30231 2.08552 6.30291 2.11875C6.30351 2.15197 6.29792 2.18508 6.28647 2.21617C6.27502 2.24725 6.25793 2.2757 6.23618 2.29987C6.21444 2.32405 6.18847 2.34347 6.15976 2.35702L5.95106 2.45709L6.08849 2.57125C6.11288 2.5915 6.13321 2.61671 6.14833 2.64544C6.16345 2.67417 6.17306 2.70586 6.17662 2.7387C6.18018 2.77154 6.17761 2.80488 6.16906 2.83684C6.16051 2.86879 6.14615 2.89872 6.1268 2.92491C6.10745 2.95111 6.08349 2.97307 6.05628 2.98952C6.02907 3.00598 5.99915 3.01661 5.96823 3.02082C5.9373 3.02503 5.90598 3.02273 5.87605 3.01405C5.84612 3.00538 5.81816 2.99049 5.79378 2.97024L5.46016 2.69321L5.04749 2.8913C5.07515 3.07194 5.05587 3.25782 4.99171 3.42893L5.35491 3.70777L5.73829 3.50512C5.79488 3.47521 5.86003 3.47028 5.9194 3.49142C5.97878 3.51256 6.02753 3.55804 6.05492 3.61784C6.0823 3.67765 6.08609 3.74688 6.06545 3.81032C6.0448 3.87376 6.00141 3.9262 5.94483 3.95611L5.78714 4.0394L5.9706 4.18041C5.99591 4.19956 6.01734 4.2239 6.03366 4.25202C6.04998 4.28015 6.06087 4.3115 6.06569 4.34427C6.07052 4.37705 6.06919 4.4106 6.06178 4.44299C6.05438 4.47539 6.04104 4.50599 6.02253 4.53303C6.00403 4.56007 5.98072 4.58302 5.95396 4.60056C5.9272 4.61809 5.89751 4.62987 5.8666 4.63521C5.83569 4.64056 5.80417 4.63935 5.77386 4.63168C5.74355 4.624 5.71504 4.61001 5.68998 4.59049L5.50649 4.44974L5.48066 4.63446C5.47142 4.70072 5.43786 4.7607 5.38735 4.80121C5.33685 4.84172 5.27354 4.85943 5.21136 4.85046C5.14918 4.84149 5.09322 4.80656 5.05578 4.75336C5.01835 4.70016 5.00251 4.63305 5.01175 4.56679L5.07428 4.11785L4.71085 3.83899C4.57933 3.95468 4.41924 4.03367 4.24627 4.06238L4.19676 4.53955L4.54919 4.78912C4.60119 4.82595 4.63703 4.88344 4.64883 4.94894C4.66063 5.01443 4.64743 5.08257 4.61212 5.13836C4.57681 5.19415 4.52229 5.23302 4.46056 5.24642C4.39883 5.25982 4.33493 5.24666 4.28293 5.20982L4.13789 5.10704L4.11285 5.34838C4.10595 5.41492 4.07451 5.47616 4.02546 5.51863C3.9764 5.56109 3.91375 5.58131 3.85128 5.57483C3.78881 5.56835 3.73164 5.5357 3.69234 5.48407C3.65305 5.43244 3.63485 5.36605 3.64176 5.29951L3.6668 5.05817L3.50374 5.12899C3.4748 5.14155 3.44389 5.14797 3.41277 5.14785C3.38165 5.14774 3.35094 5.14111 3.32239 5.12834C3.29383 5.11558 3.26799 5.09692 3.24635 5.07343C3.22471 5.04995 3.20768 5.0221 3.19624 4.99147C3.1848 4.96085 3.17917 4.92805 3.17968 4.89495C3.18019 4.86185 3.18682 4.82909 3.19919 4.79855C3.21157 4.76801 3.22945 4.74028 3.25181 4.71696C3.27417 4.69363 3.30058 4.67515 3.32952 4.66259L3.72567 4.49068L3.77517 4.01351C3.6141 3.9506 3.47276 3.84196 3.36636 3.69926L2.9534 3.89783L2.92244 4.35004C2.92017 4.38309 2.91181 4.41542 2.89783 4.44519C2.88385 4.47497 2.86453 4.50159 2.84097 4.52356C2.81741 4.54552 2.79008 4.56239 2.76053 4.5732C2.73098 4.58401 2.69979 4.58855 2.66875 4.58656C2.63771 4.58457 2.60741 4.57609 2.5796 4.56161C2.55179 4.54712 2.52701 4.52692 2.50666 4.50214C2.48632 4.47737 2.47081 4.44851 2.46103 4.41722C2.45125 4.38592 2.44738 4.35281 2.44965 4.31976L2.46253 4.1337L2.25382 4.23377C2.22518 4.24865 2.19409 4.25731 2.16239 4.25922C2.1307 4.26113 2.09905 4.25626 2.06933 4.2449C2.0396 4.23353 2.01239 4.2159 1.98933 4.19306C1.96627 4.17021 1.94781 4.14261 1.93505 4.1119C1.9223 4.08118 1.9155 4.04797 1.91507 4.01424C1.91464 3.98051 1.92058 3.94695 1.93255 3.91554C1.94451 3.88412 1.96225 3.8555 1.98471 3.83137C2.00718 3.80724 2.03391 3.78809 2.06333 3.77506L2.27206 3.67474L2.13462 3.56057C2.08685 3.51917 2.05649 3.45929 2.05004 3.39377C2.0436 3.32826 2.06159 3.26234 2.10016 3.21016C2.13873 3.15797 2.19479 3.12368 2.25633 3.11465C2.31787 3.10562 2.37997 3.12256 2.42931 3.16184L2.76293 3.43887L3.17563 3.24053C3.148 3.05997 3.16728 2.87418 3.23138 2.70315L2.86816 2.42456L2.4848 2.62696C2.42845 2.65528 2.36419 2.65911 2.30582 2.63763C2.24744 2.61616 2.19961 2.57109 2.17258 2.5121C2.14554 2.45311 2.14147 2.3849 2.16122 2.32211C2.18098 2.25931 2.22299 2.20694 2.27824 2.17622L2.43618 2.0927L2.25246 1.95192C2.20178 1.91304 2.16796 1.85413 2.15844 1.78816C2.14892 1.72219 2.16448 1.65455 2.2017 1.60014C2.23892 1.54573 2.29474 1.50899 2.3569 1.49801C2.41905 1.48703 2.48244 1.5027 2.53312 1.54159L2.71681 1.68261L2.74243 1.49762C2.75167 1.43136 2.78524 1.37138 2.83574 1.33087C2.86075 1.31081 2.88916 1.29614 2.91936 1.28769C2.94955 1.27924 2.98094 1.27718 3.01173 1.28162C3.04252 1.28606 3.07211 1.29692 3.0988 1.31358C3.12549 1.33024 3.14877 1.35238 3.16731 1.37872C3.18584 1.40506 3.19927 1.43509 3.20683 1.4671C3.21438 1.49912 3.21591 1.53248 3.21134 1.56529L3.14881 2.01423L3.51222 2.29334C3.64564 2.17552 3.80627 2.0982 3.97683 2.0697L4.02633 1.59253L3.6739 1.34296C3.62191 1.30612 3.58607 1.24864 3.57426 1.18314C3.56246 1.11765 3.57567 1.04951 3.61097 0.993719C3.64628 0.93793 3.7008 0.899059 3.76253 0.885657C3.82427 0.872254 3.88816 0.885419 3.94016 0.922254L4.0852 1.02504L4.11024 0.783694C4.11714 0.717157 4.14858 0.65592 4.19763 0.613453C4.24669 0.570987 4.30934 0.550771 4.37181 0.557252ZM4.05949 3.5678C4.18444 3.58076 4.30974 3.54033 4.40785 3.45539C4.50596 3.37046 4.56884 3.24799 4.58264 3.11491C4.59645 2.98184 4.56005 2.84906 4.48147 2.7458C4.40288 2.64254 4.28854 2.57724 4.1636 2.56428C4.03866 2.55132 3.91335 2.59175 3.81524 2.67669C3.71713 2.76162 3.65426 2.88409 3.64045 3.01717C3.62664 3.15024 3.66304 3.28301 3.74162 3.38628C3.82021 3.48954 3.93455 3.55484 4.05949 3.5678Z" fill="#EAE4D8"/>
<path fill-rule="evenodd" clip-rule="evenodd" d="M8.79241 5.32881C8.90157 5.34013 9.00169 5.39493 9.07076 5.48113C9.13984 5.56734 9.17219 5.6779 9.16072 5.78849L9.11911 6.18962L9.40324 6.07327C9.5051 6.03158 9.61902 6.03254 9.71996 6.07593C9.8209 6.11932 9.90057 6.20159 9.94146 6.30465C9.98235 6.4077 9.9811 6.5231 9.93799 6.62545C9.89488 6.7278 9.81343 6.80872 9.71158 6.85041L9.02126 7.13283L8.93898 7.92593C9.22529 8.03318 9.4712 8.21716 9.6557 8.45167L10.3751 8.12549L10.4252 7.37373C10.4326 7.26277 10.4832 7.15921 10.5658 7.08582C10.6485 7.01243 10.7565 6.97523 10.866 6.9824C10.9755 6.98957 11.0777 7.04053 11.1499 7.12406C11.2221 7.20759 11.2586 7.31685 11.2512 7.42781L11.2303 7.73753L11.5939 7.57253C11.6436 7.54957 11.6973 7.53679 11.7519 7.53492C11.8064 7.53305 11.8608 7.54213 11.9118 7.56163C11.9628 7.58113 12.0095 7.61067 12.0491 7.64854C12.0888 7.68642 12.1206 7.73189 12.1428 7.78233C12.165 7.83276 12.1771 7.88718 12.1785 7.94244C12.1798 7.9977 12.1704 8.05271 12.1506 8.1043C12.1309 8.1559 12.1013 8.20306 12.0635 8.24307C12.0258 8.28308 11.9806 8.31515 11.9306 8.33743L11.567 8.50202L11.808 8.69308C11.8507 8.72696 11.8865 8.76906 11.9131 8.81697C11.9398 8.86488 11.9569 8.91766 11.9634 8.9723C11.9699 9.02695 11.9657 9.08238 11.951 9.13544C11.9364 9.1885 11.9115 9.23815 11.878 9.28154C11.8444 9.32494 11.8028 9.36124 11.7554 9.38837C11.708 9.4155 11.6559 9.43292 11.6019 9.43965C11.5479 9.44638 11.4932 9.44228 11.4409 9.42759C11.3885 9.4129 11.3396 9.38789 11.2968 9.35401L10.7117 8.8904L9.9928 9.2162C10.0427 9.51684 10.0106 9.8258 9.9001 10.1098L10.5368 10.5767L11.2046 10.243C11.3031 10.1938 11.4169 10.1861 11.5207 10.2218C11.6246 10.2575 11.7101 10.3335 11.7585 10.4332C11.8069 10.5329 11.8141 10.6481 11.7786 10.7534C11.7431 10.8587 11.6678 10.9456 11.5692 10.9948L11.2946 11.132L11.6162 11.368C11.6605 11.4001 11.6982 11.4408 11.7269 11.4877C11.7557 11.5346 11.775 11.5868 11.7837 11.6414C11.7924 11.6959 11.7904 11.7517 11.7777 11.8055C11.7651 11.8593 11.742 11.9101 11.71 11.9549C11.6779 11.9997 11.6374 12.0377 11.5908 12.0666C11.5442 12.0955 11.4925 12.1149 11.4385 12.1235C11.3846 12.1321 11.3295 12.1298 11.2765 12.1168C11.2235 12.1038 11.1736 12.0802 11.1297 12.0476L10.808 11.8119L10.7645 12.1188C10.749 12.2289 10.6909 12.3284 10.603 12.3953C10.5152 12.4622 10.4048 12.4912 10.2961 12.4757C10.1875 12.4602 10.0894 12.4017 10.0236 12.3129C9.95774 12.2241 9.92949 12.1123 9.94505 12.0022L10.0503 11.2562L9.41319 10.7893C9.18452 10.9805 8.90563 11.1104 8.60381 11.1567L8.52154 11.9498L9.13918 12.3679C9.23031 12.4296 9.29341 12.5255 9.31459 12.6345C9.33577 12.7436 9.31331 12.8568 9.25214 12.9492C9.19096 13.0417 9.0961 13.1059 8.9884 13.1276C8.88071 13.1494 8.76901 13.1269 8.67788 13.0652L8.42368 12.893L8.38207 13.2941C8.3706 13.4047 8.31623 13.5063 8.23094 13.5765C8.14564 13.6467 8.0364 13.6797 7.92724 13.6684C7.81809 13.6571 7.71796 13.6023 7.64889 13.5161C7.57982 13.4299 7.54746 13.3193 7.55893 13.2087L7.60055 12.8076L7.31641 12.9239C7.26598 12.9446 7.21205 12.955 7.15771 12.9545C7.10336 12.9541 7.04967 12.9428 6.99969 12.9213C6.94971 12.8998 6.90443 12.8685 6.86643 12.8293C6.82842 12.7901 6.79844 12.7436 6.77819 12.6926C6.75795 12.6415 6.74783 12.5869 6.74843 12.5319C6.74903 12.4769 6.76032 12.4224 6.78167 12.3718C6.80301 12.3211 6.83399 12.2751 6.87284 12.2365C6.91169 12.1979 6.95764 12.1674 7.00808 12.1468L7.6984 11.8644L7.78067 11.0713C7.49883 10.9653 7.25106 10.7834 7.064 10.5451L6.34455 10.8717L6.29443 11.6235C6.29076 11.6784 6.27643 11.7321 6.25228 11.7815C6.22813 11.8309 6.19462 11.875 6.15367 11.9113C6.11273 11.9476 6.06514 11.9755 6.01363 11.9932C5.96212 12.0109 5.90769 12.0182 5.85346 12.0146C5.79923 12.011 5.74625 11.9966 5.69756 11.9723C5.64886 11.948 5.6054 11.9142 5.56965 11.8728C5.53391 11.8314 5.50658 11.7833 5.48922 11.7312C5.47187 11.679 5.46483 11.6239 5.46851 11.569L5.48936 11.2597L5.12576 11.4243C5.07586 11.4488 5.02164 11.4629 4.96631 11.4658C4.91098 11.4687 4.85567 11.4603 4.80365 11.4412C4.75164 11.422 4.70398 11.3925 4.6635 11.3543C4.62302 11.3161 4.59054 11.27 4.568 11.2188C4.54545 11.1676 4.5333 11.1123 4.53225 11.0562C4.5312 11.0002 4.54129 10.9444 4.5619 10.8923C4.58252 10.8401 4.61325 10.7927 4.65227 10.7527C4.69129 10.7128 4.73781 10.6812 4.78907 10.6598L5.15272 10.4948L4.91171 10.3037C4.82792 10.2345 4.77436 10.1346 4.76254 10.0256C4.75071 9.9166 4.78156 9.80713 4.84845 9.72068C4.91535 9.63424 5.01296 9.57771 5.12035 9.56322C5.22774 9.54874 5.33634 9.57745 5.42285 9.6432L6.0079 10.1068L6.7269 9.7806C6.67707 9.4801 6.7091 9.1713 6.81956 8.88743L6.1828 8.42097L5.51508 8.7542C5.41691 8.8008 5.30473 8.80661 5.2026 8.77039C5.10047 8.73417 5.01654 8.6588 4.96881 8.56047C4.92109 8.46213 4.91337 8.34866 4.94732 8.24441C4.98127 8.14015 5.05418 8.05342 5.15041 8.00283L5.4255 7.86531L5.10343 7.62959C5.01458 7.56448 4.95501 7.46623 4.9378 7.35643C4.9206 7.24664 4.94718 7.1343 5.0117 7.04414C5.07622 6.95398 5.17339 6.89337 5.28184 6.87565C5.39028 6.85793 5.50112 6.88456 5.58997 6.94966L5.912 7.1858L5.95512 6.87838C5.97068 6.76827 6.02877 6.66882 6.11662 6.60189C6.16011 6.56876 6.2096 6.5446 6.26226 6.53081C6.31492 6.51702 6.36972 6.51387 6.42353 6.52153C6.47734 6.52918 6.5291 6.54751 6.57587 6.57544C6.62263 6.60338 6.66348 6.64039 6.69608 6.68436C6.72868 6.72833 6.75239 6.77839 6.76586 6.83169C6.77934 6.88499 6.78231 6.94049 6.7746 6.99501L6.66933 7.74104L7.30642 8.20837C7.5384 8.01361 7.81824 7.88644 8.11584 7.84053L8.19812 7.04744L7.58047 6.62933C7.48934 6.56762 7.42625 6.4717 7.40506 6.36268C7.38388 6.25366 7.40635 6.14046 7.46752 6.048C7.52869 5.95553 7.62356 5.89136 7.73125 5.86961C7.83894 5.84787 7.95064 5.87032 8.04177 5.93203L8.29597 6.10423L8.33758 5.70309C8.34906 5.5925 8.40342 5.49094 8.48872 5.42075C8.57401 5.35056 8.68326 5.31749 8.79241 5.32881ZM8.27331 10.3326C8.49162 10.3552 8.7101 10.2891 8.8807 10.1487C9.05129 10.0083 9.16002 9.80518 9.18296 9.584C9.20591 9.36282 9.14119 9.14171 9.00305 8.96929C8.86491 8.79688 8.66465 8.6873 8.44634 8.66465C8.22803 8.642 8.00955 8.70814 7.83896 8.84853C7.66836 8.98891 7.55963 9.19203 7.53669 9.41321C7.51374 9.63439 7.57846 9.85551 7.7166 10.0279C7.85475 10.2003 8.055 10.3099 8.27331 10.3326Z" fill="#EAE4D8"/>
<path fill-rule="evenodd" clip-rule="evenodd" d="M16.5922 9.76994C16.6627 9.77725 16.7274 9.81171 16.7721 9.86575C16.8168 9.91979 16.8379 9.98899 16.8308 10.0581L16.8048 10.3088L16.9878 10.2367C17.0534 10.2108 17.1269 10.2116 17.1921 10.239C17.2573 10.2663 17.3089 10.3179 17.3355 10.3824C17.3621 10.447 17.3615 10.5191 17.3339 10.583C17.3063 10.6469 17.254 10.6973 17.1883 10.7232L16.7436 10.8983L16.6922 11.394C16.8771 11.4617 17.0361 11.5772 17.1556 11.7242L17.619 11.5218L17.6498 11.0519C17.6543 10.9825 17.6868 10.9179 17.7399 10.8721C17.7931 10.8264 17.8627 10.8034 17.9333 10.8081C18.004 10.8128 18.07 10.8449 18.1168 10.8973C18.1636 10.9496 18.1873 11.018 18.1828 11.0874L18.1699 11.281L18.4042 11.1786C18.4362 11.1643 18.4708 11.1565 18.506 11.1554C18.5412 11.1543 18.5762 11.1601 18.6092 11.1724C18.6421 11.1847 18.6723 11.2033 18.698 11.2271C18.7236 11.2508 18.7443 11.2793 18.7587 11.3109C18.7731 11.3425 18.781 11.3765 18.782 11.4111C18.783 11.4456 18.777 11.48 18.7644 11.5122C18.7518 11.5444 18.7328 11.5739 18.7085 11.5988C18.6842 11.6237 18.6551 11.6437 18.6229 11.6575L18.3887 11.7597L18.5446 11.8796C18.5722 11.9009 18.5954 11.9273 18.6127 11.9573C18.63 11.9873 18.6411 12.0203 18.6454 12.0545C18.6497 12.0887 18.6471 12.1233 18.6378 12.1565C18.6284 12.1896 18.6125 12.2206 18.591 12.2477C18.5694 12.2747 18.5426 12.2974 18.5121 12.3142C18.4816 12.3311 18.448 12.3419 18.4132 12.346C18.3784 12.3501 18.3431 12.3474 18.3093 12.3381C18.2755 12.3288 18.2439 12.313 18.2162 12.2918L17.8378 12.0007L17.3747 12.2029C17.4075 12.391 17.3875 12.5841 17.3168 12.7614L17.7285 13.0546L18.1586 12.8474C18.222 12.8168 18.2954 12.8123 18.3625 12.8348C18.4296 12.8573 18.4849 12.9051 18.5163 12.9675C18.5477 13.0299 18.5526 13.1019 18.5299 13.1677C18.5072 13.2335 18.4588 13.2876 18.3953 13.3182L18.2185 13.4034L18.4264 13.5516C18.4551 13.5718 18.4795 13.5973 18.4981 13.6267C18.5168 13.6561 18.5293 13.6888 18.5351 13.7229C18.5408 13.757 18.5396 13.7919 18.5315 13.8255C18.5235 13.8591 18.5087 13.8908 18.4881 13.9187C18.4675 13.9467 18.4415 13.9703 18.4115 13.9883C18.3815 14.0063 18.3482 14.0183 18.3134 14.0236C18.2786 14.0288 18.2431 14.0273 18.2089 14.0191C18.1747 14.0108 18.1424 13.996 18.114 13.9755L17.906 13.8275L17.8786 14.0193C17.8688 14.0881 17.8315 14.1501 17.775 14.1918C17.7185 14.2335 17.6473 14.2513 17.5772 14.2414C17.507 14.2315 17.4437 14.1947 17.401 14.139C17.3584 14.0834 17.3399 14.0135 17.3497 13.9446L17.4161 13.4784L17.0041 13.1852C16.857 13.3043 16.6773 13.3849 16.4827 13.4132L16.4313 13.9089L16.8306 14.1716C16.8895 14.2104 16.9304 14.2705 16.9443 14.3387C16.9582 14.4069 16.944 14.4776 16.9047 14.5353C16.8654 14.593 16.8043 14.6329 16.7349 14.6463C16.6655 14.6596 16.5934 14.6454 16.5345 14.6066L16.3701 14.4984L16.3441 14.7491C16.337 14.8182 16.3021 14.8816 16.2472 14.9253C16.1923 14.969 16.1219 14.9895 16.0515 14.9822C15.9811 14.9749 15.9163 14.9404 15.8716 14.8864C15.8269 14.8323 15.8058 14.7631 15.8129 14.694L15.8389 14.4433L15.6559 14.5155C15.6234 14.5283 15.5886 14.5346 15.5536 14.5342C15.5185 14.5338 15.4839 14.5267 15.4516 14.5131C15.4193 14.4996 15.39 14.48 15.3654 14.4553C15.3408 14.4307 15.3214 14.4016 15.3082 14.3697C15.295 14.3377 15.2884 14.3036 15.2887 14.2692C15.2889 14.2347 15.2961 14.2007 15.3098 14.1691C15.3234 14.1375 15.3433 14.1088 15.3683 14.0847C15.3933 14.0607 15.4229 14.0417 15.4554 14.0289L15.9001 13.8538L15.9515 13.3581C15.7695 13.2912 15.6093 13.177 15.4881 13.0277L15.0247 13.2303L14.9939 13.7003C14.9916 13.7346 14.9825 13.7681 14.967 13.799C14.9516 13.8298 14.93 13.8573 14.9037 13.8799C14.8774 13.9025 14.8467 13.9198 14.8135 13.9308C14.7803 13.9418 14.7452 13.9462 14.7102 13.9439C14.6753 13.9415 14.641 13.9324 14.6096 13.9171C14.5781 13.9018 14.55 13.8806 14.5269 13.8546C14.5037 13.8287 14.486 13.7985 14.4747 13.7659C14.4634 13.7333 14.4587 13.6988 14.461 13.6645L14.4738 13.4711L14.2396 13.5733C14.2074 13.5885 14.1725 13.5972 14.1368 13.5989C14.1011 13.6006 14.0654 13.5952 14.0318 13.5832C13.9982 13.5711 13.9674 13.5525 13.9412 13.5285C13.915 13.5046 13.894 13.4757 13.8793 13.4436C13.8647 13.4116 13.8567 13.377 13.8559 13.3419C13.8551 13.3069 13.8615 13.272 13.8747 13.2395C13.8879 13.2069 13.9076 13.1773 13.9327 13.1524C13.9578 13.1275 13.9878 13.1079 14.0208 13.0946L14.255 12.9922L14.0992 12.8722C14.045 12.8287 14.0102 12.7662 14.0023 12.698C13.9945 12.6299 14.0142 12.5615 14.0571 12.5076C14.1001 12.4537 14.163 12.4185 14.2322 12.4097C14.3014 12.4009 14.3716 12.419 14.4275 12.4603L14.8059 12.7514L15.269 12.549C15.2363 12.361 15.2563 12.168 15.327 11.9907L14.9152 11.6978L14.4852 11.9047C14.4219 11.9336 14.3496 11.937 14.2836 11.9142C14.2177 11.8913 14.1634 11.844 14.1324 11.7824C14.1014 11.7209 14.0961 11.6499 14.1178 11.5848C14.1395 11.5197 14.1864 11.4656 14.2483 11.4342L14.4255 11.3488L14.2173 11.2007C14.1598 11.1598 14.1212 11.0983 14.1098 11.0296C14.0985 10.9609 14.1154 10.8907 14.1569 10.8345C14.1983 10.7783 14.2609 10.7406 14.3308 10.7297C14.4007 10.7189 14.4723 10.7357 14.5297 10.7766L14.7379 10.9249L14.7651 10.7328C14.7749 10.664 14.8122 10.602 14.8687 10.5603C14.8967 10.5397 14.9286 10.5247 14.9625 10.5162C14.9965 10.5077 15.0318 10.5058 15.0665 10.5107C15.1013 10.5156 15.1347 10.5272 15.1649 10.5447C15.1952 10.5623 15.2216 10.5855 15.2427 10.6131C15.2638 10.6406 15.2792 10.672 15.288 10.7053C15.2968 10.7387 15.2989 10.7734 15.294 10.8075L15.2277 11.2737L15.6396 11.5672C15.7889 11.4459 15.9691 11.367 16.161 11.3389L16.2124 10.8432L15.8131 10.5805C15.7542 10.5417 15.7133 10.4816 15.6994 10.4134C15.6855 10.3452 15.6998 10.2745 15.739 10.2168C15.7783 10.1591 15.8394 10.1192 15.9088 10.1058C15.9782 10.0925 16.0503 10.1067 16.1092 10.1455L16.2736 10.2537L16.2996 10.003C16.3068 9.93388 16.3416 9.87049 16.3965 9.82679C16.4514 9.78308 16.5218 9.76263 16.5922 9.76994ZM16.2678 12.8973C16.4087 12.9119 16.5495 12.871 16.6592 12.7836C16.769 12.6962 16.8387 12.5694 16.853 12.4312C16.8674 12.2929 16.8252 12.1545 16.7357 12.0465C16.6462 11.9384 16.5168 11.8694 16.3759 11.8548C16.2351 11.8402 16.0942 11.8811 15.9845 11.9685C15.8747 12.0559 15.805 12.1827 15.7907 12.3209C15.7763 12.4592 15.8185 12.5976 15.908 12.7056C15.9975 12.8137 16.1269 12.8827 16.2678 12.8973Z" fill="#EAE4D8"/>
</svg>
